<?xml version="1.0" standalone="no"?>
<!DOCTYPE svg PUBLIC "-//W3C//DTD SVG 1.1//EN" "http://www.w3.org/Graphics/SVG/1.1/DTD/svg11.dtd" >
<svg>
<metadata>
Created by FontForge 20090622 at Wed Nov  1 14:27:23 2017
 By deploy user
Copyright 2006 House Industries/Brand Design Co., Inc. All Rights Reserved.
</metadata>
<defs>
<font id="BurbankBigCondensed-Light" horiz-adv-x="280" >
  <font-face 
    font-family="Burbank Big Cd Lt"
    font-weight="300"
    font-stretch="normal"
    units-per-em="1000"
    panose-1="0 0 0 0 0 0 0 0 0 0"
    ascent="750"
    descent="-250"
    x-height="501"
    cap-height="695"
    bbox="-45 -240 495 900"
    underline-thickness="50"
    underline-position="-50"
    unicode-range="U+0020-U+FB04"
  />
<missing-glyph horiz-adv-x="140" 
 />
    <glyph glyph-name="ff" unicode="ff" horiz-adv-x="360" 
d="M353 484q-37 1 -97 2l1 -507q-19 0 -31 -1l-2 508l-42 1q0 15 1 29q16 -1 41 -2v13q1 90 21.5 130t81.5 40q17 0 38 -3q-2 -12 -3 -28q-21 3 -37 3q-41 0 -54.5 -32t-14.5 -114v-10l99 -2q0 -8 -2 -27zM160 464q-22 1 -69 2l1 -451q-19 0 -31 -1l-2 452l-49 1q0 14 1 28
q17 -1 48 -2v10q1 97 29.5 134t99.5 33q-2 -12 -3 -28q-56 2 -74.5 -26t-19.5 -117v-7q9 0 32 -0.5t39 -0.5q0 -8 -2 -27z" />
    <glyph glyph-name="fi" unicode="fi" horiz-adv-x="292" 
d="M173 454q-30 1 -83 2l2 -444q-19 0 -31 -1q-2 263 -2 445l-49 1q0 15 1 29q18 -1 48 -2v42q1 90 24.5 129t82.5 39l19 -1q-2 -12 -3 -28q-54 1 -72.5 -27.5t-18.5 -115.5v-39q48 -2 84 -2q0 -8 -2 -27zM222 -8q1 138 -3 504q13 0 31 1q0 -210 4 -504q-9 0 -32 -1z
M234 572q-12 0 -19.5 10.5t-7.5 26.5q0 40 28 40q27 0 27 -37q0 -40 -28 -40z" />
    <glyph glyph-name="fl" unicode="fl" horiz-adv-x="297" 
d="M178 474q-33 1 -87 2l1 -462q-19 0 -31 -1l-2 463l-49 1q0 15 1 29q19 -1 48 -2v3q1 91 22 129.5t84 38.5l26 -1q-2 -12 -3 -28q-15 1 -22 1q-46 0 -60 -29t-15 -115q50 -2 89 -2q0 -8 -2 -27zM255 -13l-33 2q3 181 3.5 359.5t0.5 265.5l-1 88l32 1z" />
    <glyph glyph-name="ffi" unicode="ffi" horiz-adv-x="457" 
d="M338 470q-29 1 -83 2l2 -493q-19 0 -31 -1l-2 494l-44 1q0 15 1 29q16 -1 43 -2v26q1 96 30.5 137t99.5 37q-2 -12 -3 -28q-54 1 -74 -30.5t-21 -119.5v-23q46 -2 84 -2q0 -8 -2 -27zM160 456q-22 1 -70 2l2 -432q-19 0 -31 -1l-2 433l-49 1q0 14 1 28q17 -1 48 -2v22
q1 92 33.5 131.5t106.5 35.5q-2 -12 -3 -28q-61 2 -82.5 -28.5t-22.5 -114.5v-19q9 0 32 -0.5t39 -0.5q0 -8 -2 -27zM387 12q1 115 -3 481q13 0 31 1q0 -187 4 -481q-9 0 -32 -1zM399 578q-12 0 -19.5 10.5t-7.5 26.5q0 40 28 40q27 0 27 -37q0 -40 -28 -40z" />
    <glyph glyph-name="ffl" unicode="ffl" horiz-adv-x="471" 
d="M352 474q-33 1 -87 2l1 -497q-19 0 -31 -1l-2 498l-49 1q0 15 1 29q19 -1 48 -2v15q1 91 22.5 129.5t83.5 38.5l26 -1q-2 -12 -3 -28q-16 1 -23 1q-45 0 -59 -29.5t-15 -114.5v-12q50 -2 89 -2q0 -8 -2 -27zM160 464q-22 1 -69 2l1 -448q-19 0 -31 -1l-2 449l-49 1
q0 14 1 28q17 -1 48 -2v5q1 96 32 133.5t103 33.5q-2 -12 -3 -28q-57 2 -78 -27t-22 -116v-2q9 0 32 -0.5t39 -0.5q0 -8 -2 -27zM429 -2l-33 2q3 181 3.5 356.5t0.5 260.5l-1 85l32 1z" />
    <glyph glyph-name=".notdef" horiz-adv-x="140" 
 />
    <glyph glyph-name=".null" horiz-adv-x="0" 
 />
    <glyph glyph-name="nonmarkingreturn" horiz-adv-x="333" 
 />
    <glyph glyph-name="space" unicode=" " horiz-adv-x="140" 
 />
    <glyph glyph-name="exclam" unicode="!" horiz-adv-x="133" 
d="M68 -8q-35 0 -35 46q0 44 35 44q33 0 33 -46q0 -44 -33 -44zM55 138q-2 314 -7 560q13 -1 38 0l-1 -560q-10 1 -30 0z" />
    <glyph glyph-name="quotedbl" unicode="&#x22;" horiz-adv-x="169" 
d="M27 469q1 93 -2 229q14 0 35 2q-4 -78 -5 -230q-10 0 -28 -1zM112 461q2 62 -3 249q14 -2 35 -2l-3 -248q-13 1 -29 1z" />
    <glyph glyph-name="numbersign" unicode="#" horiz-adv-x="274" 
d="M170 204v161q-46 0 -75 -1q0 -74 3 -147q-9 2 -32 2q1 54 1 145q-35 -1 -61 -2q0 12 -1 36q30 -1 62 -1l-1 123q-26 0 -56 -2q0 11 -1 36q23 -1 56 0q0 39 -2 135q10 0 31 1q-1 -55 -1 -136l76 1q-2 92 -2 144q11 0 31 1q-1 -50 0 -144l68 2q-2 -12 -2 -34q-25 0 -66 -1
l1 -125l70 2q-1 -14 -1 -35h-69l3 -161q-10 1 -32 0zM93 520l1 -123q43 0 76 1l-1 124q-18 0 -76 -2z" />
    <glyph glyph-name="dollar" unicode="$" horiz-adv-x="223" 
d="M130 -39l-34 2q3 55 3 107q-93 12 -79 191q13 -2 32 -3q-7 -83 11.5 -121t53.5 -38q62 0 62 89q0 42 -15 74t-61 72q-51 44 -72 81t-21 91t22.5 86t62.5 37l-3 107l35 1q-3 -66 -3 -109q49 -9 66 -63t7 -136q-11 0 -30 2q18 169 -57 169q-29 0 -47.5 -23t-18.5 -69
q0 -83 75 -145q58 -47 76 -84.5t18 -83.5q0 -118 -85 -126z" />
    <glyph glyph-name="percent" unicode="%" horiz-adv-x="324" 
d="M80 361q-38 0 -56.5 43t-18.5 146q0 165 76 165q40 0 57 -43t17 -137q0 -99 -19 -136.5t-56 -37.5zM80 389q24 0 34 32.5t10 118.5q0 147 -42 147q-46 0 -46 -144q0 -154 44 -154zM82 -14l-32 9l184 702l29 -6zM242 -16q-42 0 -58.5 42.5t-16.5 142.5q0 169 76 169
t76 -177q0 -98 -19.5 -137.5t-57.5 -39.5zM242 13q25 0 35.5 33t10.5 110q0 154 -46 154q-44 0 -44 -146q0 -80 10 -115.5t34 -35.5z" />
    <glyph glyph-name="ampersand" unicode="&#x26;" horiz-adv-x="293" 
d="M123 -15q-54 0 -81 45.5t-27 119.5q0 62 18.5 106.5t54.5 96.5q-29 103 -29 194q0 163 83 163q70 0 70 -113q0 -42 -7 -77t-24 -69.5t-26.5 -50.5t-34.5 -52q33 -111 91 -210q12 80 7 216h32q4 -175 -16 -255q29 -45 64 -88q-7 -8 -25 -19q-31 37 -51 68q-30 -75 -99 -75
zM126 16q52 0 75 77q-62 100 -102 222q-49 -82 -49 -162q0 -137 76 -137zM91 545q0 -77 20 -160q34 50 52.5 97.5t18.5 113.5q0 83 -42 83q-24 0 -36.5 -38t-12.5 -96z" />
    <glyph glyph-name="quotesingle" unicode="'" horiz-adv-x="85" 
d="M28 462q1 60 -3 245q15 -2 35 -2l-3 -244q-14 1 -29 1z" />
    <glyph glyph-name="parenleft" unicode="(" horiz-adv-x="161" 
d="M112 -122q-77 200 -77 437q0 98 24.5 222.5t61.5 208.5l30 -12q-41 -92 -61.5 -206.5t-20.5 -214.5q0 -226 75 -423z" />
    <glyph glyph-name="parenright" unicode=")" horiz-adv-x="161" 
d="M46 -132q-10 5 -30 11q76 209 76 444q0 100 -20.5 214.5t-61.5 206.5q12 2 32 10q37 -84 60.5 -207.5t23.5 -221.5q0 -245 -80 -457z" />
    <glyph glyph-name="asterisk" unicode="*" horiz-adv-x="200" 
d="M64 426l-28 15q35 87 43 110l-69 15l8 32q40 -14 70 -23l-4 117h33q-5 -83 -5 -118l71 24l7 -31q-60 -13 -67 -16l50 -107l-27 -15q-24 66 -44 112z" />
    <glyph glyph-name="plus" unicode="+" horiz-adv-x="230" 
d="M99 160q2 116 2 155l-95 -1l-1 32q76 -2 96 -2v153l31 -1q-2 -122 -2 -153l95 1l-1 -30l-94 1l2 -154z" />
    <glyph glyph-name="comma" unicode="," horiz-adv-x="113" 
d="M25 -70l-14 18q27 20 40 50q-27 7 -27 49q0 41 37 41q32 0 32 -50q0 -60 -68 -108z" />
    <glyph glyph-name="hyphen" unicode="-" horiz-adv-x="180" 
d="M11 318l-1 34l160 -1l-1 -33h-158z" />
    <glyph glyph-name="period" unicode="." horiz-adv-x="99" 
d="M49 -1q-34 0 -34 45q0 18 10 30t24 12q35 0 35 -42q0 -21 -9.5 -33t-25.5 -12z" />
    <glyph glyph-name="slash" unicode="/" horiz-adv-x="186" 
d="M5 -130l143 867h33l-142 -867h-34z" />
    <glyph glyph-name="zero" unicode="0" horiz-adv-x="290" 
d="M149 -17q-119 0 -119 367q0 172 27.5 258t89.5 86q113 0 113 -330q0 -195 -24.5 -288t-86.5 -93zM150 15q39 0 57.5 79.5t18.5 263.5q0 140 -20 222.5t-60 82.5q-38 0 -60.5 -75.5t-22.5 -212.5q0 -360 87 -360z" />
    <glyph glyph-name="one" unicode="1" horiz-adv-x="201" 
d="M100 -3q2 388 -3 648l-73 -70l-24 23l108 101l21 -5q0 -156 1.5 -330t3.5 -270l2 -96z" />
    <glyph glyph-name="two" unicode="2" horiz-adv-x="230" 
d="M208 -2l-183 4l-1 30q81 148 116.5 262t35.5 257q0 128 -61 128q-43 0 -56 -60.5t-1 -189.5q-11 0 -32 -2q-7 91 -3.5 153.5t25.5 95t67 32.5q93 0 93 -167q0 -238 -149 -508l151 -4z" />
    <glyph glyph-name="three" unicode="3" horiz-adv-x="255" 
d="M123 -19q-118 0 -101 259q12 0 32 -2q-12 -227 72 -227q73 0 73 140q0 125 -46 160q-19 14 -37 18t-52 2q0 17 1 35q60 -4 86 14q45 32 45 137q0 160 -66 160q-80 0 -67 -225l-33 -3q-6 130 17 194t86 64q50 0 73.5 -49t24.5 -123q0 -164 -86 -188q44 -14 67 -64.5
t23 -125.5q0 -176 -112 -176z" />
    <glyph glyph-name="four" unicode="4" horiz-adv-x="263" 
d="M177 -1q2 112 2 163q-64 -2 -174 -3q0 8 1 31l169 508l35 -1q-2 -223 -2 -504l45 1q-1 -12 -1 -31q-11 0 -44 -1l2 -162zM39 193h3h11h21.5h41h63.5q4 316 4 438z" />
    <glyph glyph-name="five" unicode="5" horiz-adv-x="259" 
d="M129 -18q-59 0 -82.5 63.5t-13.5 202.5l33 -2q-8 -128 8 -182t59 -54q23 0 37.5 17t25 72t10.5 150q0 187 -61 187q-42 0 -73 -127q-16 2 -34 3q6 167 9 385q86 0 182 2q-1 -14 -1 -33q-51 2 -148 0q0 -10 -2 -55.5l-4.5 -107.5t-3.5 -120q12 39 33 62t47 23
q45 0 66.5 -54.5t22.5 -174.5q0 -148 -26.5 -202.5t-83.5 -54.5z" />
    <glyph glyph-name="six" unicode="6" horiz-adv-x="272" 
d="M147 -16q-64 0 -90.5 81.5t-26.5 278.5q0 192 26 276.5t87 84.5q52 0 72.5 -61t15.5 -201l-32 2q3 117 -8 172t-48 55q-81 0 -81 -324v-11q34 59 88 58q53 -1 77.5 -54.5t24.5 -135.5q0 -221 -105 -221zM146 364q-48 0 -84 -74q4 -156 25.5 -216t60.5 -60q31 0 50 43.5
t19 131.5q1 77 -16 126t-55 49z" />
    <glyph glyph-name="seven" unicode="7" horiz-adv-x="225" 
d="M78 -10q-15 212 11.5 386t91.5 289h-175l-1 32l213 2l2 -27q-76 -131 -99 -298t-10 -381z" />
    <glyph glyph-name="eight" unicode="8" horiz-adv-x="267" 
d="M133 -10q-53 0 -83 42t-30 122q0 122 90 209q-81 83 -81 185q0 69 25 110t78 42q53 0 79 -41t26 -106q0 -69 -22 -111.5t-63 -78.5q50 -49 72 -98.5t23 -117.5q1 -77 -32 -117t-82 -40zM133 20q35 0 57 34t22 89q0 124 -82 200q-75 -70 -75 -188q0 -61 20.5 -98t57.5 -37
zM132 381q72 67 71 165q-2 125 -70 125q-70 0 -70 -125q0 -96 69 -165z" />
    <glyph glyph-name="nine" unicode="9" horiz-adv-x="268" 
d="M131 -9q-58 0 -83 58.5t-19 201.5l33 -2q-5 -120 11.5 -172.5t58.5 -52.5q43 0 57.5 65t15.5 251q-25 -50 -73 -50q-56 0 -84 51t-28 139q0 107 28 163.5t81 56.5q59 0 83.5 -72.5t25.5 -263.5q1 -152 -9 -231.5t-32.5 -110.5t-65.5 -31zM133 321q51 0 72 74
q-1 148 -19 211t-55 63q-77 0 -77 -185q0 -163 79 -163z" />
    <glyph glyph-name="colon" unicode=":" horiz-adv-x="129" 
d="M64 -3q-15 0 -24.5 12.5t-9.5 32.5q0 19 9.5 31.5t24.5 12.5q35 0 35 -44q0 -19 -10 -32t-25 -13zM65 259q-16 0 -25.5 12.5t-9.5 32.5t10 32t25 12q34 0 34 -44q0 -19 -9.5 -32t-24.5 -13z" />
    <glyph glyph-name="semicolon" unicode=";" horiz-adv-x="134" 
d="M37 -75l-17 17q28 20 42 56q-27 6 -27 45q0 18 9 30.5t26 12.5q34 0 34 -45q0 -65 -67 -116zM71 256q-15 0 -25.5 11t-10.5 32q0 20 10 33t26 13q14 0 23.5 -12t9.5 -32t-9.5 -32.5t-23.5 -12.5z" />
    <glyph glyph-name="less" unicode="&#x3c;" horiz-adv-x="209" 
d="M196 136l-191 179q1 7 1 26l193 172q-2 -21 -2 -47l-162 -139l164 -151q-2 -12 -3 -40z" />
    <glyph glyph-name="equal" unicode="=" horiz-adv-x="234" 
d="M16 254q0 11 -1 31q49 -1 204 2q-1 -13 -1 -33q-73 2 -202 0zM219 368l-204 2l1 31l203 -1v-32z" />
    <glyph glyph-name="greater" unicode="&#x3e;" horiz-adv-x="209" 
d="M13 137q0 10 -3 37l166 146l-164 148l-2 44l193 -177l1 -26z" />
    <glyph glyph-name="question" unicode="?" horiz-adv-x="236" 
d="M77 138l-1 179q62 8 84 53.5t22 128.5q0 178 -70 178q-44 0 -56.5 -60.5t-1.5 -182.5q-7 -2 -34 -3q-7 90 -3 152t27.5 94t70.5 32q101 0 101 -201q0 -104 -26 -150.5t-81 -63.5l1 -154zM94 -6q-35 0 -35 49q0 18 9.5 29.5t23.5 11.5q15 0 24.5 -12t9.5 -32
q0 -46 -32 -46z" />
    <glyph glyph-name="at" unicode="@" horiz-adv-x="472" 
d="M285 -101q-137 -31 -196 58.5t-59 293.5q0 174 50.5 269t152.5 95t155.5 -92t53.5 -267q0 -148 -16 -200.5t-64 -52.5q-54 0 -64 73q-20 -68 -87 -68q-39 0 -62.5 30t-23.5 80q0 124 162 182q0 33 -2 75q-2 56 -13 77t-38 21q-35 0 -45 -35.5t-5 -116.5q-16 -2 -32 -2
q-3 52 -1 93t23 67t59 26q44 0 64 -30t22 -94q3 -195 2 -244q0 -53 8.5 -78.5t31.5 -25.5q27 0 37 43t10 176q0 157 -45 243.5t-129 86.5t-126.5 -86t-42.5 -246q0 -184 49.5 -266t164.5 -55q3 -14 6 -30zM288 179q1 34 -1 91q-127 -45 -127 -151q0 -39 15 -60.5t41 -21.5
q34 0 51 31.5t21 110.5z" />
    <glyph glyph-name="A" unicode="A" horiz-adv-x="254" 
d="M5 14l94 685l47 3l103 -716q-15 1 -33 -1l-25 190q-30 2 -132 2l-21 -165q-12 2 -33 2zM123 666l-60 -459q5 0 47 -0.5t77 -0.5z" />
    <glyph glyph-name="B" unicode="B" horiz-adv-x="267" 
d="M42 2q0 324 -7 689q30 6 56 6q142 0 142 -183q0 -66 -24.5 -109.5t-70.5 -52.5q46 -12 80 -55.5t34 -115.5q0 -87 -40 -135t-119 -48q-27 0 -51 4zM74 30q7 -1 22 -1q123 0 123 145q0 79 -38.5 119.5t-110.5 39.5q2 -207 4 -303zM70 664q-1 -151 0 -299q64 -2 97.5 34.5
t33.5 115.5q0 150 -108 150q-15 0 -23 -1z" />
    <glyph glyph-name="C" unicode="C" horiz-adv-x="268" 
d="M144 -17q-61 0 -87.5 83t-26.5 278q0 190 22.5 275.5t90.5 85.5q49 0 69.5 -66t19.5 -211l-31 2q1 126 -12.5 184t-48.5 58q-44 0 -60.5 -78.5t-16.5 -245.5q0 -171 18.5 -254t64.5 -83q79 0 64 272l32 3q7 -161 -16 -232t-82 -71z" />
    <glyph glyph-name="D" unicode="D" 
d="M74 28q32 -3 56 8.5t45 44t32 100t11 168.5q0 315 -129 315q-7 0 -21 -2zM37 -4l-2 696q27 5 46 5q91 0 130 -88t39 -267q0 -146 -24 -225t-68.5 -104t-120.5 -17z" />
    <glyph glyph-name="E" unicode="E" horiz-adv-x="243" 
d="M43 3q-1 288 -8 690q73 1 183 4q0 -12 1 -29q-49 0 -150 -3q0 -128 2 -324q73 0 139 2q1 -12 0 -30h-138q2 -196 4 -281q62 -2 157 -2q-1 -14 -1 -32q-83 4 -189 5z" />
    <glyph glyph-name="F" unicode="F" horiz-adv-x="227" 
d="M43 -1q-1 292 -8 694q126 3 181 5q1 -12 1 -29q-68 -1 -148 -4q-1 -82 2 -324q62 0 127 2q0 -13 1 -31l-128 1l5 -313z" />
    <glyph glyph-name="G" unicode="G" horiz-adv-x="270" 
d="M147 -12q-66 0 -91.5 84.5t-25.5 294.5q0 161 24 250.5t85 89.5q56 0 76.5 -62t19.5 -203q-6 1 -31 2q2 118 -12 174t-51 56q-42 0 -61 -86.5t-19 -219.5q0 -192 19.5 -271t65.5 -79q42 0 58 67.5t9 219.5q-33 0 -100 -3q0 14 -1 30q47 1 131 6q9 -196 -14.5 -273
t-81.5 -77z" />
    <glyph glyph-name="H" unicode="H" horiz-adv-x="278" 
d="M211 -15q1 119 0 312q-103 0 -142 -1q2 -202 4 -291q-19 0 -34 -1q0 264 -4 678q13 0 31 1q1 -146 3 -354q2 0 49.5 -0.5t92.5 -0.5l-4 378q13 0 33 1q-1 -315 3 -723q-17 1 -32 1z" />
    <glyph glyph-name="I" unicode="I" horiz-adv-x="138" 
d="M54 -1q1 307 -4 695q15 0 33 1q2 -336 5 -696q-19 1 -34 0z" />
    <glyph glyph-name="J" unicode="J" horiz-adv-x="229" 
d="M109 -14q-48 0 -71 39.5t-23 127.5q0 69 16 142q9 -1 32 -6q-15 -73 -15 -137q0 -74 15 -104.5t48 -30.5t49 35.5t17 123.5q1 249 -53 524q10 1 33 7q52 -263 52 -522q0 -112 -24 -155.5t-76 -43.5z" />
    <glyph glyph-name="K" unicode="K" horiz-adv-x="275" 
d="M238 -22l-122 344l-50 -117l2 -199l-33 -1v676l32 -1q-1 -170 -1 -404l177 432l32 -1l-139 -343l136 -385z" />
    <glyph glyph-name="L" unicode="L" horiz-adv-x="224" 
d="M41 3q-1 279 -6 686q9 -1 35 0q-1 -236 4 -657l150 -3l-1 -30z" />
    <glyph glyph-name="M" unicode="M" horiz-adv-x="363" 
d="M30 16q8 291 13 665q24 1 58 4q31 -219 75 -456q43 207 88 481q34 -1 56 -2q4 -281 13 -721q-15 1 -35 1q2 287 -7 698q-34 -210 -93 -492q-26 -1 -44 0q-36 183 -82 470q-7 -384 -9 -650q-14 0 -33 2z" />
    <glyph glyph-name="N" unicode="N" horiz-adv-x="290" 
d="M38 11q2 264 -3 673q11 1 47 1l145 -644q-3 354 -12 667q12 -1 35 -1q1 -275 5 -720q-21 0 -48 1l-142 635q4 -425 9 -613q-26 1 -36 1z" />
    <glyph glyph-name="O" unicode="O" horiz-adv-x="290" 
d="M144 -8q-66 0 -90 88t-24 293q0 330 116 330q114 0 114 -330q0 -151 -14.5 -237t-38.5 -115t-63 -29zM144 24q43 0 62.5 80.5t19.5 266.5q0 301 -82 301q-39 0 -60 -81t-21 -200q0 -195 18 -281t63 -86z" />
    <glyph glyph-name="P" unicode="P" horiz-adv-x="246" 
d="M40 4q1 257 -5 681q18 3 35 3q86 0 126 -64.5t40 -174.5t-44.5 -168t-120.5 -68q0 -63 3 -208q-11 -1 -34 -1zM68 659l2 -415q132 13 132 207q0 97 -33.5 153.5t-100.5 54.5z" />
    <glyph glyph-name="Q" unicode="Q" horiz-adv-x="289" 
d="M265 -127q-63 97 -85 128q-18 -9 -35 -9q-67 0 -91 88.5t-24 294.5q2 325 117 325q59 0 86 -81t27 -253q0 -279 -56 -346l90 -124zM145 22q18 0 31.5 15t25.5 52t18 109t6 177q0 293 -79 293q-43 0 -63.5 -89t-20.5 -213q0 -182 19.5 -263t62.5 -81z" />
    <glyph glyph-name="R" unicode="R" horiz-adv-x="262" 
d="M231 -13l-101 323q-25 -10 -60 -16q0 -84 4 -281q-16 0 -33 -1q1 251 -6 672q32 7 62 7q147 0 147 -187q0 -132 -86 -181l104 -327q-17 -4 -31 -9zM70 327q143 12 143 175q0 76 -28.5 118.5t-86.5 42.5q-14 0 -31 -3z" />
    <glyph glyph-name="S" unicode="S" horiz-adv-x="252" 
d="M129 -21q-118 0 -98 268q11 -1 32 -2q-7 -124 10.5 -179t59.5 -55q65 0 65 125q0 56 -19 103t-66 101q-51 60 -72 104.5t-21 104.5q0 158 104 158q115 0 100 -243q-10 1 -31 2q12 209 -71 209q-68 -1 -68 -131q0 -47 18.5 -87.5t61.5 -89.5q58 -65 78 -115.5t20 -110.5
q0 -162 -103 -162z" />
    <glyph glyph-name="T" unicode="T" horiz-adv-x="232" 
d="M6 667q0 19 -1 29q36 0 221 3q0 -13 1 -30q-38 0 -94 -1q0 -345 4 -671q-15 0 -34 -1q0 272 -3 672z" />
    <glyph glyph-name="U" unicode="U" horiz-adv-x="255" 
d="M128 -13q-57 0 -82.5 80.5t-25.5 278.5q0 164 21 335q10 -2 33 -4q-21 -187 -21 -321q0 -131 9 -207t25.5 -104t42.5 -28q13 0 22.5 5.5t19.5 24t16 52t9.5 91.5t3.5 139q-2 188 -30 376q13 1 34 4q30 -213 30 -369q0 -142 -12 -220t-34 -105.5t-61 -27.5z" />
    <glyph glyph-name="V" unicode="V" horiz-adv-x="244" 
d="M95 -12l-90 685l35 1l78 -643l87 670l34 -3l-96 -712q-32 0 -48 2z" />
    <glyph glyph-name="W" unicode="W" horiz-adv-x="410" 
d="M283 -16l-83 613l-87 -587l-52 4l-51 666l35 2l43 -636q34 213 56 363l28 193l5 44l46 -2l85 -614l58 674l34 -2l-65 -717z" />
    <glyph glyph-name="X" unicode="X" horiz-adv-x="258" 
d="M39 7l-34 2l100 338l-96 330q13 0 36 2q31 -126 77 -290l84 319l35 1l-103 -365l115 -360l-35 -1q-86 280 -96 317z" />
    <glyph glyph-name="Y" unicode="Y" horiz-adv-x="238" 
d="M98 -8q2 64 0 181l-93 506q12 0 31 2q44 -264 78 -441q32 153 88 461q13 0 31 -2l-105 -529q-1 -40 3 -176q-11 -2 -33 -2z" />
    <glyph glyph-name="Z" unicode="Z" horiz-adv-x="228" 
d="M211 -1l-196 4l1 22l159 645l-156 -3l-1 29l191 3l1 -17l-161 -650l164 -2z" />
    <glyph glyph-name="bracketleft" unicode="[" horiz-adv-x="171" 
d="M155 -114q-38 2 -101 2q2 254 -4 844q40 0 97 2q-1 -12 0 -31q-23 1 -62 0q-1 -525 3 -783l68 -1q-1 -12 -1 -33z" />
    <glyph glyph-name="backslash" unicode="\" horiz-adv-x="186" 
d="M181 -130q-15 1 -34 0l-142 867q14 -1 33 0z" />
    <glyph glyph-name="bracketright" unicode="]" horiz-adv-x="171" 
d="M24 -121q1 12 0 31q23 -1 62 0q0 543 -4 801q-27 0 -67 -1q1 12 1 33q38 -2 101 -2q-2 -270 4 -860q-40 0 -97 -2z" />
    <glyph glyph-name="asciicircum" unicode="^" horiz-adv-x="261" 
d="M246 353q-13 1 -32 0l-86 285q-50 -167 -80 -283q-8 1 -33 1q49 153 99 333q3 -1 30 -1z" />
    <glyph glyph-name="underscore" unicode="_" horiz-adv-x="226" 
d="M5 -58l1 33h214l1 -34z" />
    <glyph glyph-name="grave" unicode="`" 
d="M168 541l-80 112q9 5 33 26q40 -71 71 -120q-5 -3 -24 -18z" />
    <glyph glyph-name="a" unicode="a" horiz-adv-x="248" 
d="M104 1q-40 0 -64.5 30t-24.5 79q0 63 42 113.5t127 77.5q0 23 -2 77q-2 49 -14 73t-41 24q-73 0 -60 -139q-16 0 -33 -1q-8 82 16 127.5t78 45.5q83 0 86 -123q3 -113 4 -212.5t0 -142.5l-1 -42q-8 0 -32 -1q1 38 2 89q-9 -35 -31.5 -55t-51.5 -20zM185 172q0 68 -1 100
q-136 -50 -136 -160q0 -79 61 -79q31 0 53.5 33.5t22.5 105.5z" />
    <glyph glyph-name="b" unicode="b" horiz-adv-x="283" 
d="M37 -14q1 218 -2 698q12 0 30 -1q-1 -121 0 -267q19 96 84 96q47 0 75.5 -64t28.5 -198q0 -265 -107 -265q-59 0 -80 76q0 -40 1 -75q-16 -1 -30 0zM145 12q38 0 57 65t19 175q0 93 -20 161t-57 68q-39 0 -58 -65t-19 -171q0 -233 78 -233z" />
    <glyph glyph-name="c" unicode="c" horiz-adv-x="255" 
d="M137 -13q-59 0 -83 64.5t-24 198.5q0 266 107 266q98 0 92 -203l-32 1q3 169 -57 169q-37 0 -57 -61t-20 -173q0 -231 73 -231q64 -2 61 178q13 0 33 -1q-1 -118 -24.5 -163t-68.5 -45z" />
    <glyph glyph-name="d" unicode="d" horiz-adv-x="289" 
d="M249 -21q-16 1 -35 1q2 46 3 106q-9 -44 -31.5 -68t-51.5 -24q-104 0 -104 241q0 278 107 278q29 0 50.5 -25.5t32.5 -64.5l-4 261q9 1 32 1q-3 -306 1 -706zM138 26q35 0 56.5 54t21.5 150q1 251 -78 251q-37 0 -56.5 -67.5t-19.5 -149.5q0 -238 76 -238z" />
    <glyph glyph-name="e" unicode="e" horiz-adv-x="260" 
d="M138 -13q-61 0 -84.5 67.5t-23.5 203.5q0 253 105 253q30 0 50 -19t30 -57t13 -84.5t1 -110.5q-67 -2 -166 -9q2 -214 75 -214q64 0 67 167q10 0 30 -2q-2 -195 -97 -195zM133 481q-35 0 -52 -64t-18 -154q42 0 135 8q0 104 -14.5 157t-50.5 53z" />
    <glyph glyph-name="f" unicode="f" horiz-adv-x="195" 
d="M188 474q-38 1 -97 2l1 -474q-19 0 -31 -1l-2 475l-49 1q0 15 1 29q19 -1 48 -2v15q1 90 21.5 130t80.5 40q18 0 39 -3q-2 -12 -3 -28q-21 3 -36 3q-42 0 -55.5 -32t-14.5 -114v-12l99 -2q0 -8 -2 -27z" />
    <glyph glyph-name="g" unicode="g" horiz-adv-x="246" 
d="M120 -232q-49 0 -79.5 24.5t-30.5 67.5q0 71 87 114q-47 22 -47 60q0 30 30 55q-63 39 -63 200q0 217 108 217q15 0 33 -7q16 34 68 170q13 -5 34 -16q-39 -81 -78 -172q48 -50 48 -193q0 -106 -29 -158t-78 -52q-8 0 -18 2q-21 -19 -21 -40q0 -31 68 -51
q63 -20 88.5 -43t25.5 -57q0 -52 -43 -86.5t-103 -34.5zM123 110q74 0 74 177q0 185 -74 185q-72 0 -72 -185q0 -177 72 -177zM230 -115q0 29 -23.5 46t-80.5 32q-80 -42 -80 -99q0 -32 21.5 -48t56.5 -16q41 0 73.5 23.5t32.5 61.5z" />
    <glyph glyph-name="h" unicode="h" horiz-adv-x="261" 
d="M39 6q0 310 -4 676q20 0 32 1q0 -117 1 -269q12 43 36 69t57 25q36 0 50.5 -27t16.5 -86q2 -72 2.5 -173.5t-0.5 -166.5l-1 -65q-11 1 -31 1q3 231 -1 394q-2 51 -11 71t-35 20q-32 0 -56.5 -49t-24.5 -122l-1 -298q-16 0 -30 -1z" />
    <glyph glyph-name="i" unicode="i" horiz-adv-x="115" 
d="M45 2q1 128 -3 494q13 0 31 1q0 -200 4 -494q-9 0 -32 -1zM57 572q-12 0 -19.5 10.5t-7.5 26.5q0 40 28 40q27 0 27 -37q0 -40 -28 -40z" />
    <glyph glyph-name="j" unicode="j" horiz-adv-x="114" 
d="M58 574q-29 0 -29 38t27 38q28 0 28 -39q0 -17 -7.5 -27t-18.5 -10zM-45 -195q2 14 4 34q17 -3 30 -3q29 0 41.5 16.5t13.5 55.5l-1 594l29 1q1 -35 2 -91.5t2.5 -226t-0.5 -287.5q-1 -49 -24 -73t-62 -24q-19 0 -35 4z" />
    <glyph glyph-name="k" unicode="k" horiz-adv-x="244" 
d="M200 -10l-91 280q-26 -49 -38 -74l3 -191l-34 1q0 187 -1 356.5t-3 245.5l-1 75l32 1l3 -430l129 263l31 -4q-76 -158 -98 -207l102 -314z" />
    <glyph glyph-name="l" unicode="l" horiz-adv-x="118" 
d="M75 0l-35 2l5 680l33 1z" />
    <glyph glyph-name="m" unicode="m" horiz-adv-x="417" 
d="M38 11q0 196 -3 474q9 0 32 -1q-1 -25 -1 -67q29 90 92 90q62 0 67 -92q11 36 34.5 57t49.5 21q32 0 49.5 -20t21.5 -43t5 -58l2 -384q-10 1 -31 0q1 243 -3 389q-3 84 -43 84q-38 0 -59 -38.5t-21 -103.5l2 -285q-16 -1 -36 -1q1 229 -1 352q-1 49 -10 70t-32 21
q-35 0 -59.5 -46.5t-25.5 -112.5l3 -305q-15 0 -33 -1z" />
    <glyph glyph-name="n" unicode="n" horiz-adv-x="259" 
d="M197 -18q-2 248 -2 406q0 88 -42 88q-35 0 -60 -47t-25 -110l-1 -309q-19 1 -32 0l2 483q15 0 30 1q-1 -35 0 -69q30 83 92 83q35 0 50 -27t17 -83l3 -415z" />
    <glyph glyph-name="o" unicode="o" 
d="M138 -14q-60 0 -84 67t-24 197q0 262 108 262q112 0 112 -257q0 -134 -25.5 -201.5t-86.5 -67.5zM139 17q78 0 78 239q0 93 -19.5 159.5t-58.5 66.5q-38 0 -57 -67.5t-19 -158.5q0 -118 17 -178.5t59 -60.5z" />
    <glyph glyph-name="p" unicode="p" horiz-adv-x="282" 
d="M35 -220v713l30 1q-1 -53 -1 -78q8 43 29.5 69.5t53.5 26.5q50 0 78 -69.5t27 -195.5q0 -259 -109 -259q-58 0 -79 71l9 -278zM141 16q38 0 57.5 59t20.5 155q1 112 -19.5 181.5t-56.5 69.5q-79 0 -79 -249q0 -216 77 -216z" />
    <glyph glyph-name="q" unicode="q" horiz-adv-x="288" 
d="M209 -213q8 196 10 289q-21 -87 -82 -87q-53 0 -80 66t-27 180q0 280 108 280q59 0 82 -96l-2 93h29v-724zM139 17q78 0 78 230q-1 104 -19 170t-55 67q-41 0 -60.5 -69.5t-19.5 -167.5q0 -101 19 -165.5t57 -64.5z" />
    <glyph glyph-name="r" unicode="r" horiz-adv-x="190" 
d="M37 2q0 258 -2 481q18 0 29 1q-2 -35 -2 -99q11 52 43.5 83.5t73.5 38.5q1 -13 1 -34q-107 -24 -111 -190q-1 -65 -0.5 -127t1.5 -108l2 -45q-15 -1 -35 -1z" />
    <glyph glyph-name="s" unicode="s" horiz-adv-x="230" 
d="M120 -8q-55 0 -79 44.5t-16 129.5q12 -2 31 -4q-10 -139 66 -139q60 0 60 81q0 38 -17 68.5t-61 63.5q-50 37 -69.5 74t-19.5 87q0 47 24 81t70 34q58 0 77.5 -48t12.5 -141q-12 0 -30 2q5 79 -7 118t-50 39q-30 0 -47 -23.5t-17 -59.5q0 -44 18 -76t63 -66
q51 -38 68.5 -72t17.5 -79q0 -59 -26.5 -86.5t-68.5 -27.5z" />
    <glyph glyph-name="t" unicode="t" horiz-adv-x="198" 
d="M188 8q-27 -10 -53 -10q-76 0 -79 105q-4 192 -2 365l-49 1l1 30q18 -1 49 -1l2 112l31 -1q-1 -42 -2 -112l92 -1l-1 -30l-92 2q-2 -142 3 -365q1 -74 52 -74q20 0 41 8z" />
    <glyph glyph-name="u" unicode="u" horiz-adv-x="268" 
d="M120 -3q-42 0 -63.5 52t-21.5 188q0 127 14 250q15 -1 31 -1q-13 -120 -13 -247q0 -122 14 -166.5t45 -44.5q28 0 49 50t21 118l-4 319q17 1 34 0q0 -282 2 -523q-13 0 -33 1l2 86q-12 -36 -32.5 -59t-44.5 -23z" />
    <glyph glyph-name="v" unicode="v" horiz-adv-x="229" 
d="M127 2l-37 3l-85 491l35 1l71 -437l77 451l36 -2z" />
    <glyph glyph-name="w" unicode="w" horiz-adv-x="373" 
d="M256 -5l-67 476l-75 -464l-48 3l-56 484l33 3l50 -451l71 458l50 -1l63 -448l55 462l31 -2l-63 -517z" />
    <glyph glyph-name="x" unicode="x" horiz-adv-x="247" 
d="M16 3q62 176 83 246l-89 245l32 1q64 -182 73 -206l78 222l34 -3l-96 -258l106 -264l-35 -1q-60 164 -86 225l-64 -206z" />
    <glyph glyph-name="y" unicode="y" horiz-adv-x="228" 
d="M81 -219l-29 8l39 204l-86 499l34 3l70 -438l78 455l36 -4z" />
    <glyph glyph-name="z" unicode="z" horiz-adv-x="210" 
d="M188 -3l-168 8l1 33l131 429l-124 -3l-1 33l157 4l1 -29l-131 -436l136 -6z" />
    <glyph glyph-name="braceleft" unicode="{" horiz-adv-x="191" 
d="M173 -108q-14 -2 -27 -2q-41 1 -57.5 24t-16.5 75q0 27 7.5 106.5t7.5 113.5q0 46 -17.5 71t-64.5 22l1 36q46 -1 62.5 15t16.5 61q0 34 -8.5 119t-8.5 116q0 84 69 84q16 0 39 -5l-3 -30q-41 8 -57 -4t-16 -54q0 -33 8.5 -118t8.5 -113q0 -38 -11 -59.5t-41 -31.5
q32 -9 42.5 -36.5t10.5 -74.5q0 -37 -6.5 -115t-6.5 -110q0 -37 15.5 -50t52.5 -9v-31z" />
    <glyph glyph-name="bar" unicode="|" horiz-adv-x="147" 
d="M58 -127q1 445 -3 864q13 -1 33 -1q0 -367 4 -862q-13 0 -34 -1z" />
    <glyph glyph-name="braceright" unicode="}" horiz-adv-x="189" 
d="M15 -111l3 30q41 -7 57 6t16 56q0 33 -8 120t-8 123q0 39 10 60.5t41 30.5q-53 15 -53 107q0 37 6.5 116t6.5 106q0 38 -15 51.5t-53 9.5v31q16 2 22 2q42 0 60.5 -22.5t18.5 -72.5l-15 -217q0 -52 18.5 -74t61.5 -21l-1 -36q-46 1 -61.5 -15.5t-15.5 -63.5l17 -243
q0 -86 -70 -88q-19 0 -38 4z" />
    <glyph glyph-name="asciitilde" unicode="~" horiz-adv-x="297" 
d="M50 578q-14 0 -30 3q0 68 18 100t57 32q24 0 41 -17.5t24.5 -38.5t20.5 -38.5t29 -17.5q48 0 36 105q15 0 29 -1q10 -132 -66 -132q-25 0 -43 18t-25.5 39t-19.5 39t-27 18q-45 0 -44 -109z" />
    <glyph glyph-name="exclamdown" unicode="&#xa1;" horiz-adv-x="133" 
d="M47 -108l1 560q10 -1 30 0q2 -314 7 -560q-13 1 -38 0zM65 508q-15 0 -24 12.5t-9 34.5q0 43 33 43q34 0 34 -45q0 -21 -9.5 -33t-24.5 -12z" />
    <glyph glyph-name="cent" unicode="&#xa2;" horiz-adv-x="238" 
d="M116 -39l1 105q-49 6 -73 73.5t-24 212.5q0 121 23.5 195t69.5 83l-2 107l32 1q-2 -58 -2 -107q43 -8 62 -58t17 -154l-32 -1q1 102 -13 141.5t-47 39.5q-35 0 -55 -63.5t-20 -185.5q0 -255 76 -255q70 0 62 197q13 -1 32 -1q-1 -116 -19 -166t-58 -58l1 -106h-31z" />
    <glyph glyph-name="sterling" unicode="&#xa3;" horiz-adv-x="245" 
d="M16 306l-1 31q37 -1 54 -1l-13 62t-14.5 79t-4.5 66q0 160 102 160q41 0 63.5 -33.5t27 -95t-1.5 -148.5q-14 2 -32 3q8 130 -6 186.5t-51 56.5q-68 0 -68 -129q0 -30 4 -62t13.5 -79.5t12.5 -65.5l96 2l2 -32l-93 1q5 -38 5 -71q0 -100 -43 -206q50 -2 158 -1
q-1 -12 -1 -34q-59 3 -192 3q0 19 1 39q45 92 45 194q0 40 -6 76z" />
    <glyph glyph-name="yen" unicode="&#xa5;" horiz-adv-x="237" 
d="M23 194q1 10 -1 31q28 -1 71 -1l-88 455q17 0 34 2l76 -432q40 198 86 453q16 -2 31 -3l-96 -474q18 0 74 2q-1 -10 -1 -30q-23 0 -79 -1v-58q17 0 81 2q-1 -10 0 -29q-28 1 -81 0q0 -51 3 -125q-14 -1 -34 0l1 125l-79 -2q1 11 1 29q37 -1 77 0l-1 58z" />
    <glyph glyph-name="section" unicode="&#xa7;" horiz-adv-x="248" 
d="M128 -93q-131 0 -109 234l31 -2q-21 -203 78 -203q34 0 52.5 31.5t18.5 90.5q0 40 -18 67t-67 51q-56 28 -77.5 58.5t-21.5 80.5q0 75 60 114q-28 19 -43.5 52t-15.5 71q0 75 29 116t77 41q58 0 81.5 -54t18.5 -171l-30 2q9 193 -68 193q-38 0 -56 -34t-18 -90
q0 -42 19.5 -71.5t70.5 -55.5q53 -27 73 -59t20 -78q0 -31 -16 -63t-38 -51q54 -39 54 -122q0 -69 -29.5 -108.5t-75.5 -39.5zM49 310q0 -39 22.5 -63.5t85.5 -56.5q42 40 42 101q0 43 -21 68.5t-79 53.5q-50 -30 -50 -103z" />
    <glyph glyph-name="dieresis" unicode="&#xa8;" 
d="M98 566q-27 0 -27 32q0 14 8 23t19 9q28 0 28 -32t-28 -32zM183 568q-28 0 -28 32q0 30 28 30q26 0 26 -32q0 -30 -26 -30z" />
    <glyph glyph-name="copyright" unicode="&#xa9;" horiz-adv-x="368" 
d="M182 76q-26 0 -40.5 21t-22 79.5t-7.5 166.5q0 134 16.5 198t58.5 64q38 0 51.5 -49t11.5 -163l-31 2q2 93 -4.5 135.5t-27.5 42.5q-22 0 -31.5 -53t-9.5 -183q0 -134 7 -182t29 -48q47 0 39 193l31 1q1 -90 -7.5 -141t-23.5 -67.5t-39 -16.5zM184 -18q-82 0 -118 80.5
t-36 286.5q0 181 33.5 271.5t119.5 90.5q83 0 119 -89t36 -273q0 -145 -18.5 -227t-50.5 -111t-85 -29zM186 10q63 0 93 73.5t30 263.5q0 337 -127 337q-64 0 -93 -81.5t-29 -256.5q0 -179 28 -257.5t98 -78.5z" />
    <glyph glyph-name="ordfeminine" unicode="&#xaa;" horiz-adv-x="196" 
d="M82 345q-31 0 -51.5 22.5t-20.5 61.5q0 54 35.5 88.5t101.5 38.5v18q0 103 -48 103q-57 0 -57 -99q-11 0 -27 1q-1 62 22 94.5t61 32.5q39 0 57.5 -29t19.5 -95v-229q-9 0 -26 -1q2 23 3 53q-20 -60 -70 -60zM149 487q0 27 -1 44q-51 -3 -80.5 -30t-29.5 -68
q0 -29 13 -45t32 -16q30 0 48 32.5t18 82.5z" />
    <glyph glyph-name="guillemotleft" unicode="&#xab;" horiz-adv-x="230" 
d="M89 152l-79 191l90 176q7 -2 34 -2l-90 -175l77 -181q-9 -2 -32 -9zM178 154l-78 184l81 164q13 -2 34 -3l-82 -166l76 -173q-8 -1 -31 -6z" />
    <glyph glyph-name="registered" unicode="&#xae;" horiz-adv-x="251" 
d="M126 308q-60 0 -83 50.5t-23 150.5q0 103 23.5 153t81.5 50q59 0 82.5 -50.5t23.5 -155.5q0 -104 -26 -151t-79 -47zM127 332q41 0 60 39t19 131q0 99 -16.5 142.5t-66.5 43.5q-43 0 -60.5 -41t-17.5 -138q0 -93 17.5 -135t64.5 -42zM148 377q-8 47 -20 102
q-12 -4 -21 -5q0 -66 1 -93q-13 1 -29 0q2 107 2 264q22 4 32 4q67 0 67 -87q0 -49 -29 -72q5 -27 25 -107q-9 -1 -28 -6zM107 497q47 3 47 65q0 69 -48 64z" />
    <glyph glyph-name="macron" unicode="&#xaf;" 
d="M59 581q1 14 0 33q57 -1 163 1q-1 -4 -1 -33q-59 1 -162 -1z" />
    <glyph glyph-name="degree" unicode="&#xb0;" horiz-adv-x="187" 
d="M93 473q-38 0 -60.5 31.5t-22.5 89.5q0 47 21.5 80.5t61.5 33.5q41 0 62.5 -31.5t21.5 -82.5q0 -57 -21.5 -89t-62.5 -32zM94 502q52 0 52 91q0 36 -13 61.5t-38 25.5q-26 0 -39.5 -25.5t-13.5 -61.5q0 -91 52 -91z" />
    <glyph glyph-name="twosuperior" unicode="&#xb2;" horiz-adv-x="177" 
d="M156 268l-133 2l-1 28q34 64 51.5 100t36.5 97t19 112q0 75 -39 75q-50 0 -38 -146q-17 -1 -30 -3q-7 93 9.5 134t57.5 41q67 0 67 -104q0 -122 -103 -305l104 -2z" />
    <glyph glyph-name="threesuperior" unicode="&#xb3;" horiz-adv-x="193" 
d="M94 257q-42 0 -60 38.5t-14 122.5q16 0 28 -2q-4 -133 47 -133q50 0 50 79q0 71 -28 96q-16 14 -70 12q1 10 1 30q49 -3 70 12q23 17 23 78q0 42 -11.5 67.5t-31.5 25.5q-51 0 -42 -134l-30 -2q-4 84 13 122t61 38q36 0 53 -31t18 -75q0 -99 -57 -116q59 -14 59 -119
q0 -51 -21 -80t-58 -29z" />
    <glyph glyph-name="acute" unicode="&#xb4;" 
d="M112 541l-24 18l71 120l33 -26z" />
    <glyph glyph-name="paragraph" unicode="&#xb6;" horiz-adv-x="257" 
d="M190 665q-1 0 -13 -2t-18 -4q-2 -162 -2.5 -294.5t-0.5 -183.5l1 -51q-142 18 -142 285q0 283 202 280q-3 -263 5 -787q-7 1 -35 1q3 519 3 756z" />
    <glyph glyph-name="periodcentered" unicode="&#xb7;" horiz-adv-x="129" 
d="M64 259q-15 0 -24.5 12.5t-9.5 32.5q0 19 9.5 31.5t24.5 12.5q35 0 35 -44q0 -19 -10 -32t-25 -13z" />
    <glyph glyph-name="cedilla" unicode="&#xb8;" 
d="M127 3l27 1q-3 -18 -6 -48q39 1 59.5 -14t20.5 -38q0 -29 -26 -45.5t-62 -16.5q-43 0 -78 24q6 9 12 25q34 -22 67 -22q23 0 39 8t16 24q0 40 -83 28q6 21 14 74z" />
    <glyph glyph-name="onesuperior" unicode="&#xb9;" horiz-adv-x="145" 
d="M74 267q1 252 -2 391l-51 -49l-21 21l78 72l23 -3l4 -431z" />
    <glyph glyph-name="ordmasculine" unicode="&#xba;" horiz-adv-x="214" 
d="M107 337q-46 0 -69 45t-23 148q0 84 24 130t68 46q92 0 92 -182q0 -187 -92 -187zM107 364q62 0 62 158q0 156 -60 156q-64 0 -64 -148q0 -166 62 -166z" />
    <glyph glyph-name="guillemotright" unicode="&#xbb;" horiz-adv-x="220" 
d="M48 149q-12 2 -33 3q24 52 72 174l-66 180q7 1 30 6l68 -191q-27 -60 -71 -172zM130 150q-6 2 -33 2l80 183l-67 188l31 9l69 -198z" />
    <glyph glyph-name="onequarter" unicode="&#xbc;" horiz-adv-x="401" 
d="M74 267q1 252 -2 391l-51 -49l-21 21l78 72l23 -3l4 -431zM117 -14l-32 9l184 702l29 -6zM328 2q0 37 2 101q-4 0 -116 -2q0 16 -1 33l119 302l26 -1q-1 -144 -1 -305l29 1q-1 -15 -1 -27h-28l1 -101zM334 374l-95 -244h91z" />
    <glyph glyph-name="onehalf" unicode="&#xbd;" horiz-adv-x="410" 
d="M74 267q1 252 -2 391l-51 -49l-21 21l78 72l23 -3l4 -431zM117 -14l-32 9l184 702l29 -6zM389 2l-133 2l-1 28q34 64 51.5 100t36.5 97t19 112q0 75 -39 75q-50 0 -38 -146q-17 -1 -30 -3q-7 93 9.5 134t57.5 41q67 0 67 -104q0 -122 -103 -305l104 -2z" />
    <glyph glyph-name="threequarters" unicode="&#xbe;" horiz-adv-x="439" 
d="M94 257q-42 0 -60 38.5t-14 122.5q16 0 28 -2q-4 -133 47 -133q50 0 50 79q0 71 -28 96q-16 14 -70 12q1 10 1 30q49 -3 70 12q23 17 23 78q0 42 -11.5 67.5t-31.5 25.5q-51 0 -42 -134l-30 -2q-4 84 13 122t61 38q36 0 53 -31t18 -75q0 -99 -57 -116q59 -14 59 -119
q0 -51 -21 -80t-58 -29zM155 -14l-32 9l184 702l29 -6zM366 2q0 37 2 101q-4 0 -116 -2q0 16 -1 33l119 302l26 -1q-1 -144 -1 -305l29 1q-1 -15 -1 -27h-28l1 -101zM372 374l-95 -244h91z" />
    <glyph glyph-name="questiondown" unicode="&#xbf;" horiz-adv-x="236" 
d="M121 -116q-101 0 -101 201q0 104 26 150.5t81 63.5l-1 154l33 2l1 -179q-62 -8 -84 -53.5t-22 -128.5q0 -178 70 -178q44 0 57 60t1 183q7 2 34 3q13 -140 -7 -209t-88 -69zM144 509q-16 0 -26 13t-10 33q0 44 34 44q35 0 35 -47q0 -17 -9 -30t-24 -13z" />
    <glyph glyph-name="Agrave" unicode="&#xc0;" horiz-adv-x="254" 
d="M5 14l94 685l47 3l103 -716q-15 1 -33 -1l-25 190q-30 2 -132 2l-21 -165q-12 2 -33 2zM123 666l-60 -459q5 0 47 -0.5t77 -0.5zM137 741l-80 112q9 5 33 26q40 -71 71 -120q-5 -3 -24 -18z" />
    <glyph glyph-name="Aacute" unicode="&#xc1;" horiz-adv-x="254" 
d="M5 14l94 685l47 3l103 -716q-15 1 -33 -1l-25 190q-30 2 -132 2l-21 -165q-12 2 -33 2zM123 666l-60 -459q5 0 47 -0.5t77 -0.5zM114 741l-24 18l71 120l33 -26z" />
    <glyph glyph-name="Acircumflex" unicode="&#xc2;" horiz-adv-x="254" 
d="M5 14l94 685l47 3l103 -716q-15 1 -33 -1l-25 190q-30 2 -132 2l-21 -165q-12 2 -33 2zM123 666l-60 -459q5 0 47 -0.5t77 -0.5zM66 730q-13 9 -28 17l68 116q10 -1 30 0l71 -116q-8 -4 -26 -16q-27 50 -59 96q-23 -36 -56 -97z" />
    <glyph glyph-name="Atilde" unicode="&#xc3;" horiz-adv-x="254" 
d="M5 14l94 685l47 3l103 -716q-15 1 -33 -1l-25 190q-30 2 -132 2l-21 -165q-12 2 -33 2zM123 666l-60 -459q5 0 47 -0.5t77 -0.5zM63 756q-17 1 -30 -1q-4 43 11.5 68t40.5 25q23 0 47.5 -30.5t34.5 -30.5q25 0 16 58q2 -1 28 2q10 -92 -46 -92q-18 0 -32.5 15.5t-26 30.5
t-20.5 15q-16 0 -20.5 -14t-2.5 -46z" />
    <glyph glyph-name="Adieresis" unicode="&#xc4;" horiz-adv-x="254" 
d="M5 14l94 685l47 3l103 -716q-15 1 -33 -1l-25 190q-30 2 -132 2l-21 -165q-12 2 -33 2zM123 666l-60 -459q5 0 47 -0.5t77 -0.5zM81 758q-27 0 -27 32q0 14 8 23t19 9q28 0 28 -32t-28 -32zM166 760q-28 0 -28 32q0 30 28 30q26 0 26 -32q0 -30 -26 -30z" />
    <glyph glyph-name="Aring" unicode="&#xc5;" horiz-adv-x="254" 
d="M5 14l94 685l47 3l103 -716q-15 1 -33 -1l-25 190q-30 2 -132 2l-21 -165q-12 2 -33 2zM123 666l-60 -459q5 0 47 -0.5t77 -0.5zM123 739q-32 0 -49 23t-17 58t18.5 56t47.5 21q32 0 49.5 -22t17.5 -55q0 -42 -19 -61.5t-48 -19.5zM124 768q36 0 36 52q0 21 -9 36t-27 15
q-36 0 -36 -51q0 -52 36 -52z" />
    <glyph glyph-name="AE" unicode="&#xc6;" horiz-adv-x="383" 
d="M350 322q-77 1 -149 1q21 -152 44 -302q37 1 125 5q0 -8 -1 -30q-37 -1 -153 -5l-25 185q-36 2 -132 1l-21 -166q-16 3 -33 4q40 256 93 677l274 6q0 -12 1 -31q-111 0 -220 -3l44 -312q69 -1 152 1q0 -15 1 -31zM124 659q-24 -161 -62 -454q56 -1 125 0z" />
    <glyph glyph-name="Ccedilla" unicode="&#xc7;" horiz-adv-x="268" 
d="M242 286q7 -154 -14 -225.5t-74 -76.5l-3 -34q39 1 59.5 -14t20.5 -38q0 -29 -26 -45.5t-62 -16.5q-43 0 -78 24q6 9 12 25q34 -22 67 -22q23 0 39 8t16 24q0 40 -83 28q5 19 12 62q-52 10 -75 93t-23 266q0 190 22.5 275.5t90.5 85.5q49 0 69.5 -66t19.5 -211l-31 2
q1 126 -12.5 184t-48.5 58q-44 0 -60.5 -78.5t-16.5 -245.5q0 -171 18.5 -254t64.5 -83q79 0 64 272z" />
    <glyph glyph-name="Egrave" unicode="&#xc8;" horiz-adv-x="243" 
d="M43 3q-1 288 -8 690q73 1 183 4q0 -12 1 -29q-49 0 -150 -3q0 -128 2 -324q73 0 139 2q1 -12 0 -30h-138q2 -196 4 -281q62 -2 157 -2q-1 -14 -1 -32q-83 4 -189 5zM149 746l-80 112q9 5 33 26q40 -71 71 -120q-5 -3 -24 -18z" />
    <glyph glyph-name="Eacute" unicode="&#xc9;" horiz-adv-x="243" 
d="M43 3q-1 288 -8 690q73 1 183 4q0 -12 1 -29q-49 0 -150 -3q0 -128 2 -324q73 0 139 2q1 -12 0 -30h-138q2 -196 4 -281q62 -2 157 -2q-1 -14 -1 -32q-83 4 -189 5zM126 746l-24 18l71 120l33 -26z" />
    <glyph glyph-name="Ecircumflex" unicode="&#xca;" horiz-adv-x="243" 
d="M43 3q-1 288 -8 690q73 1 183 4q0 -12 1 -29q-49 0 -150 -3q0 -128 2 -324q73 0 139 2q1 -12 0 -30h-138q2 -196 4 -281q62 -2 157 -2q-1 -14 -1 -32q-83 4 -189 5zM78 741q-13 9 -28 17l68 116q10 -1 30 0l71 -116q-8 -4 -26 -16q-27 50 -59 96q-23 -36 -56 -97z" />
    <glyph glyph-name="Edieresis" unicode="&#xcb;" horiz-adv-x="243" 
d="M43 3q-1 288 -8 690q73 1 183 4q0 -12 1 -29q-49 0 -150 -3q0 -128 2 -324q73 0 139 2q1 -12 0 -30h-138q2 -196 4 -281q62 -2 157 -2q-1 -14 -1 -32q-83 4 -189 5zM92 763q-27 0 -27 32q0 14 8 23t19 9q28 0 28 -32t-28 -32zM177 765q-28 0 -28 32q0 30 28 30
q26 0 26 -32q0 -30 -26 -30z" />
    <glyph glyph-name="Igrave" unicode="&#xcc;" horiz-adv-x="138" 
d="M54 -1q1 307 -4 695q15 0 33 1q2 -336 5 -696q-19 1 -34 0zM84 746l-80 112q9 5 33 26q40 -71 71 -120q-5 -3 -24 -18z" />
    <glyph glyph-name="Iacute" unicode="&#xcd;" horiz-adv-x="138" 
d="M54 -1q1 307 -4 695q15 0 33 1q2 -336 5 -696q-19 1 -34 0zM62 746l-24 18l71 120l33 -26z" />
    <glyph glyph-name="Icircumflex" unicode="&#xce;" horiz-adv-x="138" 
d="M54 -1q1 307 -4 695q15 0 33 1q2 -336 5 -696q-19 1 -34 0zM13 741q-13 9 -28 17l68 116q10 -1 30 0l71 -116q-8 -4 -26 -16q-27 50 -59 96q-23 -36 -56 -97z" />
    <glyph glyph-name="Idieresis" unicode="&#xcf;" horiz-adv-x="138" 
d="M54 -1q1 307 -4 695q15 0 33 1q2 -336 5 -696q-19 1 -34 0zM27 771q-27 0 -27 32q0 14 8 23t19 9q28 0 28 -32t-28 -32zM112 773q-28 0 -28 32q0 30 28 30q26 0 26 -32q0 -30 -26 -30z" />
    <glyph glyph-name="Eth" unicode="&#xd0;" horiz-adv-x="287" 
d="M43 -10v346q-20 0 -38 -1q1 10 1 31q14 -1 37 -1l-2 327q27 5 45 5q91 0 131 -88.5t40 -269.5q0 -197 -41.5 -274t-133.5 -77q-25 0 -39 2zM80 19q9 -1 13 -1q29 0 51.5 14.5t41.5 49t29 101t10 163.5q0 320 -130 320q-7 0 -21 -2q0 -206 1 -300q51 0 92 1q0 -11 1 -29
h-93z" />
    <glyph glyph-name="Ntilde" unicode="&#xd1;" horiz-adv-x="290" 
d="M38 11q2 264 -3 673q11 1 47 1l145 -644q-3 354 -12 667q12 -1 35 -1q1 -275 5 -720q-21 0 -48 1l-142 635q4 -425 9 -613q-26 1 -36 1zM85 750q-17 1 -30 -1q-4 43 11.5 68t40.5 25q23 0 47.5 -30.5t34.5 -30.5q25 0 16 58q2 -1 28 2q10 -92 -46 -92q-18 0 -32.5 15.5
t-26 30.5t-20.5 15q-16 0 -20.5 -14t-2.5 -46z" />
    <glyph glyph-name="Ograve" unicode="&#xd2;" horiz-adv-x="290" 
d="M144 -8q-66 0 -90 88t-24 293q0 330 116 330q114 0 114 -330q0 -151 -14.5 -237t-38.5 -115t-63 -29zM144 24q43 0 62.5 80.5t19.5 266.5q0 301 -82 301q-39 0 -60 -81t-21 -200q0 -195 18 -281t63 -86zM160 741l-80 112q9 5 33 26q40 -71 71 -120q-5 -3 -24 -18z" />
    <glyph glyph-name="Oacute" unicode="&#xd3;" horiz-adv-x="290" 
d="M144 -8q-66 0 -90 88t-24 293q0 330 116 330q114 0 114 -330q0 -151 -14.5 -237t-38.5 -115t-63 -29zM144 24q43 0 62.5 80.5t19.5 266.5q0 301 -82 301q-39 0 -60 -81t-21 -200q0 -195 18 -281t63 -86zM137 741l-24 18l71 120l33 -26z" />
    <glyph glyph-name="Ocircumflex" unicode="&#xd4;" horiz-adv-x="290" 
d="M144 -8q-66 0 -90 88t-24 293q0 330 116 330q114 0 114 -330q0 -151 -14.5 -237t-38.5 -115t-63 -29zM144 24q43 0 62.5 80.5t19.5 266.5q0 301 -82 301q-39 0 -60 -81t-21 -200q0 -195 18 -281t63 -86zM88 728q-13 9 -28 17l68 116q10 -1 30 0l71 -116q-8 -4 -26 -16
q-27 50 -59 96q-23 -36 -56 -97z" />
    <glyph glyph-name="Otilde" unicode="&#xd5;" horiz-adv-x="290" 
d="M144 -8q-66 0 -90 88t-24 293q0 330 116 330q114 0 114 -330q0 -151 -14.5 -237t-38.5 -115t-63 -29zM144 24q43 0 62.5 80.5t19.5 266.5q0 301 -82 301q-39 0 -60 -81t-21 -200q0 -195 18 -281t63 -86zM85 750q-17 1 -30 -1q-4 43 11.5 68t40.5 25q23 0 47.5 -30.5
t34.5 -30.5q25 0 16 58q2 -1 28 2q10 -92 -46 -92q-18 0 -32.5 15.5t-26 30.5t-20.5 15q-16 0 -20.5 -14t-2.5 -46z" />
    <glyph glyph-name="Odieresis" unicode="&#xd6;" horiz-adv-x="290" 
d="M144 -8q-66 0 -90 88t-24 293q0 330 116 330q114 0 114 -330q0 -151 -14.5 -237t-38.5 -115t-63 -29zM144 24q43 0 62.5 80.5t19.5 266.5q0 301 -82 301q-39 0 -60 -81t-21 -200q0 -195 18 -281t63 -86zM103 759q-27 0 -27 32q0 14 8 23t19 9q28 0 28 -32t-28 -32z
M188 761q-28 0 -28 32q0 30 28 30q26 0 26 -32q0 -30 -26 -30z" />
    <glyph glyph-name="multiply" unicode="&#xd7;" horiz-adv-x="244" 
d="M40 164q-12 9 -25 17l91 146l-91 149l25 16l82 -139l83 140q9 -7 24 -17l-92 -148l87 -139l-26 -17l-77 130z" />
    <glyph glyph-name="Oslash" unicode="&#xd8;" horiz-adv-x="289" 
d="M98 -88q-13 6 -28 12q9 31 21 84q-32 30 -46.5 115.5t-14.5 248.5q0 332 115 332q19 0 36 -12l15 75q13 -4 30 -7q-10 -38 -22 -93q55 -80 55 -314q0 -193 -26 -278.5t-89 -85.5q-14 0 -29 5zM144 20q42 0 61.5 80t19.5 261q0 312 -81 312t-81 -305q0 -136 8.5 -212.5
t25.5 -106t47 -29.5z" />
    <glyph glyph-name="Ugrave" unicode="&#xd9;" horiz-adv-x="255" 
d="M128 -13q-57 0 -82.5 80.5t-25.5 278.5q0 164 21 335q10 -2 33 -4q-21 -187 -21 -321q0 -131 9 -207t25.5 -104t42.5 -28q13 0 22.5 5.5t19.5 24t16 52t9.5 91.5t3.5 139q-2 188 -30 376q13 1 34 4q30 -213 30 -369q0 -142 -12 -220t-34 -105.5t-61 -27.5zM142 740
l-80 112q9 5 33 26q40 -71 71 -120q-5 -3 -24 -18z" />
    <glyph glyph-name="Uacute" unicode="&#xda;" horiz-adv-x="255" 
d="M128 -13q-57 0 -82.5 80.5t-25.5 278.5q0 164 21 335q10 -2 33 -4q-21 -187 -21 -321q0 -131 9 -207t25.5 -104t42.5 -28q13 0 22.5 5.5t19.5 24t16 52t9.5 91.5t3.5 139q-2 188 -30 376q13 1 34 4q30 -213 30 -369q0 -142 -12 -220t-34 -105.5t-61 -27.5zM119 740
l-24 18l71 120l33 -26z" />
    <glyph glyph-name="Ucircumflex" unicode="&#xdb;" horiz-adv-x="255" 
d="M128 -13q-57 0 -82.5 80.5t-25.5 278.5q0 164 21 335q10 -2 33 -4q-21 -187 -21 -321q0 -131 9 -207t25.5 -104t42.5 -28q13 0 22.5 5.5t19.5 24t16 52t9.5 91.5t3.5 139q-2 188 -30 376q13 1 34 4q30 -213 30 -369q0 -142 -12 -220t-34 -105.5t-61 -27.5zM71 741
q-13 9 -28 17l68 116q10 -1 30 0l71 -116q-8 -4 -26 -16q-27 50 -59 96q-23 -36 -56 -97z" />
    <glyph glyph-name="Udieresis" unicode="&#xdc;" horiz-adv-x="255" 
d="M128 -13q-57 0 -82.5 80.5t-25.5 278.5q0 164 21 335q10 -2 33 -4q-21 -187 -21 -321q0 -131 9 -207t25.5 -104t42.5 -28q13 0 22.5 5.5t19.5 24t16 52t9.5 91.5t3.5 139q-2 188 -30 376q13 1 34 4q30 -213 30 -369q0 -142 -12 -220t-34 -105.5t-61 -27.5zM86 763
q-27 0 -27 32q0 14 8 23t19 9q28 0 28 -32t-28 -32zM171 765q-28 0 -28 32q0 30 28 30q26 0 26 -32q0 -30 -26 -30z" />
    <glyph glyph-name="Yacute" unicode="&#xdd;" horiz-adv-x="238" 
d="M98 -8q2 64 0 181l-93 506q12 0 31 2q44 -264 78 -441q32 153 88 461q13 0 31 -2l-105 -529q-1 -40 3 -176q-11 -2 -33 -2zM112 726l-24 18l71 120l33 -26z" />
    <glyph glyph-name="Thorn" unicode="&#xde;" horiz-adv-x="249" 
d="M40 6q1 274 -5 692q12 -1 33 -1v-100q166 -3 166 -245q0 -102 -40.5 -164t-120.5 -68q0 -37 2 -113q-11 -1 -35 -1zM68 569q0 -185 4 -422q62 6 95.5 58t33.5 141q0 108 -30.5 165t-102.5 58z" />
    <glyph glyph-name="germandbls" unicode="&#xdf;" horiz-adv-x="283" 
d="M43 21q-15 247 -2 447q9 122 36 173.5t84 51.5q98 0 98 -165q0 -61 -23.5 -106.5t-72.5 -55.5q101 -28 101 -176q0 -104 -47 -152t-113 -42q1 9 1 29q125 -2 125 164q0 152 -112 165q1 12 1 26q53 3 79.5 36t26.5 115q0 133 -65 133q-39 0 -58.5 -44.5t-27.5 -138.5
q-14 -163 2 -459z" />
    <glyph glyph-name="agrave" unicode="&#xe0;" horiz-adv-x="248" 
d="M104 1q-40 0 -64.5 30t-24.5 79q0 63 42 113.5t127 77.5q0 23 -2 77q-2 49 -14 73t-41 24q-73 0 -60 -139q-16 0 -33 -1q-8 82 16 127.5t78 45.5q83 0 86 -123q3 -113 4 -212.5t0 -142.5l-1 -42q-8 0 -32 -1q1 38 2 89q-9 -35 -31.5 -55t-51.5 -20zM185 172q0 68 -1 100
q-136 -50 -136 -160q0 -79 61 -79q31 0 53.5 33.5t22.5 105.5zM131 541l-80 112q9 5 33 26q40 -71 71 -120q-5 -3 -24 -18z" />
    <glyph glyph-name="aacute" unicode="&#xe1;" horiz-adv-x="248" 
d="M104 1q-40 0 -64.5 30t-24.5 79q0 63 42 113.5t127 77.5q0 23 -2 77q-2 49 -14 73t-41 24q-73 0 -60 -139q-16 0 -33 -1q-8 82 16 127.5t78 45.5q83 0 86 -123q3 -113 4 -212.5t0 -142.5l-1 -42q-8 0 -32 -1q1 38 2 89q-9 -35 -31.5 -55t-51.5 -20zM185 172q0 68 -1 100
q-136 -50 -136 -160q0 -79 61 -79q31 0 53.5 33.5t22.5 105.5zM110 541l-24 18l71 120l33 -26z" />
    <glyph glyph-name="acircumflex" unicode="&#xe2;" horiz-adv-x="248" 
d="M104 1q-40 0 -64.5 30t-24.5 79q0 63 42 113.5t127 77.5q0 23 -2 77q-2 49 -14 73t-41 24q-73 0 -60 -139q-16 0 -33 -1q-8 82 16 127.5t78 45.5q83 0 86 -123q3 -113 4 -212.5t0 -142.5l-1 -42q-8 0 -32 -1q1 38 2 89q-9 -35 -31.5 -55t-51.5 -20zM185 172q0 68 -1 100
q-136 -50 -136 -160q0 -79 61 -79q31 0 53.5 33.5t22.5 105.5zM61 536q-13 9 -28 17l68 116q10 -1 30 0l71 -116q-8 -4 -26 -16q-27 50 -59 96q-23 -36 -56 -97z" />
    <glyph glyph-name="atilde" unicode="&#xe3;" horiz-adv-x="248" 
d="M104 1q-40 0 -64.5 30t-24.5 79q0 63 42 113.5t127 77.5q0 23 -2 77q-2 49 -14 73t-41 24q-73 0 -60 -139q-16 0 -33 -1q-8 82 16 127.5t78 45.5q83 0 86 -123q3 -113 4 -212.5t0 -142.5l-1 -42q-8 0 -32 -1q1 38 2 89q-9 -35 -31.5 -55t-51.5 -20zM185 172q0 68 -1 100
q-136 -50 -136 -160q0 -79 61 -79q31 0 53.5 33.5t22.5 105.5zM58 556q-17 1 -30 -1q-4 43 11.5 68t40.5 25q23 0 47.5 -30.5t34.5 -30.5q25 0 16 58q2 -1 28 2q10 -92 -46 -92q-18 0 -32.5 15.5t-26 30.5t-20.5 15q-16 0 -20.5 -14t-2.5 -46z" />
    <glyph glyph-name="adieresis" unicode="&#xe4;" horiz-adv-x="248" 
d="M104 1q-40 0 -64.5 30t-24.5 79q0 63 42 113.5t127 77.5q0 23 -2 77q-2 49 -14 73t-41 24q-73 0 -60 -139q-16 0 -33 -1q-8 82 16 127.5t78 45.5q83 0 86 -123q3 -113 4 -212.5t0 -142.5l-1 -42q-8 0 -32 -1q1 38 2 89q-9 -35 -31.5 -55t-51.5 -20zM185 172q0 68 -1 100
q-136 -50 -136 -160q0 -79 61 -79q31 0 53.5 33.5t22.5 105.5zM75 566q-27 0 -27 32q0 14 8 23t19 9q28 0 28 -32t-28 -32zM160 568q-28 0 -28 32q0 30 28 30q26 0 26 -32q0 -30 -26 -30z" />
    <glyph glyph-name="aring" unicode="&#xe5;" horiz-adv-x="248" 
d="M104 1q-40 0 -64.5 30t-24.5 79q0 63 42 113.5t127 77.5q0 23 -2 77q-2 49 -14 73t-41 24q-73 0 -60 -139q-16 0 -33 -1q-8 82 16 127.5t78 45.5q83 0 86 -123q3 -113 4 -212.5t0 -142.5l-1 -42q-8 0 -32 -1q1 38 2 89q-9 -35 -31.5 -55t-51.5 -20zM185 172q0 68 -1 100
q-136 -50 -136 -160q0 -79 61 -79q31 0 53.5 33.5t22.5 105.5zM117 546q-32 0 -49 23t-17 58t18.5 56t47.5 21q32 0 49.5 -22t17.5 -55q0 -42 -19 -61.5t-48 -19.5zM118 575q36 0 36 52q0 21 -9 36t-27 15q-36 0 -36 -51q0 -52 36 -52z" />
    <glyph glyph-name="ae" unicode="&#xe6;" horiz-adv-x="418" 
d="M294 -16q-33 0 -57.5 27t-34.5 81q-10 -48 -35 -74t-61 -26q-39 0 -65 29.5t-26 87.5q0 69 42 115.5t128 58.5v27q0 91 -11.5 123.5t-46.5 32.5q-32 0 -49.5 -34.5t-9.5 -110.5q-11 0 -32 -2q-17 181 92 181q65 0 80 -85q22 99 85 99q57 0 77 -67t16 -185
q-71 -3 -167 -10v-5q0 -232 75 -232q31 0 48 40t21 132q10 0 30 -2q-6 -108 -29 -154.5t-70 -46.5zM110 23q76 0 76 176v51q-138 -12 -138 -146q0 -36 15.5 -58.5t46.5 -22.5zM292 483q-28 0 -48.5 -49.5t-24.5 -149.5q56 0 136 8q3 191 -63 191z" />
    <glyph glyph-name="ccedilla" unicode="&#xe7;" horiz-adv-x="255" 
d="M230 195q-1 -112 -22.5 -158t-62.5 -49l-3 -34q39 1 59.5 -14t20.5 -38q0 -29 -26 -45.5t-62 -16.5q-43 0 -78 24q6 9 12 25q34 -22 67 -22q23 0 39 8t16 24q0 40 -83 28q5 19 12 62q-48 9 -68.5 73t-20.5 188q0 266 107 266q98 0 92 -203l-32 1q3 169 -57 169
q-37 0 -57 -61t-20 -173q0 -231 73 -231q64 -2 61 178q13 0 33 -1z" />
    <glyph glyph-name="egrave" unicode="&#xe8;" horiz-adv-x="260" 
d="M138 -13q-61 0 -84.5 67.5t-23.5 203.5q0 253 105 253q30 0 50 -19t30 -57t13 -84.5t1 -110.5q-67 -2 -166 -9q2 -214 75 -214q64 0 67 167q10 0 30 -2q-2 -195 -97 -195zM133 481q-35 0 -52 -64t-18 -154q42 0 135 8q0 104 -14.5 157t-50.5 53zM147 551l-80 112
q9 5 33 26q40 -71 71 -120q-5 -3 -24 -18z" />
    <glyph glyph-name="eacute" unicode="&#xe9;" horiz-adv-x="260" 
d="M138 -13q-61 0 -84.5 67.5t-23.5 203.5q0 253 105 253q30 0 50 -19t30 -57t13 -84.5t1 -110.5q-67 -2 -166 -9q2 -214 75 -214q64 0 67 167q10 0 30 -2q-2 -195 -97 -195zM133 481q-35 0 -52 -64t-18 -154q42 0 135 8q0 104 -14.5 157t-50.5 53zM124 551l-24 18l71 120
l33 -26z" />
    <glyph glyph-name="ecircumflex" unicode="&#xea;" horiz-adv-x="260" 
d="M138 -13q-61 0 -84.5 67.5t-23.5 203.5q0 253 105 253q30 0 50 -19t30 -57t13 -84.5t1 -110.5q-67 -2 -166 -9q2 -214 75 -214q64 0 67 167q10 0 30 -2q-2 -195 -97 -195zM133 481q-35 0 -52 -64t-18 -154q42 0 135 8q0 104 -14.5 157t-50.5 53zM76 541q-13 9 -28 17
l68 116q10 -1 30 0l71 -116q-8 -4 -26 -16q-27 50 -59 96q-23 -36 -56 -97z" />
    <glyph glyph-name="edieresis" unicode="&#xeb;" horiz-adv-x="260" 
d="M138 -13q-61 0 -84.5 67.5t-23.5 203.5q0 253 105 253q30 0 50 -19t30 -57t13 -84.5t1 -110.5q-67 -2 -166 -9q2 -214 75 -214q64 0 67 167q10 0 30 -2q-2 -195 -97 -195zM133 481q-35 0 -52 -64t-18 -154q42 0 135 8q0 104 -14.5 157t-50.5 53zM91 576q-27 0 -27 32
q0 14 8 23t19 9q28 0 28 -32t-28 -32zM176 578q-28 0 -28 32q0 30 28 30q26 0 26 -32q0 -30 -26 -30z" />
    <glyph glyph-name="igrave" unicode="&#xec;" horiz-adv-x="115" 
d="M45 2q1 128 -3 494q13 0 31 1q0 -200 4 -494q-9 0 -32 -1zM74 546l-80 112q9 5 33 26q40 -71 71 -120q-5 -3 -24 -18z" />
    <glyph glyph-name="iacute" unicode="&#xed;" horiz-adv-x="115" 
d="M45 2q1 128 -3 494q13 0 31 1q0 -200 4 -494q-9 0 -32 -1zM52 546l-24 18l71 120l33 -26z" />
    <glyph glyph-name="icircumflex" unicode="&#xee;" horiz-adv-x="115" 
d="M45 2q1 128 -3 494q13 0 31 1q0 -200 4 -494q-9 0 -32 -1zM3 541q-13 9 -28 17l68 116q10 -1 30 0l71 -116q-8 -4 -26 -16q-27 50 -59 96q-23 -36 -56 -97z" />
    <glyph glyph-name="idieresis" unicode="&#xef;" horiz-adv-x="115" 
d="M45 2q1 128 -3 494q13 0 31 1q0 -200 4 -494q-9 0 -32 -1zM18 571q-27 0 -27 32q0 14 8 23t19 9q28 0 28 -32t-28 -32zM103 573q-28 0 -28 32q0 30 28 30q26 0 26 -32q0 -30 -26 -30z" />
    <glyph glyph-name="eth" unicode="&#xf0;" horiz-adv-x="284" 
d="M140 -15q-57 0 -83.5 59.5t-26.5 207.5q0 120 27.5 187.5t80.5 67.5q50 0 74 -63q-12 83 -40 139l-52 -34q-8 12 -16 22l55 36q-27 42 -63 68l15 23q45 -31 72 -75l64 43l17 -26l-67 -42q55 -109 55 -331q0 -282 -112 -282zM138 18q79 0 79 233q0 225 -77 225
q-37 0 -57 -63.5t-20 -165.5q0 -229 75 -229z" />
    <glyph glyph-name="ntilde" unicode="&#xf1;" horiz-adv-x="259" 
d="M197 -18q-2 248 -2 406q0 88 -42 88q-35 0 -60 -47t-25 -110l-1 -309q-19 1 -32 0l2 483q15 0 30 1q-1 -35 0 -69q30 83 92 83q35 0 50 -27t17 -83l3 -415zM69 561q-17 1 -30 -1q-4 43 11.5 68t40.5 25q23 0 47.5 -30.5t34.5 -30.5q25 0 16 58q2 -1 28 2q10 -92 -46 -92
q-18 0 -32.5 15t-26 30.5t-20.5 15.5q-16 0 -20.5 -14t-2.5 -46z" />
    <glyph glyph-name="ograve" unicode="&#xf2;" 
d="M138 -14q-60 0 -84 67t-24 197q0 262 108 262q112 0 112 -257q0 -134 -25.5 -201.5t-86.5 -67.5zM139 17q78 0 78 239q0 93 -19.5 159.5t-58.5 66.5q-38 0 -57 -67.5t-19 -158.5q0 -118 17 -178.5t59 -60.5zM154 546l-80 112q9 5 33 26q40 -71 71 -120q-5 -3 -24 -18z
" />
    <glyph glyph-name="oacute" unicode="&#xf3;" 
d="M138 -14q-60 0 -84 67t-24 197q0 262 108 262q112 0 112 -257q0 -134 -25.5 -201.5t-86.5 -67.5zM139 17q78 0 78 239q0 93 -19.5 159.5t-58.5 66.5q-38 0 -57 -67.5t-19 -158.5q0 -118 17 -178.5t59 -60.5zM132 546l-24 18l71 120l33 -26z" />
    <glyph glyph-name="ocircumflex" unicode="&#xf4;" 
d="M138 -14q-60 0 -84 67t-24 197q0 262 108 262q112 0 112 -257q0 -134 -25.5 -201.5t-86.5 -67.5zM139 17q78 0 78 239q0 93 -19.5 159.5t-58.5 66.5q-38 0 -57 -67.5t-19 -158.5q0 -118 17 -178.5t59 -60.5zM84 541q-13 9 -28 17l68 116q10 -1 30 0l71 -116
q-8 -4 -26 -16q-27 50 -59 96q-23 -36 -56 -97z" />
    <glyph glyph-name="otilde" unicode="&#xf5;" 
d="M138 -14q-60 0 -84 67t-24 197q0 262 108 262q112 0 112 -257q0 -134 -25.5 -201.5t-86.5 -67.5zM139 17q78 0 78 239q0 93 -19.5 159.5t-58.5 66.5q-38 0 -57 -67.5t-19 -158.5q0 -118 17 -178.5t59 -60.5zM81 561q-17 1 -30 -1q-4 43 11.5 68t40.5 25q23 0 47.5 -30.5
t34.5 -30.5q25 0 16 58q2 -1 28 2q10 -92 -46 -92q-18 0 -32.5 15t-26 30.5t-20.5 15.5q-16 0 -20.5 -14t-2.5 -46z" />
    <glyph glyph-name="odieresis" unicode="&#xf6;" 
d="M138 -14q-60 0 -84 67t-24 197q0 262 108 262q112 0 112 -257q0 -134 -25.5 -201.5t-86.5 -67.5zM139 17q78 0 78 239q0 93 -19.5 159.5t-58.5 66.5q-38 0 -57 -67.5t-19 -158.5q0 -118 17 -178.5t59 -60.5zM98 565q-27 0 -27 32q0 14 8 23t19 9q28 0 28 -32t-28 -32z
M183 567q-28 0 -28 32q0 30 28 30q26 0 26 -32q0 -30 -26 -30z" />
    <glyph glyph-name="divide" unicode="&#xf7;" horiz-adv-x="230" 
d="M6 346q124 -1 218 0q0 -12 1 -30q-120 1 -220 -1q1 2 1 31zM115 492q13 0 21 -11.5t8 -28.5t-8 -28.5t-21 -11.5q-30 0 -30 40q0 17 8.5 28.5t21.5 11.5zM114 247q30 0 30 -41q0 -18 -8.5 -28.5t-21.5 -10.5q-29 0 -29 39q0 18 8 29.5t21 11.5z" />
    <glyph glyph-name="oslash" unicode="&#xf8;" horiz-adv-x="281" 
d="M138 -16q-20 0 -37 9l-26 -79q-10 6 -28 13q14 36 31 85q-48 59 -48 241q0 261 109 261q23 0 42 -13l23 89q7 -3 28 -8l-29 -102q48 -65 48 -232q0 -59 -5 -103t-16.5 -82.5t-34.5 -58.5t-57 -20zM140 15q78 0 78 243q0 226 -78 226q-35 0 -56 -64.5t-21 -163.5
q0 -127 17 -184t60 -57z" />
    <glyph glyph-name="ugrave" unicode="&#xf9;" horiz-adv-x="268" 
d="M120 -3q-42 0 -63.5 52t-21.5 188q0 127 14 250q15 -1 31 -1q-13 -120 -13 -247q0 -122 14 -166.5t45 -44.5q28 0 49 50t21 118l-4 319q17 1 34 0q0 -282 2 -523q-13 0 -33 1l2 86q-12 -36 -32.5 -59t-44.5 -23zM146 546l-80 112q9 5 33 26q40 -71 71 -120q-5 -3 -24 -18
z" />
    <glyph glyph-name="uacute" unicode="&#xfa;" horiz-adv-x="268" 
d="M120 -3q-42 0 -63.5 52t-21.5 188q0 127 14 250q15 -1 31 -1q-13 -120 -13 -247q0 -122 14 -166.5t45 -44.5q28 0 49 50t21 118l-4 319q17 1 34 0q0 -282 2 -523q-13 0 -33 1l2 86q-12 -36 -32.5 -59t-44.5 -23zM123 546l-24 18l71 120l33 -26z" />
    <glyph glyph-name="ucircumflex" unicode="&#xfb;" horiz-adv-x="268" 
d="M120 -3q-42 0 -63.5 52t-21.5 188q0 127 14 250q15 -1 31 -1q-13 -120 -13 -247q0 -122 14 -166.5t45 -44.5q28 0 49 50t21 118l-4 319q17 1 34 0q0 -282 2 -523q-13 0 -33 1l2 86q-12 -36 -32.5 -59t-44.5 -23zM75 541q-13 9 -28 17l68 116q10 -1 30 0l71 -116
q-8 -4 -26 -16q-27 50 -59 96q-23 -36 -56 -97z" />
    <glyph glyph-name="udieresis" unicode="&#xfc;" horiz-adv-x="268" 
d="M120 -3q-42 0 -63.5 52t-21.5 188q0 127 14 250q15 -1 31 -1q-13 -120 -13 -247q0 -122 14 -166.5t45 -44.5q28 0 49 50t21 118l-4 319q17 1 34 0q0 -282 2 -523q-13 0 -33 1l2 86q-12 -36 -32.5 -59t-44.5 -23zM90 565q-27 0 -27 32q0 14 8 23t19 9q28 0 28 -32t-28 -32
zM175 567q-28 0 -28 32q0 30 28 30q26 0 26 -32q0 -30 -26 -30z" />
    <glyph glyph-name="yacute" unicode="&#xfd;" horiz-adv-x="228" 
d="M81 -219l-29 8l39 204l-86 499l34 3l70 -438l78 455l36 -4zM107 536l-24 18l71 120l33 -26z" />
    <glyph glyph-name="thorn" unicode="&#xfe;" horiz-adv-x="285" 
d="M38 -217q1 229 0 427.5t-2 331.5l-1 133l33 1q-2 -58 -2 -271q19 105 84 105q105 0 105 -265q0 -139 -27.5 -195.5t-80.5 -56.5q-59 0 -81 72l10 -281zM144 23q78 0 78 210q0 110 -18.5 177.5t-57.5 67.5q-41 0 -60 -68t-19 -175q0 -212 77 -212z" />
    <glyph glyph-name="ydieresis" unicode="&#xff;" horiz-adv-x="228" 
d="M81 -219l-29 8l39 204l-86 499l34 3l70 -438l78 455l36 -4zM72 561q-27 0 -27 32q0 14 8 23t19 9q28 0 28 -32t-28 -32zM157 563q-28 0 -28 32q0 30 28 30q26 0 26 -32q0 -30 -26 -30z" />
    <glyph glyph-name="Amacron" unicode="&#x100;" horiz-adv-x="254" 
d="M5 14l94 685l47 3l103 -716q-15 1 -33 -1l-25 190q-30 2 -132 2l-21 -165q-12 2 -33 2zM123 666l-60 -459q5 0 47 -0.5t77 -0.5zM41 771q1 14 0 33q57 -1 163 1q-1 -4 -1 -33q-59 1 -162 -1z" />
    <glyph glyph-name="amacron" unicode="&#x101;" horiz-adv-x="248" 
d="M104 1q-40 0 -64.5 30t-24.5 79q0 63 42 113.5t127 77.5q0 23 -2 77q-2 49 -14 73t-41 24q-73 0 -60 -139q-16 0 -33 -1q-8 82 16 127.5t78 45.5q83 0 86 -123q3 -113 4 -212.5t0 -142.5l-1 -42q-8 0 -32 -1q1 38 2 89q-9 -35 -31.5 -55t-51.5 -20zM185 172q0 68 -1 100
q-136 -50 -136 -160q0 -79 61 -79q31 0 53.5 33.5t22.5 105.5zM36 581q1 14 0 33q57 -1 163 1q-1 -4 -1 -33q-59 1 -162 -1z" />
    <glyph glyph-name="Abreve" unicode="&#x102;" horiz-adv-x="254" 
d="M5 14l94 685l47 3l103 -716q-15 1 -33 -1l-25 190q-30 2 -132 2l-21 -165q-12 2 -33 2zM123 666l-60 -459q5 0 47 -0.5t77 -0.5zM121 749q-40 0 -61.5 25.5t-19.5 65.5q16 -1 33 0q-2 -29 10.5 -46t38.5 -17q57 0 53 72q10 -1 30 -1q4 -48 -20 -73.5t-64 -25.5z" />
    <glyph glyph-name="abreve" unicode="&#x103;" horiz-adv-x="248" 
d="M104 1q-40 0 -64.5 30t-24.5 79q0 63 42 113.5t127 77.5q0 23 -2 77q-2 49 -14 73t-41 24q-73 0 -60 -139q-16 0 -33 -1q-8 82 16 127.5t78 45.5q83 0 86 -123q3 -113 4 -212.5t0 -142.5l-1 -42q-8 0 -32 -1q1 38 2 89q-9 -35 -31.5 -55t-51.5 -20zM185 172q0 68 -1 100
q-136 -50 -136 -160q0 -79 61 -79q31 0 53.5 33.5t22.5 105.5zM116 549q-40 0 -61.5 25.5t-19.5 65.5q16 -1 33 0q-2 -29 10.5 -46t38.5 -17q57 0 53 72q10 -1 30 -1q4 -48 -20 -73.5t-64 -25.5z" />
    <glyph glyph-name="Aogonek" unicode="&#x104;" horiz-adv-x="254" 
d="M256 -157q-40 -2 -65 16t-25 50q0 46 50 77l-25 189q-30 2 -132 2l-21 -165q-12 2 -33 2l94 685l47 3l103 -716q-49 -40 -49 -69q0 -44 57 -43q0 -8 -1 -31zM123 666l-60 -459q5 0 47 -0.5t77 -0.5z" />
    <glyph glyph-name="aogonek" unicode="&#x105;" horiz-adv-x="248" 
d="M104 1q-40 0 -64.5 30t-24.5 79q0 63 42 113.5t127 77.5q0 23 -2 77q-2 49 -14 73t-41 24q-73 0 -60 -139q-16 0 -33 -1q-8 82 16 127.5t78 45.5q83 0 86 -123q3 -113 4 -212.5t0 -142.5l-1 -42q-50 -26 -50 -66q0 -48 61 -47q0 -8 -1 -31q-42 -2 -68 17.5t-26 52.5
q0 50 52 78q0 3 0.5 14t1 31.5t0.5 38.5q-9 -35 -31.5 -55t-51.5 -20zM185 172q0 68 -1 100q-136 -50 -136 -160q0 -79 61 -79q31 0 53.5 33.5t22.5 105.5z" />
    <glyph glyph-name="Cacute" unicode="&#x106;" horiz-adv-x="268" 
d="M144 -17q-61 0 -87.5 83t-26.5 278q0 190 22.5 275.5t90.5 85.5q49 0 69.5 -66t19.5 -211l-31 2q1 126 -12.5 184t-48.5 58q-44 0 -60.5 -78.5t-16.5 -245.5q0 -171 18.5 -254t64.5 -83q79 0 64 272l32 3q7 -161 -16 -232t-82 -71zM129 751l-24 18l71 120l33 -26z" />
    <glyph glyph-name="cacute" unicode="&#x107;" horiz-adv-x="255" 
d="M137 -13q-59 0 -83 64.5t-24 198.5q0 266 107 266q98 0 92 -203l-32 1q3 169 -57 169q-37 0 -57 -61t-20 -173q0 -231 73 -231q64 -2 61 178q13 0 33 -1q-1 -118 -24.5 -163t-68.5 -45zM122 551l-24 18l71 120l33 -26z" />
    <glyph glyph-name="Ccircumflex" unicode="&#x108;" horiz-adv-x="268" 
d="M144 -17q-61 0 -87.5 83t-26.5 278q0 190 22.5 275.5t90.5 85.5q49 0 69.5 -66t19.5 -211l-31 2q1 126 -12.5 184t-48.5 58q-44 0 -60.5 -78.5t-16.5 -245.5q0 -171 18.5 -254t64.5 -83q79 0 64 272l32 3q7 -161 -16 -232t-82 -71zM81 737q-13 9 -28 17l68 116
q10 -1 30 0l71 -116q-8 -4 -26 -16q-27 50 -59 96q-23 -36 -56 -97z" />
    <glyph glyph-name="ccircumflex" unicode="&#x109;" horiz-adv-x="255" 
d="M137 -13q-59 0 -83 64.5t-24 198.5q0 266 107 266q98 0 92 -203l-32 1q3 169 -57 169q-37 0 -57 -61t-20 -173q0 -231 73 -231q64 -2 61 178q13 0 33 -1q-1 -118 -24.5 -163t-68.5 -45zM74 546q-13 9 -28 17l68 116q10 -1 30 0l71 -116q-8 -4 -26 -16q-27 50 -59 96
q-23 -36 -56 -97z" />
    <glyph glyph-name="Ccaron" unicode="&#x10c;" horiz-adv-x="268" 
d="M144 -17q-61 0 -87.5 83t-26.5 278q0 190 22.5 275.5t90.5 85.5q49 0 69.5 -66t19.5 -211l-31 2q1 126 -12.5 184t-48.5 58q-44 0 -60.5 -78.5t-16.5 -245.5q0 -171 18.5 -254t64.5 -83q79 0 64 272l32 3q7 -161 -16 -232t-82 -71zM124 746l-71 116q8 4 26 16
q28 -51 60 -97l55 98q13 -9 28 -17q-30 -47 -68 -116q-10 1 -30 0z" />
    <glyph glyph-name="ccaron" unicode="&#x10d;" horiz-adv-x="255" 
d="M137 -13q-59 0 -83 64.5t-24 198.5q0 266 107 266q98 0 92 -203l-32 1q3 169 -57 169q-37 0 -57 -61t-20 -173q0 -231 73 -231q64 -2 61 178q13 0 33 -1q-1 -118 -24.5 -163t-68.5 -45zM117 546l-71 116q8 4 26 16q28 -51 60 -97l55 98q13 -9 28 -17q-30 -47 -68 -116
q-10 1 -30 0z" />
    <glyph glyph-name="Dcaron" unicode="&#x10e;" 
d="M74 28q32 -3 56 8.5t45 44t32 100t11 168.5q0 315 -129 315q-7 0 -21 -2zM37 -4l-2 696q27 5 46 5q91 0 130 -88t39 -267q0 -146 -24 -225t-68.5 -104t-120.5 -17zM94 746l-71 116q8 4 26 16q28 -51 60 -97l55 98q13 -9 28 -17q-30 -47 -68 -116q-10 1 -30 0z" />
    <glyph glyph-name="dcaron" unicode="&#x10f;" horiz-adv-x="289" 
d="M249 -21q-16 1 -35 1q2 46 3 106q-9 -44 -31.5 -68t-51.5 -24q-104 0 -104 241q0 278 107 278q29 0 50.5 -25.5t32.5 -64.5l-4 261q9 1 32 1q-3 -306 1 -706zM138 26q35 0 56.5 54t21.5 150q1 251 -78 251q-37 0 -56.5 -67.5t-19.5 -149.5q0 -238 76 -238zM362 647
q0 -54 -66 -103l-15 20q23 18 39 47q-26 5 -26 36q0 16 10.5 27t24.5 11q33 0 33 -38z" />
    <glyph glyph-name="Dcroat" unicode="&#x110;" horiz-adv-x="287" 
d="M43 -10v346q-20 0 -38 -1q1 10 1 31q14 -1 37 -1l-2 327q27 5 45 5q91 0 131 -88.5t40 -269.5q0 -197 -41.5 -274t-133.5 -77q-25 0 -39 2zM80 19q9 -1 13 -1q29 0 51.5 14.5t41.5 49t29 101t10 163.5q0 320 -130 320q-7 0 -21 -2q0 -206 1 -300q51 0 92 1q0 -11 1 -29
h-93z" />
    <glyph glyph-name="dcroat" unicode="&#x111;" horiz-adv-x="278" 
d="M328 574l-81 1q-2 -249 2 -596q-16 1 -35 1q2 43 3 100q-9 -42 -32 -64t-51 -22q-104 0 -104 241q0 278 107 278q30 0 51.5 -28t31.5 -69q0 19 -2 159h-56v28h55l-1 81q9 1 32 1q-1 -34 -1 -82l81 1v-30zM138 26q35 0 56.5 54t21.5 150q1 251 -78 251q-37 0 -56.5 -67.5
t-19.5 -149.5q0 -238 76 -238z" />
    <glyph glyph-name="Emacron" unicode="&#x112;" horiz-adv-x="243" 
d="M43 3q-1 288 -8 690q73 1 183 4q0 -12 1 -29q-49 0 -150 -3q0 -128 2 -324q73 0 139 2q1 -12 0 -30h-138q2 -196 4 -281q62 -2 157 -2q-1 -14 -1 -32q-83 4 -189 5zM53 775q1 14 0 33q57 -1 163 1q-1 -4 -1 -33q-59 1 -162 -1z" />
    <glyph glyph-name="emacron" unicode="&#x113;" horiz-adv-x="260" 
d="M138 -13q-61 0 -84.5 67.5t-23.5 203.5q0 253 105 253q30 0 50 -19t30 -57t13 -84.5t1 -110.5q-67 -2 -166 -9q2 -214 75 -214q64 0 67 167q10 0 30 -2q-2 -195 -97 -195zM133 481q-35 0 -52 -64t-18 -154q42 0 135 8q0 104 -14.5 157t-50.5 53zM51 591q1 14 0 33
q57 -1 163 1q-1 -4 -1 -33q-59 1 -162 -1z" />
    <glyph glyph-name="Edotaccent" unicode="&#x116;" horiz-adv-x="243" 
d="M43 3q-1 288 -8 690q73 1 183 4q0 -12 1 -29q-49 0 -150 -3q0 -128 2 -324q73 0 139 2q1 -12 0 -30h-138q2 -196 4 -281q62 -2 157 -2q-1 -14 -1 -32q-83 4 -189 5zM135 766q-19 0 -29.5 13t-10.5 34q0 20 10.5 32t29.5 12q18 0 28 -12.5t10 -31.5q0 -47 -38 -47z" />
    <glyph glyph-name="edotaccent" unicode="&#x117;" horiz-adv-x="260" 
d="M138 -13q-61 0 -84.5 67.5t-23.5 203.5q0 253 105 253q30 0 50 -19t30 -57t13 -84.5t1 -110.5q-67 -2 -166 -9q2 -214 75 -214q64 0 67 167q10 0 30 -2q-2 -195 -97 -195zM133 481q-35 0 -52 -64t-18 -154q42 0 135 8q0 104 -14.5 157t-50.5 53zM134 571q-19 0 -29.5 13
t-10.5 34q0 20 10.5 32t29.5 12q18 0 28 -12.5t10 -31.5q0 -47 -38 -47z" />
    <glyph glyph-name="Eogonek" unicode="&#x118;" horiz-adv-x="243" 
d="M243 -153q-42 -2 -68 17.5t-26 52.5q0 50 53 83l-159 3q-1 288 -8 690q73 1 183 4q0 -12 1 -29q-49 0 -150 -3q0 -128 2 -324q73 0 139 2q1 -12 0 -30h-138q2 -196 4 -281q62 -2 157 -2q-1 -14 -1 -32q-49 -41 -49 -73q0 -48 61 -47q0 -8 -1 -31z" />
    <glyph glyph-name="eogonek" unicode="&#x119;" horiz-adv-x="260" 
d="M179 -148q-42 -2 -68 17.5t-26 52.5q0 37 33 67q-50 11 -69 77.5t-19 191.5q0 253 105 253q30 0 50 -19t30 -57t13 -84.5t1 -110.5q-67 -2 -166 -9q2 -214 75 -214q64 0 67 167q10 0 30 -2q-2 -180 -84 -194q-32 -29 -32 -58q0 -48 61 -47q0 -8 -1 -31zM133 481
q-35 0 -52 -64t-18 -154q42 0 135 8q0 104 -14.5 157t-50.5 53z" />
    <glyph glyph-name="Ecaron" unicode="&#x11a;" horiz-adv-x="243" 
d="M43 3q-1 288 -8 690q73 1 183 4q0 -12 1 -29q-49 0 -150 -3q0 -128 2 -324q73 0 139 2q1 -12 0 -30h-138q2 -196 4 -281q62 -2 157 -2q-1 -14 -1 -32q-83 4 -189 5zM121 741l-71 116q8 4 26 16q28 -51 60 -97l55 98q13 -9 28 -17q-30 -47 -68 -116q-10 1 -30 0z" />
    <glyph glyph-name="ecaron" unicode="&#x11b;" horiz-adv-x="260" 
d="M138 -13q-61 0 -84.5 67.5t-23.5 203.5q0 253 105 253q30 0 50 -19t30 -57t13 -84.5t1 -110.5q-67 -2 -166 -9q2 -214 75 -214q64 0 67 167q10 0 30 -2q-2 -195 -97 -195zM133 481q-35 0 -52 -64t-18 -154q42 0 135 8q0 104 -14.5 157t-50.5 53zM119 546l-71 116
q8 4 26 16q28 -51 60 -97l55 98q13 -9 28 -17q-30 -47 -68 -116q-10 1 -30 0z" />
    <glyph glyph-name="Gcircumflex" unicode="&#x11c;" horiz-adv-x="270" 
d="M147 -12q-66 0 -91.5 84.5t-25.5 294.5q0 161 24 250.5t85 89.5q56 0 76.5 -62t19.5 -203q-6 1 -31 2q2 118 -12 174t-51 56q-42 0 -61 -86.5t-19 -219.5q0 -192 19.5 -271t65.5 -79q42 0 58 67.5t9 219.5q-33 0 -100 -3q0 14 -1 30q47 1 131 6q9 -196 -14.5 -273
t-81.5 -77zM82 732q-13 9 -28 17l68 116q10 -1 30 0l71 -116q-8 -4 -26 -16q-27 50 -59 96q-23 -36 -56 -97z" />
    <glyph glyph-name="gcircumflex" unicode="&#x11d;" horiz-adv-x="246" 
d="M123 110q74 0 74 177q0 185 -74 185q-72 0 -72 -185q0 -177 72 -177zM230 -115q0 29 -23.5 46t-80.5 32q-80 -42 -80 -99q0 -32 21.5 -48t56.5 -16q41 0 73.5 23.5t32.5 61.5zM266 -111q0 -52 -43 -86.5t-103 -34.5q-49 0 -79.5 24.5t-30.5 67.5q0 71 87 114
q-47 22 -47 60q0 30 30 55q-63 39 -63 200q0 217 108 217q105 0 105 -218q0 -106 -29 -158t-78 -52q-8 0 -18 2q-21 -19 -21 -40q0 -31 68 -51q63 -20 88.5 -43t25.5 -57zM68 534q-13 9 -28 17l68 116q10 -1 30 0l71 -116q-8 -4 -26 -16q-27 50 -59 96q-23 -36 -56 -97z" />
    <glyph glyph-name="Gbreve" unicode="&#x11e;" horiz-adv-x="270" 
d="M147 -12q-66 0 -91.5 84.5t-25.5 294.5q0 161 24 250.5t85 89.5q56 0 76.5 -62t19.5 -203q-6 1 -31 2q2 118 -12 174t-51 56q-42 0 -61 -86.5t-19 -219.5q0 -192 19.5 -271t65.5 -79q42 0 58 67.5t9 219.5q-33 0 -100 -3q0 14 -1 30q47 1 131 6q9 -196 -14.5 -273
t-81.5 -77zM137 747q-40 0 -61.5 25.5t-19.5 65.5q16 -1 33 0q-2 -29 10.5 -46t38.5 -17q57 0 53 72q10 -1 30 -1q4 -48 -20 -73.5t-64 -25.5z" />
    <glyph glyph-name="gbreve" unicode="&#x11f;" horiz-adv-x="246" 
d="M123 110q74 0 74 177q0 185 -74 185q-72 0 -72 -185q0 -177 72 -177zM230 -115q0 29 -23.5 46t-80.5 32q-80 -42 -80 -99q0 -32 21.5 -48t56.5 -16q41 0 73.5 23.5t32.5 61.5zM266 -111q0 -52 -43 -86.5t-103 -34.5q-49 0 -79.5 24.5t-30.5 67.5q0 71 87 114
q-47 22 -47 60q0 30 30 55q-63 39 -63 200q0 217 108 217q105 0 105 -218q0 -106 -29 -158t-78 -52q-8 0 -18 2q-21 -19 -21 -40q0 -31 68 -51q63 -20 88.5 -43t25.5 -57zM123 553q-40 0 -61.5 25.5t-19.5 65.5q16 -1 33 0q-2 -29 10.5 -46t38.5 -17q57 0 53 72q10 -1 30 -1
q4 -48 -20 -73.5t-64 -25.5z" />
    <glyph glyph-name="Gcommaaccent" unicode="&#x122;" horiz-adv-x="270" 
d="M147 -12q-66 0 -91.5 84.5t-25.5 294.5q0 161 24 250.5t85 89.5q56 0 76.5 -62t19.5 -203q-6 1 -31 2q2 118 -12 174t-51 56q-42 0 -61 -86.5t-19 -219.5q0 -192 19.5 -271t65.5 -79q42 0 58 67.5t9 219.5q-33 0 -100 -3q0 14 -1 30q47 1 131 6q9 -196 -14.5 -273
t-81.5 -77zM181 -81q0 -54 -66 -103l-15 20q23 18 39 47q-26 5 -26 36q0 16 10.5 27t24.5 11q33 0 33 -38z" />
    <glyph glyph-name="gcommaaccent" unicode="&#x123;" horiz-adv-x="246" 
d="M123 110q74 0 74 177q0 185 -74 185q-72 0 -72 -185q0 -177 72 -177zM230 -115q0 29 -23.5 46t-80.5 32q-80 -42 -80 -99q0 -32 21.5 -48t56.5 -16q41 0 73.5 23.5t32.5 61.5zM266 -111q0 -52 -43 -86.5t-103 -34.5q-49 0 -79.5 24.5t-30.5 67.5q0 71 87 114
q-47 22 -47 60q0 30 30 55q-63 39 -63 200q0 217 108 217q105 0 105 -218q0 -106 -29 -158t-78 -52q-8 0 -18 2q-21 -19 -21 -40q0 -31 68 -51q63 -20 88.5 -43t25.5 -57zM88 577q0 54 66 103l15 -20q-23 -18 -39 -47q26 -5 26 -36q0 -16 -10.5 -27t-24.5 -11q-33 0 -33 38z
" />
    <glyph glyph-name="Hcircumflex" unicode="&#x124;" horiz-adv-x="278" 
d="M211 -15q1 119 0 312q-103 0 -142 -1q2 -202 4 -291q-19 0 -34 -1q0 264 -4 678q13 0 31 1q1 -146 3 -354q2 0 49.5 -0.5t92.5 -0.5l-4 378q13 0 33 1q-1 -315 3 -723q-17 1 -32 1zM83 746q-13 9 -28 17l68 116q10 -1 30 0l71 -116q-8 -4 -26 -16q-27 50 -59 96
q-23 -36 -56 -97z" />
    <glyph glyph-name="hcircumflex" unicode="&#x125;" horiz-adv-x="261" 
d="M39 6q0 310 -4 676q20 0 32 1q0 -117 1 -269q12 43 36 69t57 25q36 0 50.5 -27t16.5 -86q2 -72 2.5 -173.5t-0.5 -166.5l-1 -65q-11 1 -31 1q3 231 -1 394q-2 51 -11 71t-35 20q-32 0 -56.5 -49t-24.5 -122l-1 -298q-16 0 -30 -1zM-8 697q-13 9 -28 17l68 116q10 -1 30 0
l71 -116q-8 -4 -26 -16q-27 50 -59 96q-23 -36 -56 -97z" />
    <glyph glyph-name="Imacron" unicode="&#x12a;" horiz-adv-x="138" 
d="M54 -1q1 307 -4 695q15 0 33 1q2 -336 5 -696q-19 1 -34 0zM-12 786q1 14 0 33q57 -1 163 1q-1 -4 -1 -33q-59 1 -162 -1z" />
    <glyph glyph-name="imacron" unicode="&#x12b;" horiz-adv-x="115" 
d="M45 2q1 128 -3 494q13 0 31 1q0 -200 4 -494q-9 0 -32 -1zM-22 586q1 14 0 33q57 -1 163 1q-1 -4 -1 -33q-59 1 -162 -1z" />
    <glyph glyph-name="Iogonek" unicode="&#x12e;" horiz-adv-x="138" 
d="M95 -150q-42 -2 -68 17.5t-26 52.5q0 50 53 81q0 383 -4 693q15 0 33 1q2 -336 5 -696q-53 -33 -53 -71q0 -48 61 -47q0 -8 -1 -31z" />
    <glyph glyph-name="iogonek" unicode="&#x12f;" horiz-adv-x="115" 
d="M88 -148q-42 -2 -68 17.5t-26 52.5q0 48 51 81q1 128 -3 493q13 0 31 1q0 -200 4 -494q-49 -41 -49 -73q0 -48 61 -47q0 -8 -1 -31zM57 572q-12 0 -19.5 10.5t-7.5 26.5q0 40 28 40q27 0 27 -37q0 -40 -28 -40z" />
    <glyph glyph-name="Idotaccent" unicode="&#x130;" horiz-adv-x="138" 
d="M54 -1q1 307 -4 695q15 0 33 1q2 -336 5 -696q-19 1 -34 0zM70 766q-19 0 -29.5 13t-10.5 34q0 20 10.5 32t29.5 12q18 0 28 -12.5t10 -31.5q0 -47 -38 -47z" />
    <glyph glyph-name="dotlessi" unicode="&#x131;" horiz-adv-x="115" 
d="M45 2q1 128 -3 494q13 0 31 1q0 -200 4 -494q-9 0 -32 -1z" />
    <glyph glyph-name="Jcircumflex" unicode="&#x134;" horiz-adv-x="229" 
d="M109 -14q-48 0 -71 39.5t-23 127.5q0 69 16 142q9 -1 32 -6q-15 -73 -15 -137q0 -74 15 -104.5t48 -30.5t49 35.5t17 123.5q1 249 -53 524q10 1 33 7q52 -263 52 -522q0 -112 -24 -155.5t-76 -43.5zM80 728q-13 9 -28 17l68 116q10 -1 30 0l71 -116q-8 -4 -26 -16
q-27 50 -59 96q-23 -36 -56 -97z" />
    <glyph glyph-name="jcircumflex" unicode="&#x135;" horiz-adv-x="114" 
d="M-45 -195q2 14 4 34q17 -3 30 -3q29 0 41.5 16.5t13.5 55.5l-1 594l29 1q1 -35 2 -91.5t2.5 -226t-0.5 -287.5q-1 -48 -24 -72.5t-61 -24.5q-19 0 -36 4zM3 551q-13 9 -28 17l68 116q10 -1 30 0l71 -116q-8 -4 -26 -16q-27 50 -59 96q-23 -36 -56 -97z" />
    <glyph glyph-name="Kcommaaccent" unicode="&#x136;" horiz-adv-x="275" 
d="M238 -22l-122 344l-50 -117l2 -199l-33 -1v676l32 -1q-1 -170 -1 -404l177 432l32 -1l-139 -343l136 -385zM179 -62q0 -54 -66 -103l-15 20q23 18 39 47q-26 5 -26 36q0 16 10.5 27t24.5 11q33 0 33 -38z" />
    <glyph glyph-name="kcommaaccent" unicode="&#x137;" horiz-adv-x="244" 
d="M200 -10l-91 280q-26 -49 -38 -74l3 -191l-34 1q0 187 -1 356.5t-3 245.5l-1 75l32 1l3 -430l129 263l31 -4q-76 -158 -98 -207l102 -314zM167 -55q0 -54 -66 -103l-15 20q23 18 39 47q-26 5 -26 36q0 16 10.5 27t24.5 11q33 0 33 -38z" />
    <glyph glyph-name="Lacute" unicode="&#x139;" horiz-adv-x="224" 
d="M41 3q-1 279 -6 686q9 -1 35 0q-1 -236 4 -657l150 -3l-1 -30zM66 729l-24 18l71 120l33 -26z" />
    <glyph glyph-name="lacute" unicode="&#x13a;" horiz-adv-x="118" 
d="M75 0l-35 2l5 680l33 1zM75 715l-24 18l71 120l33 -26z" />
    <glyph glyph-name="Lcommaaccent" unicode="&#x13b;" horiz-adv-x="224" 
d="M41 3q-1 279 -6 686q9 -1 35 0q-1 -236 4 -657l150 -3l-1 -30zM162 -66q0 -54 -66 -103l-15 20q23 18 39 47q-26 5 -26 36q0 16 10.5 27t24.5 11q33 0 33 -38z" />
    <glyph glyph-name="lcommaaccent" unicode="&#x13c;" horiz-adv-x="118" 
d="M75 0l-35 2l5 680l33 1zM91 -66q0 -54 -66 -103l-15 20q23 18 39 47q-26 5 -26 36q0 16 10.5 27t24.5 11q33 0 33 -38z" />
    <glyph glyph-name="Lcaron" unicode="&#x13d;" horiz-adv-x="224" 
d="M41 3q-1 279 -6 686q9 -1 35 0q-1 -236 4 -657l150 -3l-1 -30zM204 685q0 -54 -66 -103l-15 20q23 18 39 47q-26 5 -26 36q0 16 10.5 27t24.5 11q33 0 33 -38z" />
    <glyph glyph-name="lcaron" unicode="&#x13e;" horiz-adv-x="118" 
d="M75 0l-35 2l5 680l33 1zM191 645q0 -54 -66 -103l-15 20q23 18 39 47q-26 5 -26 36q0 16 10.5 27t24.5 11q33 0 33 -38z" />
    <glyph glyph-name="Lslash" unicode="&#x141;" horiz-adv-x="230" 
d="M10 302q1 13 1 34l34 13q0 33 -1.5 150l-2.5 190q9 -1 35 0q-1 -115 1 -326l95 42q0 -14 1 -32l-96 -41q0 -129 3 -300l150 -3l-1 -30l-182 4q-1 118 -2 315z" />
    <glyph glyph-name="lslash" unicode="&#x142;" horiz-adv-x="141" 
d="M15 350q1 13 1 34l39 15l1 283l33 1q-2 -210 -2 -270l38 17q0 -14 1 -32l-39 -16l-1 -382l-35 2l4 366z" />
    <glyph glyph-name="Nacute" unicode="&#x143;" horiz-adv-x="290" 
d="M38 11q2 264 -3 673q11 1 47 1l145 -644q-3 354 -12 667q12 -1 35 -1q1 -275 5 -720q-21 0 -48 1l-142 635q4 -425 9 -613q-26 1 -36 1zM137 731l-24 18l71 120l33 -26z" />
    <glyph glyph-name="nacute" unicode="&#x144;" horiz-adv-x="259" 
d="M197 -18q-2 248 -2 406q0 88 -42 88q-35 0 -60 -47t-25 -110l-1 -309q-19 1 -32 0l2 483q15 0 30 1q-1 -35 0 -69q30 83 92 83q35 0 50 -27t17 -83l3 -415zM120 546l-24 18l71 120l33 -26z" />
    <glyph glyph-name="Ncommaaccent" unicode="&#x145;" horiz-adv-x="290" 
d="M38 11q2 264 -3 673q11 1 47 1l145 -644q-3 354 -12 667q12 -1 35 -1q1 -275 5 -720q-21 0 -48 1l-142 635q4 -425 9 -613q-26 1 -36 1zM176 -66q0 -54 -66 -103l-15 20q23 18 39 47q-26 5 -26 36q0 16 10.5 27t24.5 11q33 0 33 -38z" />
    <glyph glyph-name="ncommaaccent" unicode="&#x146;" horiz-adv-x="259" 
d="M197 -18q-2 248 -2 406q0 88 -42 88q-35 0 -60 -47t-25 -110l-1 -309q-19 1 -32 0l2 483q15 0 30 1q-1 -35 0 -69q30 83 92 83q35 0 50 -27t17 -83l3 -415zM157 -64q0 -54 -66 -103l-15 20q23 18 39 47q-26 5 -26 36q0 16 10.5 27t24.5 11q33 0 33 -38z" />
    <glyph glyph-name="Ncaron" unicode="&#x147;" horiz-adv-x="290" 
d="M38 11q2 264 -3 673q11 1 47 1l145 -644q-3 354 -12 667q12 -1 35 -1q1 -275 5 -720q-21 0 -48 1l-142 635q4 -425 9 -613q-26 1 -36 1zM131 726l-71 116q8 4 26 16q28 -51 60 -97l55 98q13 -9 28 -17q-30 -47 -68 -116q-10 1 -30 0z" />
    <glyph glyph-name="ncaron" unicode="&#x148;" horiz-adv-x="259" 
d="M197 -18q-2 248 -2 406q0 88 -42 88q-35 0 -60 -47t-25 -110l-1 -309q-19 1 -32 0l2 483q15 0 30 1q-1 -35 0 -69q30 83 92 83q35 0 50 -27t17 -83l3 -415zM115 541l-71 116q8 4 26 16q28 -51 60 -97l55 98q13 -9 28 -17q-30 -47 -68 -116q-10 1 -30 0z" />
    <glyph glyph-name="Omacron" unicode="&#x14c;" horiz-adv-x="290" 
d="M144 -8q-66 0 -90 88t-24 293q0 330 116 330q114 0 114 -330q0 -151 -14.5 -237t-38.5 -115t-63 -29zM144 24q43 0 62.5 80.5t19.5 266.5q0 301 -82 301q-39 0 -60 -81t-21 -200q0 -195 18 -281t63 -86zM63 767q1 14 0 33q57 -1 163 1q-1 -4 -1 -33q-59 1 -162 -1z" />
    <glyph glyph-name="omacron" unicode="&#x14d;" 
d="M138 -14q-60 0 -84 67t-24 197q0 262 108 262q112 0 112 -257q0 -134 -25.5 -201.5t-86.5 -67.5zM139 17q78 0 78 239q0 93 -19.5 159.5t-58.5 66.5q-38 0 -57 -67.5t-19 -158.5q0 -118 17 -178.5t59 -60.5zM59 586q1 14 0 33q57 -1 163 1q-1 -4 -1 -33q-59 1 -162 -1z
" />
    <glyph glyph-name="Ohungarumlaut" unicode="&#x150;" horiz-adv-x="290" 
d="M144 -8q-66 0 -90 88t-24 293q0 330 116 330q114 0 114 -330q0 -151 -14.5 -237t-38.5 -115t-63 -29zM144 24q43 0 62.5 80.5t19.5 266.5q0 301 -82 301q-39 0 -60 -81t-21 -200q0 -195 18 -281t63 -86zM166 737l-24 18l75 117l29 -23zM94 740l-24 18l69 117l29 -22z" />
    <glyph glyph-name="ohungarumlaut" unicode="&#x151;" 
d="M138 -14q-60 0 -84 67t-24 197q0 262 108 262q112 0 112 -257q0 -134 -25.5 -201.5t-86.5 -67.5zM139 17q78 0 78 239q0 93 -19.5 159.5t-58.5 66.5q-38 0 -57 -67.5t-19 -158.5q0 -118 17 -178.5t59 -60.5zM160 546l-24 18l75 117l29 -23zM88 549l-24 18l69 117l29 -22z
" />
    <glyph glyph-name="OE" unicode="&#x152;" horiz-adv-x="431" 
d="M398 322q-70 1 -141 1q2 -201 4 -288q48 -3 159 -5q-2 -14 -2 -32q-77 5 -187 9q3 40 3 108q-8 -58 -31.5 -91.5t-58.5 -33.5q-65 0 -89.5 86.5t-24.5 296.5q0 333 115 333q29 0 51.5 -27t31.5 -70l-4 83q66 1 196 6q0 -13 1 -30q-54 0 -166 -3q0 -137 2 -314
q61 -1 141 1q-1 -14 0 -30zM144 22q43 0 62.5 79t19.5 266q0 307 -83 307q-37 0 -58.5 -80.5t-21.5 -212.5q0 -193 18.5 -276t62.5 -83z" />
    <glyph glyph-name="oe" unicode="&#x153;" horiz-adv-x="449" 
d="M326 -22q-37 0 -61.5 31t-34.5 85q-22 -108 -88 -108q-112 0 -112 266q0 260 106 260q79 0 98 -132q20 122 88 122q53 0 76.5 -63.5t18.5 -203.5q-60 -2 -167 -10q3 -216 76 -216q65 0 66 169q9 -1 32 -2q-3 -198 -98 -198zM144 16q33 0 53 58.5t20 182.5q0 93 -21 159.5
t-56 66.5q-37 0 -57.5 -63t-20.5 -167q0 -129 21 -183t61 -54zM321 472q-29 0 -49.5 -57t-21.5 -157q49 0 136 7q3 207 -65 207z" />
    <glyph glyph-name="Racute" unicode="&#x154;" horiz-adv-x="262" 
d="M231 -13l-101 323q-25 -10 -60 -16q0 -84 4 -281q-16 0 -33 -1q1 251 -6 672q32 7 62 7q147 0 147 -187q0 -132 -86 -181l104 -327q-17 -4 -31 -9zM70 327q143 12 143 175q0 76 -28.5 118.5t-86.5 42.5q-14 0 -31 -3zM112 734l-24 18l71 120l33 -26z" />
    <glyph glyph-name="racute" unicode="&#x155;" horiz-adv-x="190" 
d="M37 2q0 258 -2 481q18 0 29 1q-2 -35 -2 -99q11 52 43.5 83.5t73.5 38.5q1 -13 1 -34q-107 -24 -111 -190q-1 -65 -0.5 -127t1.5 -108l2 -45q-15 -1 -35 -1zM92 541l-24 18l71 120l33 -26z" />
    <glyph glyph-name="Rcommaaccent" unicode="&#x156;" horiz-adv-x="262" 
d="M231 -13l-101 323q-25 -10 -60 -16q0 -84 4 -281q-16 0 -33 -1q1 251 -6 672q32 7 62 7q147 0 147 -187q0 -132 -86 -181l104 -327q-17 -4 -31 -9zM70 327q143 12 143 175q0 76 -28.5 118.5t-86.5 42.5q-14 0 -31 -3zM174 -58q0 -54 -66 -103l-15 20q23 18 39 47
q-26 5 -26 36q0 16 10.5 27t24.5 11q33 0 33 -38z" />
    <glyph glyph-name="rcommaaccent" unicode="&#x157;" horiz-adv-x="190" 
d="M37 2q0 258 -2 481q18 0 29 1q-2 -35 -2 -99q11 52 43.5 83.5t73.5 38.5q1 -13 1 -34q-107 -24 -111 -190q-1 -65 -0.5 -127t1.5 -108l2 -45q-15 -1 -35 -1zM92 -66q0 -54 -66 -103l-15 20q23 18 39 47q-26 5 -26 36q0 16 10.5 27t24.5 11q33 0 33 -38z" />
    <glyph glyph-name="Rcaron" unicode="&#x158;" horiz-adv-x="262" 
d="M231 -13l-101 323q-25 -10 -60 -16q0 -84 4 -281q-16 0 -33 -1q1 251 -6 672q32 7 62 7q147 0 147 -187q0 -132 -86 -181l104 -327q-17 -4 -31 -9zM70 327q143 12 143 175q0 76 -28.5 118.5t-86.5 42.5q-14 0 -31 -3zM107 733l-71 116q8 4 26 16q28 -51 60 -97l55 98
q13 -9 28 -17q-30 -47 -68 -116q-10 1 -30 0z" />
    <glyph glyph-name="rcaron" unicode="&#x159;" horiz-adv-x="190" 
d="M37 2q0 258 -2 481q18 0 29 1q-2 -35 -2 -99q11 52 43.5 83.5t73.5 38.5q1 -13 1 -34q-107 -24 -111 -190q-1 -65 -0.5 -127t1.5 -108l2 -45q-15 -1 -35 -1zM87 536l-71 116q8 4 26 16q28 -51 60 -97l55 98q13 -9 28 -17q-30 -47 -68 -116q-10 1 -30 0z" />
    <glyph glyph-name="Sacute" unicode="&#x15a;" horiz-adv-x="252" 
d="M129 -21q-118 0 -98 268q11 -1 32 -2q-7 -124 10.5 -179t59.5 -55q65 0 65 125q0 56 -19 103t-66 101q-51 60 -72 104.5t-21 104.5q0 158 104 158q115 0 100 -243q-10 1 -31 2q12 209 -71 209q-68 -1 -68 -131q0 -47 18.5 -87.5t61.5 -89.5q58 -65 78 -115.5t20 -110.5
q0 -162 -103 -162zM118 751l-24 18l71 120l33 -26z" />
    <glyph glyph-name="sacute" unicode="&#x15b;" horiz-adv-x="230" 
d="M120 -8q-55 0 -79 44.5t-16 129.5q12 -2 31 -4q-10 -139 66 -139q60 0 60 81q0 38 -17 68.5t-61 63.5q-50 37 -69.5 74t-19.5 87q0 47 24 81t70 34q58 0 77.5 -48t12.5 -141q-12 0 -30 2q5 79 -7 118t-50 39q-30 0 -47 -23.5t-17 -59.5q0 -44 18 -76t63 -66
q51 -38 68.5 -72t17.5 -79q0 -59 -26.5 -86.5t-68.5 -27.5zM108 551l-24 18l71 120l33 -26z" />
    <glyph glyph-name="Scircumflex" unicode="&#x15c;" horiz-adv-x="252" 
d="M129 -21q-118 0 -98 268q11 -1 32 -2q-7 -124 10.5 -179t59.5 -55q65 0 65 125q0 56 -19 103t-66 101q-51 60 -72 104.5t-21 104.5q0 158 104 158q115 0 100 -243q-10 1 -31 2q12 209 -71 209q-68 -1 -68 -131q0 -47 18.5 -87.5t61.5 -89.5q58 -65 78 -115.5t20 -110.5
q0 -162 -103 -162zM70 739q-13 9 -28 17l68 116q10 -1 30 0l71 -116q-8 -4 -26 -16q-27 50 -59 96q-23 -36 -56 -97z" />
    <glyph glyph-name="scircumflex" unicode="&#x15d;" horiz-adv-x="230" 
d="M120 -8q-55 0 -79 44.5t-16 129.5q12 -2 31 -4q-10 -139 66 -139q60 0 60 81q0 38 -17 68.5t-61 63.5q-50 37 -69.5 74t-19.5 87q0 47 24 81t70 34q58 0 77.5 -48t12.5 -141q-12 0 -30 2q5 79 -7 118t-50 39q-30 0 -47 -23.5t-17 -59.5q0 -44 18 -76t63 -66
q51 -38 68.5 -72t17.5 -79q0 -59 -26.5 -86.5t-68.5 -27.5zM59 541q-13 9 -28 17l68 116q10 -1 30 0l71 -116q-8 -4 -26 -16q-27 50 -59 96q-23 -36 -56 -97z" />
    <glyph glyph-name="Scedilla" unicode="&#x15e;" horiz-adv-x="252" 
d="M198 136q0 56 -19 103t-66 101q-51 59 -72 104t-21 105q0 158 104 158q115 0 100 -243q-10 1 -31 2q12 209 -71 209q-68 -1 -68 -131q0 -47 18.5 -87.5t61.5 -89.5q58 -65 78 -115.5t20 -110.5q0 -148 -85 -161q-4 -30 -4 -34q39 1 59.5 -14t20.5 -38q0 -29 -26 -45.5
t-62 -16.5q-43 0 -78 24q6 9 12 25q34 -22 67 -22q23 0 39 8t16 24q0 40 -83 28q5 19 12 61q-109 8 -89 267q11 -1 32 -2q-7 -124 10.5 -179t59.5 -55q65 0 65 125z" />
    <glyph glyph-name="scedilla" unicode="&#x15f;" horiz-adv-x="230" 
d="M182 104q0 38 -17 68.5t-61 63.5q-50 37 -69.5 74t-19.5 87q0 47 24 81t70 34q58 0 77.5 -48t12.5 -141q-12 0 -30 2q5 79 -7 118t-50 39q-30 0 -47 -23.5t-17 -59.5q0 -44 18 -76t63 -66q51 -38 68.5 -72t17.5 -79q0 -102 -80 -113l-5 -41q39 1 59.5 -14t20.5 -38
q0 -29 -26 -45.5t-62 -16.5q-43 0 -78 24q6 9 12 25q34 -22 67 -22q23 0 39 8t16 24q0 40 -83 28q5 20 13 68q-100 9 -83 173q12 -2 31 -4q-10 -139 66 -139q60 0 60 81z" />
    <glyph glyph-name="Scaron" unicode="&#x160;" horiz-adv-x="252" 
d="M129 -21q-118 0 -98 268q11 -1 32 -2q-7 -124 10.5 -179t59.5 -55q65 0 65 125q0 56 -19 103t-66 101q-51 60 -72 104.5t-21 104.5q0 158 104 158q115 0 100 -243q-10 1 -31 2q12 209 -71 209q-68 -1 -68 -131q0 -47 18.5 -87.5t61.5 -89.5q58 -65 78 -115.5t20 -110.5
q0 -162 -103 -162zM113 746l-71 116q8 4 26 16q28 -51 60 -97l55 98q13 -9 28 -17q-30 -47 -68 -116q-10 1 -30 0z" />
    <glyph glyph-name="scaron" unicode="&#x161;" horiz-adv-x="230" 
d="M120 -8q-55 0 -79 44.5t-16 129.5q12 -2 31 -4q-10 -139 66 -139q60 0 60 81q0 38 -17 68.5t-61 63.5q-50 37 -69.5 74t-19.5 87q0 47 24 81t70 34q58 0 77.5 -48t12.5 -141q-12 0 -30 2q5 79 -7 118t-50 39q-30 0 -47 -23.5t-17 -59.5q0 -44 18 -76t63 -66
q51 -38 68.5 -72t17.5 -79q0 -59 -26.5 -86.5t-68.5 -27.5zM102 546l-71 116q8 4 26 16q28 -51 60 -97l55 98q13 -9 28 -17q-30 -47 -68 -116q-10 1 -30 0z" />
    <glyph glyph-name="Tcommaaccent" unicode="&#x162;" horiz-adv-x="232" 
d="M6 667q0 19 -1 29q36 0 221 3q0 -13 1 -30q-38 0 -94 -1q0 -345 4 -671q-15 0 -34 -1q0 272 -3 672zM148 -66q0 -54 -66 -103l-15 20q23 18 39 47q-26 5 -26 36q0 16 10.5 27t24.5 11q33 0 33 -38z" />
    <glyph glyph-name="tcommaaccent" unicode="&#x163;" horiz-adv-x="198" 
d="M188 8q-27 -10 -53 -10q-76 0 -79 105q-4 192 -2 365l-49 1l1 30q18 -1 49 -1l2 112l31 -1q-1 -42 -2 -112l92 -1l-1 -30l-92 2q-2 -142 3 -365q1 -74 52 -74q20 0 41 8zM148 -66q0 -54 -66 -103l-15 20q23 18 39 47q-26 5 -26 36q0 16 10.5 27t24.5 11q33 0 33 -38z" />
    <glyph glyph-name="Tcaron" unicode="&#x164;" horiz-adv-x="232" 
d="M6 667q0 19 -1 29q36 0 221 3q0 -13 1 -30q-38 0 -94 -1q0 -345 4 -671q-15 0 -34 -1q0 272 -3 672zM103 736l-71 116q8 4 26 16q28 -51 60 -97l55 98q13 -9 28 -17q-30 -47 -68 -116q-10 1 -30 0z" />
    <glyph glyph-name="tcaron" unicode="&#x165;" horiz-adv-x="198" 
d="M188 8q-27 -10 -53 -10q-76 0 -79 105q-4 192 -2 365l-49 1l1 30q18 -1 49 -1l2 112l31 -1q-1 -42 -2 -112l92 -1l-1 -30l-92 2q-2 -142 3 -365q1 -74 52 -74q20 0 41 8zM206 631q0 -54 -66 -103l-15 20q23 18 39 47q-26 5 -26 36q0 16 10.5 27t24.5 11q33 0 33 -38z" />
    <glyph glyph-name="Umacron" unicode="&#x16a;" horiz-adv-x="255" 
d="M128 -13q-57 0 -82.5 80.5t-25.5 278.5q0 164 21 335q10 -2 33 -4q-21 -187 -21 -321q0 -131 9 -207t25.5 -104t42.5 -28q13 0 22.5 5.5t19.5 24t16 52t9.5 91.5t3.5 139q-2 188 -30 376q13 1 34 4q30 -213 30 -369q0 -142 -12 -220t-34 -105.5t-61 -27.5zM46 776
q1 14 0 33q57 -1 163 1q-1 -4 -1 -33q-59 1 -162 -1z" />
    <glyph glyph-name="umacron" unicode="&#x16b;" horiz-adv-x="268" 
d="M120 -3q-42 0 -63.5 52t-21.5 188q0 127 14 250q15 -1 31 -1q-13 -120 -13 -247q0 -122 14 -166.5t45 -44.5q28 0 49 50t21 118l-4 319q17 1 34 0q0 -282 2 -523q-13 0 -33 1l2 86q-12 -36 -32.5 -59t-44.5 -23zM50 583q1 14 0 33q57 -1 163 1q-1 -4 -1 -33
q-59 1 -162 -1z" />
    <glyph glyph-name="Ubreve" unicode="&#x16c;" horiz-adv-x="255" 
d="M128 -13q-57 0 -82.5 80.5t-25.5 278.5q0 164 21 335q10 -2 33 -4q-21 -187 -21 -321q0 -131 9 -207t25.5 -104t42.5 -28q13 0 22.5 5.5t19.5 24t16 52t9.5 91.5t3.5 139q-2 188 -30 376q13 1 34 4q30 -213 30 -369q0 -142 -12 -220t-34 -105.5t-61 -27.5zM126 741
q-40 0 -61.5 25.5t-19.5 65.5q16 -1 33 0q-2 -29 10.5 -46t38.5 -17q57 0 53 72q10 -1 30 -1q4 -48 -20 -73.5t-64 -25.5z" />
    <glyph glyph-name="ubreve" unicode="&#x16d;" horiz-adv-x="268" 
d="M120 -3q-42 0 -63.5 52t-21.5 188q0 127 14 250q15 -1 31 -1q-13 -120 -13 -247q0 -122 14 -166.5t45 -44.5q28 0 49 50t21 118l-4 319q17 1 34 0q0 -282 2 -523q-13 0 -33 1l2 86q-12 -36 -32.5 -59t-44.5 -23zM130 550q-40 0 -61.5 25.5t-19.5 65.5q16 -1 33 0
q-2 -29 10.5 -46t38.5 -17q57 0 53 72q10 -1 30 -1q4 -48 -20 -73.5t-64 -25.5z" />
    <glyph glyph-name="Uring" unicode="&#x16e;" horiz-adv-x="255" 
d="M128 -13q-57 0 -82.5 80.5t-25.5 278.5q0 164 21 335q10 -2 33 -4q-21 -187 -21 -321q0 -131 9 -207t25.5 -104t42.5 -28q13 0 22.5 5.5t19.5 24t16 52t9.5 91.5t3.5 139q-2 188 -30 376q13 1 34 4q30 -213 30 -369q0 -142 -12 -220t-34 -105.5t-61 -27.5zM128 742
q-32 0 -49 23t-17 58t18.5 56t47.5 21q32 0 49.5 -22t17.5 -55q0 -42 -19 -61.5t-48 -19.5zM129 771q36 0 36 52q0 21 -9 36t-27 15q-36 0 -36 -51q0 -52 36 -52z" />
    <glyph glyph-name="uring" unicode="&#x16f;" horiz-adv-x="268" 
d="M120 -3q-42 0 -63.5 52t-21.5 188q0 127 14 250q15 -1 31 -1q-13 -120 -13 -247q0 -122 14 -166.5t45 -44.5q28 0 49 50t21 118l-4 319q17 1 34 0q0 -282 2 -523q-13 0 -33 1l2 86q-12 -36 -32.5 -59t-44.5 -23zM132 546q-32 0 -49 23t-17 58t18.5 56t47.5 21
q32 0 49.5 -22t17.5 -55q0 -42 -19 -61.5t-48 -19.5zM133 575q36 0 36 52q0 21 -9 36t-27 15q-36 0 -36 -51q0 -52 36 -52z" />
    <glyph glyph-name="Uhungarumlaut" unicode="&#x170;" horiz-adv-x="255" 
d="M128 -13q-57 0 -82.5 80.5t-25.5 278.5q0 164 21 335q10 -2 33 -4q-21 -187 -21 -321q0 -131 9 -207t25.5 -104t42.5 -28q13 0 22.5 5.5t19.5 24t16 52t9.5 91.5t3.5 139q-2 188 -30 376q13 1 34 4q30 -213 30 -369q0 -142 -12 -220t-34 -105.5t-61 -27.5zM148 738
l-24 18l75 117l29 -23zM76 741l-24 18l69 117l29 -22z" />
    <glyph glyph-name="uhungarumlaut" unicode="&#x171;" horiz-adv-x="268" 
d="M120 -3q-42 0 -63.5 52t-21.5 188q0 127 14 250q15 -1 31 -1q-13 -120 -13 -247q0 -122 14 -166.5t45 -44.5q28 0 49 50t21 118l-4 319q17 1 34 0q0 -282 2 -523q-13 0 -33 1l2 86q-12 -36 -32.5 -59t-44.5 -23zM152 546l-24 18l75 117l29 -23zM80 549l-24 18l69 117
l29 -22z" />
    <glyph glyph-name="Uogonek" unicode="&#x172;" horiz-adv-x="255" 
d="M175 -148q-42 -2 -68 17.5t-26 52.5q0 37 32 67q-48 8 -70.5 89.5t-22.5 267.5q0 164 21 335q10 -2 33 -4q-21 -187 -21 -321q0 -131 9 -207t25.5 -104t42.5 -28q13 0 22.5 5.5t19.5 24t16 52t9.5 91.5t3.5 139q-2 188 -30 376q13 1 34 4q30 -213 30 -369
q0 -189 -20.5 -265.5t-67.5 -85.5q-32 -29 -32 -59q0 -48 61 -47q0 -8 -1 -31z" />
    <glyph glyph-name="uogonek" unicode="&#x173;" horiz-adv-x="268" 
d="M120 -3q-42 0 -63.5 52t-21.5 188q0 127 14 250q15 -1 31 -1q-13 -120 -13 -247q0 -122 14 -166.5t45 -44.5q28 0 49 50t21 118l-4 319q17 1 34 0q0 -282 2 -523q-50 -35 -50 -73q0 -48 61 -47q0 -8 -1 -31q-42 -2 -68 17.5t-26 52.5q0 48 51 84l2 84q-12 -36 -32.5 -59
t-44.5 -23z" />
    <glyph glyph-name="Ydieresis" unicode="&#x178;" horiz-adv-x="238" 
d="M98 -8q2 64 0 181l-93 506q12 0 31 2q44 -264 78 -441q32 153 88 461q13 0 31 -2l-105 -529q-1 -40 3 -176q-11 -2 -33 -2zM77 751q-27 0 -27 32q0 14 8 23t19 9q28 0 28 -32t-28 -32zM162 753q-28 0 -28 32q0 30 28 30q26 0 26 -32q0 -30 -26 -30z" />
    <glyph glyph-name="Zacute" unicode="&#x179;" horiz-adv-x="228" 
d="M211 -1l-196 4l1 22l159 645l-156 -3l-1 29l191 3l1 -17l-161 -650l164 -2zM107 741l-24 18l71 120l33 -26z" />
    <glyph glyph-name="zacute" unicode="&#x17a;" horiz-adv-x="210" 
d="M188 -3l-168 8l1 33l131 429l-124 -3l-1 33l157 4l1 -29l-131 -436l136 -6zM98 541l-24 18l71 120l33 -26z" />
    <glyph glyph-name="Zdotaccent" unicode="&#x17b;" horiz-adv-x="228" 
d="M211 -1l-196 4l1 22l159 645l-156 -3l-1 29l191 3l1 -17l-161 -650l164 -2zM116 761q-19 0 -29.5 13t-10.5 34q0 20 10.5 32t29.5 12q18 0 28 -12.5t10 -31.5q0 -47 -38 -47z" />
    <glyph glyph-name="zdotaccent" unicode="&#x17c;" horiz-adv-x="210" 
d="M188 -3l-168 8l1 33l131 429l-124 -3l-1 33l157 4l1 -29l-131 -436l136 -6zM106 561q-19 0 -29.5 13t-10.5 34q0 20 10.5 32t29.5 12q18 0 28 -12.5t10 -31.5q0 -47 -38 -47z" />
    <glyph glyph-name="Zcaron" unicode="&#x17d;" horiz-adv-x="228" 
d="M211 -1l-196 4l1 22l159 645l-156 -3l-1 29l191 3l1 -17l-161 -650l164 -2zM101 736l-71 116q8 4 26 16q28 -51 60 -97l55 98q13 -9 28 -17q-30 -47 -68 -116q-10 1 -30 0z" />
    <glyph glyph-name="zcaron" unicode="&#x17e;" horiz-adv-x="210" 
d="M188 -3l-168 8l1 33l131 429l-124 -3l-1 33l157 4l1 -29l-131 -436l136 -6zM92 536l-71 116q8 4 26 16q28 -51 60 -97l55 98q13 -9 28 -17q-30 -47 -68 -116q-10 1 -30 0z" />
    <glyph glyph-name="florin" unicode="&#x192;" horiz-adv-x="318" 
d="M256 395l-88 1q-3 -35 -9.5 -124.5t-12.5 -151t-14 -104.5q-17 -90 -45.5 -120.5t-86.5 -28.5q0 13 1 32q45 -2 65 21.5t33 96.5q7 37 13 89.5t9 90.5l8 105.5l7 93.5h-60v29l62 -2q7 74 14 109q15 86 45 122.5t85 36.5q16 0 36 -3l-5 -30q-16 3 -31 3q-43 0 -64 -30
t-35 -108q-6 -34 -13 -100l87 1z" />
    <glyph glyph-name="Scommaaccent" unicode="&#x218;" horiz-adv-x="252" 
d="M129 -21q-118 0 -98 268q11 -1 32 -2q-7 -124 10.5 -179t59.5 -55q65 0 65 125q0 56 -19 103t-66 101q-51 60 -72 104.5t-21 104.5q0 158 104 158q115 0 100 -243q-10 1 -31 2q12 209 -71 209q-68 -1 -68 -131q0 -47 18.5 -87.5t61.5 -89.5q58 -65 78 -115.5t20 -110.5
q0 -162 -103 -162zM166 -79q0 -54 -66 -103l-15 20q23 18 39 47q-26 5 -26 36q0 16 10.5 27t24.5 11q33 0 33 -38z" />
    <glyph glyph-name="scommaaccent" unicode="&#x219;" horiz-adv-x="230" 
d="M120 -8q-55 0 -79 44.5t-16 129.5q12 -2 31 -4q-10 -139 66 -139q60 0 60 81q0 38 -17 68.5t-61 63.5q-50 37 -69.5 74t-19.5 87q0 47 24 81t70 34q58 0 77.5 -48t12.5 -141q-12 0 -30 2q5 79 -7 118t-50 39q-30 0 -47 -23.5t-17 -59.5q0 -44 18 -76t63 -66
q51 -38 68.5 -72t17.5 -79q0 -59 -26.5 -86.5t-68.5 -27.5zM147 -66q0 -54 -66 -103l-15 20q23 18 39 47q-26 5 -26 36q0 16 10.5 27t24.5 11q33 0 33 -38z" />
    <glyph glyph-name="uni0237" unicode="&#x237;" horiz-adv-x="114" 
d="M-45 -195q2 14 4 34q17 -3 30 -3q29 0 41.5 16.5t13.5 55.5l-1 594l29 1q1 -35 2 -91.5t2.5 -226t-0.5 -287.5q-1 -48 -24 -72.5t-61 -24.5q-19 0 -36 4z" />
    <glyph glyph-name="circumflex" unicode="&#x2c6;" 
d="M84 536q-13 9 -28 17l68 116q10 -1 30 0l71 -116q-8 -4 -26 -16q-27 50 -59 96q-23 -36 -56 -97z" />
    <glyph glyph-name="caron" unicode="&#x2c7;" 
d="M127 536l-71 116q8 4 26 16q28 -51 60 -97l55 98q13 -9 28 -17q-30 -47 -68 -116q-10 1 -30 0z" />
    <glyph glyph-name="breve" unicode="&#x2d8;" 
d="M138 549q-40 0 -61.5 25.5t-19.5 65.5q16 -1 33 0q-2 -29 10.5 -46t38.5 -17q57 0 53 72q10 -1 30 -1q4 -48 -20 -73.5t-64 -25.5z" />
    <glyph glyph-name="dotaccent" unicode="&#x2d9;" 
d="M141 561q-19 0 -29.5 13t-10.5 34q0 20 10.5 32t29.5 12q18 0 28 -12.5t10 -31.5q0 -47 -38 -47z" />
    <glyph glyph-name="ring" unicode="&#x2da;" 
d="M140 546q-32 0 -49 23t-17 58t18.5 56t47.5 21q32 0 49.5 -22t17.5 -55q0 -42 -19 -61.5t-48 -19.5zM141 575q36 0 36 52q0 21 -9 36t-27 15q-36 0 -36 -51q0 -52 36 -52z" />
    <glyph glyph-name="ogonek" unicode="&#x2db;" 
d="M177 -148q-42 -2 -68 17.5t-26 52.5q0 49 54 83l29 -2q-49 -41 -49 -73q0 -48 61 -47q0 -8 -1 -31z" />
    <glyph glyph-name="tilde" unicode="&#x2dc;" 
d="M81 556q-17 1 -30 -1q-4 43 11.5 68t40.5 25q23 0 47.5 -30.5t34.5 -30.5q25 0 16 58q2 -1 28 2q10 -92 -46 -92q-18 0 -32.5 15.5t-26 30.5t-20.5 15q-16 0 -20.5 -14t-2.5 -46z" />
    <glyph glyph-name="hungarumlaut" unicode="&#x2dd;" 
d="M148 541l-24 18l75 117l29 -23zM76 544l-24 18l69 117l29 -22z" />
    <glyph glyph-name="endash" unicode="&#x2013;" horiz-adv-x="220" 
d="M210 318l-200 1l1 33h198z" />
    <glyph glyph-name="emdash" unicode="&#x2014;" horiz-adv-x="260" 
d="M11 318q1 5 -1 33q140 -1 240 1q-1 -5 -1 -34q-144 1 -238 0z" />
    <glyph glyph-name="quoteleft" unicode="&#x2018;" horiz-adv-x="115" 
d="M55 539q-35 0 -35 49q0 66 64 117l16 -19q-26 -23 -39 -59q28 -10 28 -45q0 -43 -34 -43z" />
    <glyph glyph-name="quoteright" unicode="&#x2019;" horiz-adv-x="116" 
d="M32 538l-17 18q21 19 41 54q-27 8 -27 42q0 19 8.5 32t23.5 13t25 -12.5t10 -35.5q0 -65 -64 -111z" />
    <glyph glyph-name="quotesinglbase" unicode="&#x201a;" horiz-adv-x="109" 
d="M34 -71l-19 17q26 25 35 52q-27 6 -27 40q0 46 33 46t33 -46q0 -35 -12 -58t-43 -51z" />
    <glyph glyph-name="quotedblleft" unicode="&#x201c;" horiz-adv-x="197" 
d="M54 542q-34 0 -34 54q0 58 65 105l15 -18q-26 -19 -38 -50q27 -10 27 -42q0 -49 -35 -49zM140 527q-15 0 -24.5 13t-9.5 36q0 59 60 112l16 -17q-22 -22 -38 -57q29 -4 29 -40q0 -47 -33 -47z" />
    <glyph glyph-name="quotedblright" unicode="&#x201d;" horiz-adv-x="203" 
d="M121 528l-15 17q28 26 38 63q-30 9 -30 44q0 20 9 33.5t26 13.5q15 0 24.5 -13.5t9.5 -37.5q0 -67 -62 -120zM31 530l-16 18q22 21 37 51q-24 10 -24 44q0 19 10.5 31.5t24.5 12.5q32 0 32 -46q0 -57 -64 -111z" />
    <glyph glyph-name="quotedblbase" unicode="&#x201e;" horiz-adv-x="203" 
d="M123 -74l-17 18q24 23 37 56q-28 6 -28 46q0 47 36 47q32 0 32 -48q0 -69 -60 -119zM33 -81l-18 18q26 30 36 57q-25 8 -25 40q0 44 35 44q31 0 31 -45q0 -34 -14 -59.5t-45 -54.5z" />
    <glyph glyph-name="dagger" unicode="&#x2020;" horiz-adv-x="182" 
d="M10 560q1 8 1 30q27 -2 64 -3q0 70 -1 112q11 0 31 1q-1 -43 -1 -113h67q0 -10 1 -30q-14 1 -68 2q0 -103 3 -268q-12 1 -32 0q1 97 0 268q-38 1 -65 1z" />
    <glyph glyph-name="daggerdbl" unicode="&#x2021;" horiz-adv-x="182" 
d="M75 291v101h-64q0 10 -1 30q13 -1 65 -2v165l-64 -2l-1 30h65l-1 86q11 0 31 1q-1 -31 -1 -86l68 2l-1 -30h-67q0 -99 1 -167h67q-1 -8 -1 -30q-18 1 -66 2q0 -30 2 -100q-12 1 -32 0z" />
    <glyph glyph-name="bullet" unicode="&#x2022;" horiz-adv-x="109" 
d="M56 274q-41 0 -41 61q0 58 40 58q39 0 39 -57q0 -62 -38 -62z" />
    <glyph glyph-name="ellipsis" unicode="&#x2026;" horiz-adv-x="287" 
d="M46 -2q-31 0 -31 47q0 17 9 29t25 12q32 0 32 -43q0 -21 -9.5 -33t-25.5 -12zM144 -10q-31 0 -31 41q0 17 8.5 28.5t24.5 11.5q33 0 33 -38q0 -43 -35 -43zM241 -1q-33 0 -33 47q0 16 8 27.5t24 11.5q32 0 32 -44q0 -42 -31 -42z" />
    <glyph glyph-name="perthousand" unicode="&#x2030;" horiz-adv-x="500" 
d="M80 389q24 0 34 32.5t10 118.5q0 147 -42 147q-46 0 -46 -144q0 -154 44 -154zM80 361q-38 0 -56.5 43t-18.5 146q0 165 76 165q40 0 57 -43t17 -137q0 -99 -19 -136.5t-56 -37.5zM82 -14l-32 9l184 702l29 -6zM242 13q25 0 35.5 33t10.5 110q0 154 -46 154
q-44 0 -44 -146q0 -80 10 -115.5t34 -35.5zM242 -16q-42 0 -58.5 42.5t-16.5 142.5q0 169 76 169t76 -177q0 -98 -19.5 -137.5t-57.5 -39.5zM420 23q44 0 44 154q0 144 -43 144q-45 0 -45 -147q0 -86 10 -118.5t34 -32.5zM420 -5q-37 0 -56 37.5t-19 136.5q0 180 77 180
q73 0 73 -165q0 -103 -18.5 -146t-56.5 -43z" />
    <glyph glyph-name="guilsinglleft" unicode="&#x2039;" horiz-adv-x="137" 
d="M79 136l-69 198l80 184q5 -2 32 -2l-80 -183l67 -188z" />
    <glyph glyph-name="guilsinglright" unicode="&#x203a;" horiz-adv-x="129" 
d="M48 144q-12 2 -33 3l72 176l-66 183q7 1 30 6l68 -194q-27 -60 -71 -174z" />
    <glyph glyph-name="fraction" unicode="&#x2044;" horiz-adv-x="173" 
d="M12 -14l-32 9l184 702l29 -6z" />
    <glyph glyph-name="Euro" unicode="&#x20ac;" horiz-adv-x="285" 
d="M2 383q0 14 -1 30h47q4 153 29.5 224.5t82.5 71.5q49 0 71.5 -59.5t22.5 -194.5l-32 2q1 219 -63 219q-73 0 -80 -262q20 0 126 4q-1 -15 -1 -31q-21 0 -125 -2q-1 -36 0 -70q11 0 52 1t75 2q-1 -11 0 -31q-20 0 -127 -2q3 -141 22.5 -206.5t59.5 -65.5q24 0 38.5 16.5
t24 70t9.5 148.5l32 -1q-2 -144 -24.5 -203.5t-80.5 -58.5q-57 0 -83 69.5t-30 229.5q-29 -1 -47 -1q1 11 1 32q17 -1 46 0q-1 30 0 69z" />
    <glyph glyph-name="servicemark" unicode="&#x2120;" horiz-adv-x="331" 
d="M151 407q4 105 8 270q12 0 42 2q10 -70 30 -171q8 42 29 189q12 -2 41 -3q4 -116 15 -305q-9 -2 -28 -2q-4 109 -11 263q-15 -93 -27 -176q-12 0 -34 1q-8 53 -35 170q0 -11 -0.5 -56.5t-0.5 -85v-98.5q-7 0 -29 2zM72 388q-68 0 -56 116q15 -2 26 -3q-7 -87 31 -87
q31 0 31 42q0 44 -42 83q-51 45 -51 93q0 31 16 49t41 18q32 0 47 -27t8 -77q-13 2 -27 3q10 76 -29 76q-29 0 -29 -42q0 -32 44 -76q48 -48 48 -97q0 -71 -58 -71z" />
    <glyph glyph-name="trademark" unicode="&#x2122;" horiz-adv-x="301" 
d="M121 407q4 99 8 264q12 0 42 2q9 -61 30 -160q9 42 29 181q12 -2 41 -3q4 -116 15 -305q-9 -2 -28 -2q-4 109 -11 264q-13 -75 -27 -169q-12 0 -34 1q-7 40 -35 159q0 -10 -0.5 -54t-0.5 -83v-97q-7 0 -29 2zM5 663q1 10 1 29q43 -1 112 1q-1 -11 -1 -30q-18 1 -43 1
q0 -116 2 -277q-8 1 -29 0q1 110 0 277z" />
    <glyph glyph-name="minus" unicode="&#x2212;" horiz-adv-x="230" 
d="M219 346l1 -31l-210 1l1 30h208z" />
    <glyph glyph-name="Pcircle" unicode="&#x24c5;" horiz-adv-x="368" 
d="M184 711q82 0 118 -80.5t36 -286.5q0 -181 -33.5 -271.5t-119.5 -90.5q-83 0 -119 89t-36 273q0 145 18.5 227t50.5 111t85 29zM182 683q-63 0 -93 -73.5t-30 -263.5q0 -337 127 -337q65 0 94 83.5t29 254.5q0 177 -28.5 256.5t-98.5 79.5zM129 80q1 199 -4 519
q74 4 107.5 -44t33.5 -139q0 -153 -108 -177q0 -44 3 -158q-13 0 -32 -1zM156 567q0 -259 1 -297q40 10 59.5 43.5t19.5 104.5q0 145 -80 149z" />
    <glyph glyph-name="Pcircle" unicode="&#x24df;" horiz-adv-x="368" 
d="M184 711q82 0 118 -80.5t36 -286.5q0 -181 -33.5 -271.5t-119.5 -90.5q-83 0 -119 89t-36 273q0 145 18.5 227t50.5 111t85 29zM182 683q-63 0 -93 -73.5t-30 -263.5q0 -337 127 -337q65 0 94 83.5t29 254.5q0 177 -28.5 256.5t-98.5 79.5zM129 80q1 199 -4 519
q74 4 107.5 -44t33.5 -139q0 -153 -108 -177q0 -44 3 -158q-13 0 -32 -1zM156 567q0 -259 1 -297q40 10 59.5 43.5t19.5 104.5q0 145 -80 149z" />
    <glyph glyph-name="commaaccent" 
d="M174 -66q0 -54 -66 -103l-15 20q23 18 39 47q-26 5 -26 36q0 16 10.5 27t24.5 11q33 0 33 -38z" />
    <glyph glyph-name="L_A" horiz-adv-x="468" 
d="M216 -14q1 9 3 23l-178 4q-1 259 -6 666q9 -1 35 0q-1 -216 4 -637q79 -3 150 -3l89 650l47 3q52 -388 103 -722q-15 1 -33 -1l-26 196q-55 2 -132 2l-23 -183q-12 2 -33 2zM337 656l-61 -459q63 -1 124 -1z" />
    <glyph glyph-name="L_Aacute" horiz-adv-x="468" 
d="M216 -14q1 9 3 23l-178 4q-1 259 -6 666q9 -1 35 0q-1 -216 4 -637q79 -3 150 -3l89 650l47 3q52 -388 103 -722q-15 1 -33 -1l-26 196q-55 2 -132 2l-23 -183q-12 2 -33 2zM337 656l-61 -459q63 -1 124 -1zM330 736l-24 18l71 120l33 -26z" />
    <glyph glyph-name="L_Abreve" horiz-adv-x="468" 
d="M216 -14q1 9 3 23l-178 4q-1 259 -6 666q9 -1 35 0q-1 -216 4 -637q79 -3 150 -3l89 650l47 3q52 -388 103 -722q-15 1 -33 -1l-26 196q-55 2 -132 2l-23 -183q-12 2 -33 2zM337 656l-61 -459q63 -1 124 -1zM336 738q-40 0 -61.5 25.5t-19.5 65.5q16 -1 33 0
q-2 -29 10.5 -46t38.5 -17q57 0 53 72q10 -1 30 -1q4 -48 -20 -73.5t-64 -25.5z" />
    <glyph glyph-name="L_Acircumflex" horiz-adv-x="468" 
d="M216 -14q1 9 3 23l-178 4q-1 259 -6 666q9 -1 35 0q-1 -216 4 -637q79 -3 150 -3l89 650l47 3q52 -388 103 -722q-15 1 -33 -1l-26 196q-55 2 -132 2l-23 -183q-12 2 -33 2zM337 656l-61 -459q63 -1 124 -1zM281 725q-13 9 -28 17l68 116q10 -1 30 0l71 -116
q-8 -4 -26 -16q-27 50 -59 96q-23 -36 -56 -97z" />
    <glyph glyph-name="L_Adieresis" horiz-adv-x="468" 
d="M216 -14q1 9 3 23l-178 4q-1 259 -6 666q9 -1 35 0q-1 -216 4 -637q79 -3 150 -3l89 650l47 3q52 -388 103 -722q-15 1 -33 -1l-26 196q-55 2 -132 2l-23 -183q-12 2 -33 2zM337 656l-61 -459q63 -1 124 -1zM296 760q-27 0 -27 32q0 14 8 23t19 9q28 0 28 -32t-28 -32z
M381 762q-28 0 -28 32q0 30 28 30q26 0 26 -32q0 -30 -26 -30z" />
    <glyph glyph-name="L_Agrave" horiz-adv-x="468" 
d="M216 -14q1 9 3 23l-178 4q-1 259 -6 666q9 -1 35 0q-1 -216 4 -637q79 -3 150 -3l89 650l47 3q52 -388 103 -722q-15 1 -33 -1l-26 196q-55 2 -132 2l-23 -183q-12 2 -33 2zM337 656l-61 -459q63 -1 124 -1zM352 736l-80 112q9 5 33 26q40 -71 71 -120q-5 -3 -24 -18z
" />
    <glyph glyph-name="L_Amacron" horiz-adv-x="468" 
d="M216 -14q1 9 3 23l-178 4q-1 259 -6 666q9 -1 35 0q-1 -216 4 -637q79 -3 150 -3l89 650l47 3q52 -388 103 -722q-15 1 -33 -1l-26 196q-55 2 -132 2l-23 -183q-12 2 -33 2zM337 656l-61 -459q63 -1 124 -1zM256 772q1 14 0 33q57 -1 163 1q-1 -4 -1 -33q-59 1 -162 -1z
" />
    <glyph glyph-name="L_Aogonek" horiz-adv-x="468" 
d="M462 -22q-52 -36 -52 -74q0 -48 61 -47q0 -8 -1 -31q-42 -2 -68 17.5t-26 52.5q0 50 53 83l-4.5 33l-9 67.5l-11.5 85.5q-55 2 -132 2l-23 -183q-12 2 -33 2q1 9 3 23l-178 4q-1 259 -6 666q9 -1 35 0q-1 -216 4 -637q79 -3 150 -3l89 650l47 3q51 -380 102 -714z
M337 656l-61 -459q63 -1 124 -1z" />
    <glyph glyph-name="L_Aring" horiz-adv-x="468" 
d="M216 -14q1 9 3 23l-178 4q-1 259 -6 666q9 -1 35 0q-1 -216 4 -637q79 -3 150 -3l89 650l47 3q52 -388 103 -722q-15 1 -33 -1l-26 196q-55 2 -132 2l-23 -183q-12 2 -33 2zM337 656l-61 -459q63 -1 124 -1zM338 737q-32 0 -49 23t-17 58t18.5 56t47.5 21q32 0 49.5 -22
t17.5 -55q0 -42 -19 -61.5t-48 -19.5zM339 766q36 0 36 52q0 21 -9 36t-27 15q-36 0 -36 -51q0 -52 36 -52z" />
    <glyph glyph-name="L_Atilde" horiz-adv-x="468" 
d="M216 -14q1 9 3 23l-178 4q-1 259 -6 666q9 -1 35 0q-1 -216 4 -637q79 -3 150 -3l89 650l47 3q52 -388 103 -722q-15 1 -33 -1l-26 196q-55 2 -132 2l-23 -183q-12 2 -33 2zM337 656l-61 -459q63 -1 124 -1zM278 742q-17 1 -30 -1q-4 43 11.5 68t40.5 25q23 0 47.5 -30.5
t34.5 -30.5q25 0 16 58q2 -1 28 2q10 -92 -46 -92q-18 0 -32.5 15.5t-26 30.5t-20.5 15q-16 0 -20.5 -14t-2.5 -46z" />
    <glyph glyph-name="T_h" horiz-adv-x="459" 
d="M265 699q-2 -130 0 -285q12 43 36.5 69t57.5 25q36 0 50.5 -27t16.5 -86q2 -72 2.5 -173.5t-0.5 -166.5l-1 -65q-11 1 -31 1q3 231 -1 394q-2 51 -11 71t-35 20q-32 0 -56.5 -49t-24.5 -122l-1 -298q-16 0 -30 -1q0 297 -4 663h-100q0 -345 4 -672q-15 0 -34 -1
q0 272 -3 672q-51 0 -94 -1q0 19 -1 29q75 0 260 3z" />
    <glyph glyph-name="zero.numerator" horiz-adv-x="213" 
d="M109 258q-44 0 -64 54.5t-20 173.5q0 213 83 213q80 0 80 -204q0 -128 -18.5 -182.5t-60.5 -54.5zM110 288q27 0 37 47t10 156q0 179 -50 179q-24 0 -37.5 -43.5t-13.5 -125.5q0 -112 12.5 -162.5t41.5 -50.5z" />
    <glyph glyph-name="one.numerator" horiz-adv-x="145" 
d="M74 267q1 252 -2 391l-51 -49l-21 21l78 72l23 -3l4 -431z" />
    <glyph glyph-name="two.numerator" horiz-adv-x="177" 
d="M156 268l-133 2l-1 28q34 64 51.5 100t36.5 97t19 112q0 75 -39 75q-50 0 -38 -146q-17 -1 -30 -3q-7 93 9.5 134t57.5 41q67 0 67 -104q0 -122 -103 -305l104 -2z" />
    <glyph glyph-name="three.numerator" horiz-adv-x="193" 
d="M94 257q-42 0 -60 38.5t-14 122.5q16 0 28 -2q-4 -133 47 -133q50 0 50 79q0 71 -28 96q-16 14 -70 12q1 10 1 30q49 -3 70 12q23 17 23 78q0 42 -11.5 67.5t-31.5 25.5q-51 0 -42 -134l-30 -2q-4 84 13 122t61 38q36 0 53 -31t18 -75q0 -99 -57 -116q59 -14 59 -119
q0 -51 -21 -80t-58 -29z" />
    <glyph glyph-name="four.numerator" horiz-adv-x="193" 
d="M120 268q0 37 2 101q-4 0 -116 -2q0 16 -1 33l119 302l26 -1q-1 -144 -1 -305l29 1q-1 -15 -1 -27h-28l1 -101zM126 640l-95 -244h91z" />
    <glyph glyph-name="five.numerator" horiz-adv-x="195" 
d="M96 258q-82 0 -69 165l29 -2q-10 -137 43 -137q23 0 34.5 29.5t11.5 109.5q0 106 -39 106q-35 0 -45 -69q-20 2 -31 2q4 104 5 239q74 0 133 1q-1 -17 -1 -29q-45 1 -102 0q-1 -7 -7 -162q16 48 54 48q62 0 63 -142q0 -87 -20 -123t-59 -36z" />
    <glyph glyph-name="six.numerator" horiz-adv-x="202" 
d="M107 259q-43 0 -62.5 49.5t-19.5 173.5q0 122 18.5 173t61.5 51q37 0 52 -33.5t13 -119.5l-29 2q1 66 -7 93.5t-29 27.5q-51 0 -51 -191v-3q19 42 58 42q32 -1 51 -36t19 -92q0 -137 -75 -137zM106 495q-30 0 -52 -47q2 -88 14.5 -124.5t39.5 -36.5q44 0 44 102
q0 45 -11.5 75.5t-34.5 30.5z" />
    <glyph glyph-name="seven.numerator" horiz-adv-x="161" 
d="M54 263q-16 257 70 409h-118l-1 29l150 1l1 -24q-49 -87 -65 -184.5t-8 -228.5z" />
    <glyph glyph-name="eight.numerator" horiz-adv-x="201" 
d="M100 263q-36 0 -58 30.5t-22 80.5q0 83 55 121q-49 43 -49 109q0 43 18 70.5t56 28.5q37 0 56 -27t19 -69q0 -75 -55 -113q60 -45 61 -124q1 -50 -23.5 -78.5t-57.5 -28.5zM100 289q23 0 36.5 21.5t13.5 57.5q0 71 -52 110q-47 -30 -47 -103q0 -37 12.5 -61.5t36.5 -24.5
zM100 508q45 35 45 94q-1 74 -45 74q-20 0 -32 -19t-12 -55q0 -57 44 -94z" />
    <glyph glyph-name="nine.numerator" horiz-adv-x="200" 
d="M97 263q-78 0 -72 152l30 -2q-2 -66 8.5 -93.5t33.5 -27.5q17 0 26 12.5t15.5 53.5t7.5 118q-17 -37 -56 -37q-32 0 -51 34.5t-19 93.5q0 60 19.5 98t57.5 38q40 0 58.5 -45t19.5 -163q1 -131 -16.5 -181.5t-61.5 -50.5zM98 467q15 0 28.5 13.5t19.5 34.5q-1 160 -49 160
q-46 0 -46 -106q0 -102 47 -102z" />
    <glyph glyph-name="zero.denominator" horiz-adv-x="213" 
d="M109 -8q-44 0 -64 54.5t-20 173.5q0 213 83 213q80 0 80 -204q0 -128 -18.5 -182.5t-60.5 -54.5zM110 22q27 0 37 47t10 156q0 179 -50 179q-24 0 -37.5 -43.5t-13.5 -125.5q0 -112 12.5 -162.5t41.5 -50.5z" />
    <glyph glyph-name="one.denominator" horiz-adv-x="145" 
d="M74 1q1 252 -2 391l-51 -49l-21 21l78 72l23 -3l4 -431z" />
    <glyph glyph-name="two.denominator" horiz-adv-x="177" 
d="M156 2l-133 2l-1 28q34 64 51.5 100t36.5 97t19 112q0 75 -39 75q-50 0 -38 -146q-17 -1 -30 -3q-7 93 9.5 134t57.5 41q67 0 67 -104q0 -122 -103 -305l104 -2z" />
    <glyph glyph-name="three.denominator" horiz-adv-x="193" 
d="M94 -9q-42 0 -60 38.5t-14 122.5q16 0 28 -2q-4 -133 47 -133q50 0 50 79q0 71 -28 96q-16 14 -70 12q1 10 1 30q49 -3 70 12q23 17 23 78q0 42 -11.5 67.5t-31.5 25.5q-51 0 -42 -134l-30 -2q-4 84 13 122t61 38q36 0 53 -31t18 -75q0 -99 -57 -116q59 -14 59 -119
q0 -51 -21 -80t-58 -29z" />
    <glyph glyph-name="four.denominator" horiz-adv-x="193" 
d="M120 2q0 37 2 101q-4 0 -116 -2q0 16 -1 33l119 302l26 -1q-1 -144 -1 -305l29 1q-1 -15 -1 -27h-28l1 -101zM126 374l-95 -244h91z" />
    <glyph glyph-name="five.denominator" horiz-adv-x="195" 
d="M96 -8q-82 0 -69 165l29 -2q-10 -137 43 -137q23 0 34.5 29.5t11.5 109.5q0 106 -39 106q-35 0 -45 -69q-20 2 -31 2q4 104 5 239q74 0 133 1q-1 -17 -1 -29q-45 1 -102 0q-1 -7 -7 -162q16 48 54 48q62 0 63 -142q0 -87 -20 -123t-59 -36z" />
    <glyph glyph-name="six.denominator" horiz-adv-x="202" 
d="M107 -7q-43 0 -62.5 49.5t-19.5 173.5q0 122 18.5 173t61.5 51q37 0 52 -33.5t13 -119.5l-29 2q1 66 -7 93.5t-29 27.5q-51 0 -51 -191v-3q19 42 58 42q32 -1 51 -36t19 -92q0 -137 -75 -137zM106 229q-30 0 -52 -47q2 -88 14.5 -124.5t39.5 -36.5q44 0 44 102
q0 45 -11.5 75.5t-34.5 30.5z" />
    <glyph glyph-name="seven.denominator" horiz-adv-x="161" 
d="M54 -3q-16 257 70 409h-118l-1 29l150 1l1 -24q-49 -87 -65 -184.5t-8 -228.5z" />
    <glyph glyph-name="eight.denominator" horiz-adv-x="201" 
d="M100 -3q-36 0 -58 30.5t-22 80.5q0 83 55 121q-49 43 -49 109q0 43 18 70.5t56 28.5q37 0 56 -27t19 -69q0 -75 -55 -113q60 -45 61 -124q1 -50 -23.5 -78.5t-57.5 -28.5zM100 23q23 0 36.5 21.5t13.5 57.5q0 71 -52 110q-47 -30 -47 -103q0 -37 12.5 -61.5t36.5 -24.5z
M100 242q45 35 45 94q-1 74 -45 74q-20 0 -32 -19t-12 -55q0 -57 44 -94z" />
    <glyph glyph-name="nine.denominator" horiz-adv-x="200" 
d="M97 -3q-78 0 -72 152l30 -2q-2 -66 8.5 -93.5t33.5 -27.5q17 0 26 12.5t15.5 53.5t7.5 118q-17 -37 -56 -37q-32 0 -51 34.5t-19 93.5q0 60 19.5 98t57.5 38q40 0 58.5 -45t19.5 -163q1 -131 -16.5 -181.5t-61.5 -50.5zM98 201q15 0 28.5 13.5t19.5 34.5q-1 160 -49 160
q-46 0 -46 -106q0 -102 47 -102z" />
    <glyph glyph-name="dollar.titling" horiz-adv-x="207" 
d="M121 157l-34 2q3 56 3 79q-82 11 -67 144q18 -2 34 -3q-10 -111 48 -111q53 0 53 59q0 28 -14.5 53t-54.5 56q-39 30 -56.5 59t-17.5 69q0 39 19 64t52 28l-3 80l36 1q-3 -51 -3 -82q78 -17 62 -148q-14 0 -30 2q13 120 -50 120q-23 0 -37 -16t-14 -46q0 -32 16 -57.5
t54 -54.5q43 -34 59 -62t16 -61q0 -41 -20 -65t-53 -29z" />
    <glyph glyph-name="cent.titling" horiz-adv-x="204" 
d="M92 157v38v30v12q-23 4 -38.5 23.5t-24.5 66.5t-9 122q0 193 70 208l-2 80l32 1q-2 -44 -2 -81q69 -14 66 -157l-31 -1q1 132 -49 132q-52 0 -52 -183q0 -71 7.5 -112.5t18 -55t26.5 -13.5q56 0 51 138l32 -1q-1 -152 -65 -166l1 -81h-31z" />
    <glyph glyph-name="Euro.titling" horiz-adv-x="239" 
d="M11 472q0 15 -1 26q14 -1 35 0q8 207 95 207q81 0 78 -177l-30 2q1 144 -49 144q-55 0 -61 -175q34 0 86 3q-1 -13 0 -27q-21 0 -86 -1q-1 -20 0 -44q9 0 87 2l-1 -27q-19 0 -86 -1q7 -175 62 -175q30 0 41 34.5t13 119.5l30 -1q-1 -101 -21.5 -142.5t-62.5 -41.5
q-86 0 -94 205l-36 -1q1 13 0 27h35q-1 16 0 44q-21 -1 -34 -1z" />
    <glyph glyph-name="sterling.titling" horiz-adv-x="214" 
d="M16 418l-1 26l37 -1l-9 43.5t-10 55.5t-3 46q0 51 22.5 81.5t60.5 30.5q49 0 67.5 -48t10.5 -146q-16 2 -29 2q9 161 -48 161q-51 0 -51 -81q0 -21 3 -44t9.5 -55t8.5 -46l66 1l1 -26h-63q3 -22 3 -45q0 -66 -28 -137h30h48.5h49.5q-1 -16 -1 -32q-69 2 -162 2v28
q32 64 32 135q0 19 -4 49h-40z" />
    <glyph glyph-name="yen.titling" horiz-adv-x="242" 
d="M44 342q0 12 -1 27q27 -1 54 -1q-29 120 -82 318q22 0 34 2q29 -129 71 -290l73 304q22 -2 34 -2l-85 -332q13 0 53 2q-1 -12 -1 -26q-19 1 -59 0v-36q34 0 60 1v-25q-28 1 -60 0q0 -5 1 -34.5t2 -48.5h-34q1 33 0 82l-62 -1q1 13 1 26q25 -1 61 0q-1 11 -1 35z" />
    <glyph glyph-name="zero.titling" horiz-adv-x="231" 
d="M119 197q-47 0 -70 62.5t-23 198.5q0 123 21.5 184t69.5 61q88 0 88 -234q0 -144 -19.5 -208t-66.5 -64zM120 227q30 0 42 55.5t12 181.5q0 209 -58 209q-27 0 -42.5 -51t-15.5 -146q0 -130 14.5 -189.5t47.5 -59.5z" />
    <glyph glyph-name="one.titling" horiz-adv-x="158" 
d="M80 207q1 307 -2 453l-56 -54l-22 21l85 79l23 -3l4 -495z" />
    <glyph glyph-name="two.titling" horiz-adv-x="190" 
d="M168 208l-145 3l-1 28q38 71 59.5 117.5t40 113.5t18.5 129q0 87 -44 87q-30 0 -40 -40t-3 -131q-15 0 -30 -2q-8 106 8.5 153t63.5 47q73 0 73 -119q0 -151 -113 -354l115 -2z" />
    <glyph glyph-name="three.titling" horiz-adv-x="208" 
d="M101 196q-90 0 -81 184q16 0 29 -2q-6 -155 53 -155q56 0 56 93q0 85 -32 112q-19 16 -75 14q1 11 1 31q52 -3 74 12q28 21 28 92q0 110 -48 110q-59 0 -48 -156l-31 -3q-5 95 13.5 139.5t67.5 44.5q39 0 57.5 -35t19.5 -87q0 -116 -65 -133q68 -16 68 -136
q0 -59 -22.5 -92t-64.5 -33z" />
    <glyph glyph-name="four.titling" horiz-adv-x="210" 
d="M134 208q0 42 2 116q-2 0 -130 -2q0 14 -1 33l131 351l28 -1q-1 -167 -1 -353l33 1q-1 -14 -1 -28h-32l1 -116zM140 644q-82 -220 -107 -292h103z" />
    <glyph glyph-name="five.titling" horiz-adv-x="210" 
d="M104 197q-90 0 -76 189l30 -2q-6 -87 6 -124t43 -37q26 0 39.5 34.5t13.5 128.5q0 126 -45 126q-37 0 -51 -83q-19 2 -32 2q4 119 6 274q77 0 145 1q-1 -16 -1 -30l-113 1q-3 -41 -8 -191q18 56 60 56q68 0 69 -163q0 -101 -21.5 -141.5t-64.5 -40.5z" />
    <glyph glyph-name="six.titling" horiz-adv-x="219" 
d="M117 198q-48 0 -69.5 57.5t-21.5 198.5q0 139 20.5 198t67.5 59q41 0 57 -40.5t14 -138.5l-30 2q2 79 -7 112.5t-34 33.5q-58 0 -58 -223v-4q23 45 65 45q37 -1 57.5 -40.5t20.5 -102.5q0 -157 -82 -157zM116 469q-34 0 -60 -53q2 -105 17 -147.5t45 -42.5q50 0 50 120
q1 52 -12.5 87.5t-39.5 35.5z" />
    <glyph glyph-name="seven.titling" horiz-adv-x="176" 
d="M60 202q-20 302 78 473h-132l-1 30l165 1l1 -24q-55 -98 -73 -212t-8 -265z" />
    <glyph glyph-name="eight.titling" horiz-adv-x="217" 
d="M108 202q-40 0 -64 33.5t-24 90.5q0 93 64 142q-57 51 -57 128q0 49 19.5 79.5t61.5 31.5q40 0 61 -30t21 -78q0 -49 -16 -79t-46 -53q68 -57 69 -146q1 -57 -25.5 -88t-63.5 -31zM108 229q26 0 41.5 24.5t15.5 65.5q0 84 -59 132q-54 -40 -54 -124q0 -43 14.5 -70.5
t41.5 -27.5zM108 483q51 41 51 111q-1 86 -51 86t-50 -86q0 -67 50 -111z" />
    <glyph glyph-name="nine.titling" horiz-adv-x="216" 
d="M105 203q-43 0 -63 41.5t-16 136.5l31 -2q-3 -79 8.5 -112.5t39.5 -33.5q20 0 30.5 16t17 63.5t7.5 136.5q-19 -41 -60 -41q-37 0 -58.5 38.5t-21.5 104.5q0 71 21.5 113.5t63.5 42.5q45 0 64.5 -51t20.5 -187q1 -153 -17.5 -209.5t-67.5 -56.5zM106 437q18 0 32.5 15
t21.5 40q-1 102 -14.5 144.5t-40.5 42.5q-53 0 -53 -125q0 -117 54 -117z" />
    <glyph glyph-name="questiondown.cap" horiz-adv-x="236" 
d="M121 -16q-101 0 -101 201q0 104 26 150.5t81 63.5l-1 154l33 2l1 -179q-62 -8 -84 -53.5t-22 -128.5q0 -178 70 -178q44 0 56.5 59.5t1.5 183.5q7 2 34 3q12 -143 -7.5 -210.5t-87.5 -67.5zM144 609q-14 0 -24.5 11.5t-10.5 33.5q0 45 33 45q36 0 36 -47q0 -17 -9.5 -30
t-24.5 -13z" />
    <glyph glyph-name="exclamdown.cap" horiz-adv-x="133" 
d="M47 -8l1 560q10 -1 30 0q2 -314 7 -560q-13 1 -38 0zM65 608q-15 0 -24.5 12.5t-9.5 33.5q0 44 34 44q36 0 36 -46q0 -22 -10.5 -33t-25.5 -11z" />
    <glyph glyph-name="parenleft.cap" horiz-adv-x="161" 
d="M112 -42q-42 108 -59.5 198.5t-17.5 198.5q0 94 23.5 199t62.5 192l30 -12q-82 -185 -82 -381q0 -186 75 -383z" />
    <glyph glyph-name="parenright.cap" horiz-adv-x="161" 
d="M46 -52q-10 5 -30 11q76 209 76 404q0 196 -82 381q12 2 32 10q84 -192 84 -389q0 -205 -80 -417z" />
    <glyph glyph-name="bracketleft.cap" horiz-adv-x="171" 
d="M155 -34q-38 2 -101 2q2 174 -4 764q40 0 97 2q-1 -12 0 -31q-23 1 -62 0q-1 -445 3 -703l68 -1q-1 -12 -1 -33z" />
    <glyph glyph-name="bracketright.cap" horiz-adv-x="171" 
d="M24 -41q1 12 0 31q23 -1 62 0q0 463 -4 721q-27 0 -67 -1q1 12 1 33q38 -2 101 -2q-2 -190 4 -780q-40 0 -97 -2z" />
    <glyph glyph-name="braceleft.cap" horiz-adv-x="191" 
d="M173 -28q-14 -2 -21 -2q-45 -1 -62.5 22t-17.5 77q0 22 7.5 86.5t7.5 93.5q0 46 -17.5 71t-64.5 22l1 36q46 -1 62.5 15t16.5 61q0 29 -8.5 99t-8.5 96q0 84 69 84q16 0 39 -5l-3 -30q-41 8 -57 -4t-16 -54q0 -28 8.5 -98t8.5 -93q0 -38 -11 -59.5t-41 -31.5
q32 -9 42.5 -36.5t10.5 -74.5q0 -32 -6.5 -95t-6.5 -90q0 -37 15.5 -50t52.5 -9v-31z" />
    <glyph glyph-name="braceright.cap" horiz-adv-x="189" 
d="M15 -31l3 30q41 -7 57 6t16 56q0 28 -8 100t-8 103q0 39 10 60.5t41 30.5q-53 15 -53 107q0 32 6.5 96t6.5 86q0 38 -15 51.5t-53 9.5v31q16 2 26 2q40 -1 57.5 -23.5t17.5 -71.5l-15 -177q0 -52 18.5 -74t61.5 -21l-1 -36q-46 1 -61.5 -15.5t-15.5 -63.5l17 -203
q0 -87 -70 -88q-19 0 -38 4z" />
    <glyph glyph-name="slash.cap" horiz-adv-x="173" 
d="M5 -50l130 787h33l-129 -787h-34z" />
    <glyph glyph-name="backslash.cap" horiz-adv-x="173" 
d="M168 -50q-15 1 -34 0l-129 787q14 -1 33 0z" />
    <glyph glyph-name="bar.cap" horiz-adv-x="147" 
d="M58 -47q1 365 -3 784q13 -1 33 -1q0 -287 4 -782q-13 0 -34 -1z" />
    <glyph glyph-name="at.cap" horiz-adv-x="472" 
d="M285 -7q-138 -31 -196.5 55.5t-58.5 289.5q0 174 50.5 269t152.5 95t155.5 -92t53.5 -267q0 -148 -16 -200.5t-64 -52.5q-54 0 -64 73q-20 -68 -87 -68q-39 0 -62.5 30t-23.5 80q0 124 162 182q0 33 -2 75q-2 56 -13 77t-38 21q-35 0 -45 -35.5t-5 -116.5q-16 -2 -32 -2
q-3 52 -1 93t23 67t59 26q44 0 64 -30t22 -94q3 -195 2 -244q0 -53 8.5 -78.5t31.5 -25.5q27 0 37 43t10 176q0 157 -45 243.5t-129 86.5t-126.5 -86t-42.5 -246q0 -190 49.5 -264.5t163.5 -47.5q4 -16 7 -32zM288 266q1 34 -1 91q-127 -45 -127 -151q0 -39 15 -60.5
t41 -21.5q34 0 51 31.5t21 110.5z" />
    <glyph glyph-name="A.alt" horiz-adv-x="254" 
d="M5 -5l96 691l47 -1l101 -684q-15 1 -33 -1l-23 166q-28 2 -133 2l-22 -175q-12 2 -33 2zM125 651l-61 -453q5 0 47 -0.5t78 -0.5z" />
    <glyph glyph-name="B.alt" horiz-adv-x="264" 
d="M42 6q0 316 -7 681q13 1 36 1q89 0 127 -41.5t38 -125.5q0 -64 -27 -106.5t-73 -55.5q52 -13 82.5 -59t30.5 -109q0 -186 -185 -186zM74 38q142 0 142 146q0 75 -36 116t-110 40zM70 660v-288q65 -2 99.5 39.5t34.5 110.5q0 70 -32 105.5t-102 32.5z" />
    <glyph glyph-name="C.alt" horiz-adv-x="267" 
d="M144 -7q-39 0 -62.5 26.5t-37.5 105.5t-14 219q0 194 23 274.5t85 80.5q50 0 73.5 -59.5t22.5 -201.5l-31 -1q1 117 -14.5 173t-50.5 56q-44 0 -59.5 -75.5t-15.5 -242.5q0 -169 18 -247t65 -78q23 0 37.5 17.5t23 80.5t2.5 174l32 -1q5 -121 -6 -189t-32.5 -90
t-58.5 -22z" />
    <glyph glyph-name="D.alt" 
d="M74 36q26 -1 47 5.5t39.5 26.5t31 53.5t19.5 88.5t7 129q0 162 -39 242t-111 73zM37 4l-2 680q22 2 32 2q100 0 141.5 -86.5t41.5 -267.5q0 -185 -45 -257t-141 -72q-18 0 -27 1z" />
    <glyph glyph-name="E.alt" horiz-adv-x="246" 
d="M43 10q-1 270 -8 672q76 1 186 4q0 -12 1 -29q-52 0 -153 -3q0 -127 3 -327q75 0 141 2q1 -12 0 -30h-141q2 -179 4 -260q65 -2 160 -2q-1 -14 -1 -32q-86 4 -192 5z" />
    <glyph glyph-name="F.alt" horiz-adv-x="227" 
d="M43 16q-1 265 -8 667q126 1 181 3q1 -12 1 -29q-68 0 -148 -2q-1 -79 2 -332q63 0 127 2q0 -13 1 -31l-127 1l4 -278z" />
    <glyph glyph-name="G.alt" horiz-adv-x="270" 
d="M147 -2q-41 0 -65.5 30.5t-38 112.5t-13.5 226q0 330 111 330q52 0 73.5 -58t20.5 -183l-31 -2q2 111 -12.5 160.5t-50.5 49.5q-38 0 -59 -79t-21 -217q0 -186 21.5 -263t63.5 -77q40 0 56.5 57t10.5 207h-94q0 14 -1 30q45 -1 125 2q6 -130 -5 -203.5t-32.5 -98
t-58.5 -24.5z" />
    <glyph glyph-name="H.alt" horiz-adv-x="278" 
d="M211 3q1 102 0 277q-103 0 -142 -1q2 -194 4 -282q-19 0 -34 -1q0 286 -4 700q13 0 31 1q0 -164 3 -385q2 0 49.5 -0.5t92.5 -0.5l-4 381q13 0 33 1q-1 -283 3 -691q-17 1 -32 1z" />
    <glyph glyph-name="I.alt" horiz-adv-x="138" 
d="M54 14q1 282 -4 670q15 0 33 1q2 -311 5 -671q-19 1 -34 0z" />
    <glyph glyph-name="J.alt" horiz-adv-x="229" 
d="M109 -3q-48 0 -71 38.5t-23 122.5q0 53 13 117q9 -2 32 -4q-12 -72 -12 -114q0 -72 15.5 -100.5t47.5 -28.5q65 0 66 178q1 133 -8 230.5t-32 253.5q10 1 33 7q39 -296 39 -482q0 -123 -26 -170.5t-74 -47.5z" />
    <glyph glyph-name="K.alt" horiz-adv-x="270" 
d="M235 -14l-113 348l-56 -125l2 -212l-33 -1v691l32 -1q-1 -170 -1 -410l172 420l32 -1l-129 -317l128 -391z" />
    <glyph glyph-name="L.alt" horiz-adv-x="224" 
d="M41 16q-1 254 -6 661q9 -1 35 0q-1 -209 4 -630l150 1l-1 -32h-182z" />
    <glyph glyph-name="M.alt" horiz-adv-x="359" 
d="M30 1q8 326 13 700q21 -1 58 -1q33 -240 72 -488q87 479 87 482q29 0 56 1q4 -251 13 -691q-15 1 -35 1q2 255 -7 666l-93 -497q-26 -1 -44 0l-78 507q-4 -236 -9 -682q-14 0 -33 2z" />
    <glyph glyph-name="N.alt" horiz-adv-x="283" 
d="M38 -1q2 290 -3 699q11 1 47 1l138 -636q-2 201 -12 628q12 -1 35 -1q1 -237 5 -682q-21 0 -48 1l-135 632q4 -461 9 -643q-26 1 -36 1z" />
    <glyph glyph-name="O.alt" horiz-adv-x="292" 
d="M147 697q40 0 64.5 -32t37.5 -113.5t13 -222.5q0 -124 -16 -199.5t-40.5 -102t-60.5 -26.5q-57 0 -86 71.5t-29 256.5q0 200 26 284t91 84zM147 665q-45 0 -64 -76.5t-19 -257.5q0 -299 83 -299q82 0 82 279q0 192 -19.5 273t-62.5 81z" />
    <glyph glyph-name="P.alt" horiz-adv-x="247" 
d="M40 14q1 237 -5 661q19 1 28 1q174 0 174 -220q0 -104 -44 -160t-122 -68q0 -57 3 -213q-11 -1 -34 -1zM68 645l2 -386q133 20 133 199q0 190 -135 187z" />
    <glyph glyph-name="Q.alt" horiz-adv-x="289" 
d="M264 -115l-76 135q-19 -16 -44 -16q-56 0 -84.5 75t-28.5 249q0 175 24.5 269.5t90.5 94.5t90.5 -87.5t24.5 -285.5q0 -199 -51 -275l84 -138zM146 662q-81 0 -81 -343q0 -146 21.5 -214.5t57.5 -68.5q38 0 61 74t23 218q0 172 -19.5 253t-62.5 81z" />
    <glyph glyph-name="R.alt" horiz-adv-x="258" 
d="M227 -1q-32 118 -96 321q-29 -11 -61 -15q0 -100 4 -299q-16 0 -33 -1q1 248 -6 669q28 2 38 2q91 0 131 -45.5t40 -133.5q0 -117 -86 -164l100 -325q-17 -4 -31 -9zM70 338q143 11 143 157q0 76 -33 115.5t-113 34.5z" />
    <glyph glyph-name="S.alt" horiz-adv-x="252" 
d="M129 -11q-54 0 -80.5 55.5t-18.5 195.5q10 -1 32 0q-6 -120 13 -169.5t58 -49.5q65 0 65 120q0 108 -84 196q-52 54 -73 99.5t-21 102.5q0 73 27 115.5t77 42.5q61 0 84.5 -57.5t15.5 -180.5q-15 0 -31 -1q6 113 -11.5 160t-59.5 47q-34 -1 -51 -37.5t-17 -93.5
q0 -51 19.5 -88t70.5 -93q50 -55 69 -102t19 -105q0 -157 -103 -157z" />
    <glyph glyph-name="T.alt" horiz-adv-x="232" 
d="M6 655q0 19 -1 29q36 0 221 3q0 -13 1 -30q-38 0 -94 -1q0 -321 4 -647q-15 0 -34 -1q0 248 -3 648z" />
    <glyph glyph-name="U.alt" horiz-adv-x="255" 
d="M128 -1q-35 0 -57.5 28t-36.5 108.5t-14 219.5q0 160 19 332q11 -1 33 -1q-19 -179 -19 -321q0 -131 10.5 -207.5t26.5 -102.5t40 -26q13 0 23 6.5t19.5 25.5t15.5 52.5t9.5 90t3.5 134.5q-1 160 -23 351q14 0 34 2q23 -193 23 -342q0 -140 -12.5 -217.5t-34.5 -105
t-60 -27.5z" />
    <glyph glyph-name="V.alt" horiz-adv-x="245" 
d="M97 8l-92 680l35 -1q46 -395 80 -638l86 646l34 -2l-95 -687q-32 0 -48 2z" />
    <glyph glyph-name="W.alt" horiz-adv-x="410" 
d="M286 6q-58 420 -84 576l-87 -584l-52 4l-53 691l35 1q35 -526 45 -656l87 585l48 2l86 -571l55 638l34 -1l-62 -684z" />
    <glyph glyph-name="X.alt" horiz-adv-x="254" 
d="M39 -2l-34 2q76 239 102 331q-35 140 -100 361q13 0 36 2l81 -321l78 313l35 1l-97 -359l109 -325l-35 -1l-90 283z" />
    <glyph glyph-name="Y.alt" horiz-adv-x="238" 
d="M101 -14q2 56 0 173l-95 528q12 0 31 2l80 -463l85 460q13 0 31 -2q-39 -185 -102 -528q-1 -32 3 -168q-11 -2 -33 -2z" />
    <glyph glyph-name="Z.alt" horiz-adv-x="228" 
d="M211 9l-196 4l1 22l158 623l-155 -3l-1 29l191 3l1 -17l-161 -628l164 -2z" />
    <glyph glyph-name="a.alt" horiz-adv-x="248" 
d="M104 -4q-40 0 -64.5 29.5t-24.5 86.5q0 62 42 112.5t127 68.5l-2 77q-2 49 -14 73t-41 24q-36 0 -49 -31.5t-11 -95.5q-16 2 -33 2q-6 158 94 158q83 0 86 -123q3 -113 4 -212.5t0 -142.5l-1 -42q-8 0 -32 -1q1 40 2 91q-8 -33 -30.5 -53.5t-52.5 -20.5zM185 172
q0 60 -1 92q-70 -15 -103 -57t-33 -93q0 -86 61 -86q31 0 53.5 34.5t22.5 109.5z" />
    <glyph glyph-name="b.alt" horiz-adv-x="283" 
d="M37 -5q1 219 -2 699q12 0 30 -1q-1 -136 0 -285q19 96 84 96q51 0 77.5 -71.5t26.5 -185.5q0 -257 -107 -257q-59 0 -80 78q0 -54 1 -73q-16 -1 -30 0zM145 17q76 0 76 232q0 85 -19.5 154.5t-57.5 69.5t-57.5 -64t-19.5 -167q0 -113 21 -169t57 -56z" />
    <glyph glyph-name="c.alt" horiz-adv-x="255" 
d="M137 -9q-57 0 -82 61.5t-25 196.5q0 261 109 261q97 0 90 -188l-32 -1q2 81 -11.5 118.5t-45.5 37.5q-36 0 -56.5 -60t-20.5 -169q0 -226 73 -226q64 -2 61 170q13 0 33 1q-1 -109 -24 -155.5t-69 -46.5z" />
    <glyph glyph-name="d.alt" horiz-adv-x="289" 
d="M249 -5q-16 1 -35 1q2 38 3 95q-9 -42 -32 -67.5t-51 -25.5q-50 0 -77 60t-27 174q0 129 28 199.5t81 70.5q29 0 50 -26t31 -65l-4 283q9 1 32 1q-3 -300 1 -700zM138 30q34 0 56 53t22 144q1 243 -78 243q-34 0 -55 -61t-21 -148q0 -231 76 -231z" />
    <glyph glyph-name="e.alt" horiz-adv-x="258" 
d="M137 -6q-55 0 -81 60t-26 204q0 245 104 245q56 0 76.5 -67t16.5 -202q-63 0 -164 -4q3 -206 74 -206q63 0 66 145q12 0 30 1q-1 -176 -96 -176zM132 473q-32 0 -50 -59t-19 -152q51 0 133 3q0 108 -15 158t-49 50z" />
    <glyph glyph-name="f.alt" horiz-adv-x="192" 
d="M185 462q-36 1 -94 2l1 -454q-19 0 -31 -1l-2 455l-49 1q0 15 1 29q19 -1 48 -2v19q1 93 20.5 131t84.5 38q9 0 33 -2q-2 -12 -3 -28q-22 2 -30 2q-46 0 -59 -30t-14 -115v-16q54 -2 96 -2q0 -8 -2 -27z" />
    <glyph glyph-name="g.alt" horiz-adv-x="244" 
d="M123 -223q-51 0 -82 24.5t-31 62.5q0 71 86 113q-41 21 -41 57q0 31 30 57q-68 35 -68 193q0 93 28.5 150.5t79.5 57.5q14 0 29 -5l55 166q14 -4 35 -14q-32 -79 -64 -169q50 -47 50 -187q0 -100 -29 -150t-78 -50l-11 1q-23 -20 -23 -44q0 -17 16.5 -28.5t64.5 -24.5
q52 -14 73 -36t21 -55q0 -50 -41.5 -84.5t-99.5 -34.5zM123 115q74 0 74 167q0 176 -74 176q-35 0 -53.5 -49t-18.5 -127q0 -167 72 -167zM228 -108q0 30 -21.5 45.5t-78.5 28.5q-82 -42 -82 -98q0 -29 23 -44t58 -15q42 0 71.5 23.5t29.5 59.5z" />
    <glyph glyph-name="h.alt" horiz-adv-x="261" 
d="M39 -6q0 332 -4 698q20 0 32 1q0 -139 1 -292q12 43 36 69t57 25q36 0 50.5 -27t16.5 -86q2 -72 2.5 -168t-0.5 -156l-1 -60q-11 1 -31 1q3 210 -1 373q-2 51 -11 71t-35 20q-32 0 -56.5 -49t-24.5 -122l-1 -297q-16 0 -30 -1z" />
    <glyph glyph-name="i.alt" horiz-adv-x="115" 
d="M45 12q1 106 -3 472q13 0 31 1q0 -178 4 -472q-9 0 -32 -1zM57 562q-12 0 -19.5 10.5t-7.5 26.5q0 40 28 40q27 0 27 -37q0 -40 -28 -40z" />
    <glyph glyph-name="j.alt" horiz-adv-x="114" 
d="M58 563q-29 0 -29 38t27 38q28 0 28 -39q0 -17 -7.5 -27t-18.5 -10zM-45 -184q2 14 4 34q17 -3 31 -3q28 0 40.5 17t13.5 55l-1 572l29 1q1 -33 2 -86.5t2.5 -215.5t-0.5 -281q-1 -49 -24 -73t-62 -24q-19 0 -35 4z" />
    <glyph glyph-name="k.alt" horiz-adv-x="243" 
d="M200 -6l-89 290l-40 -78l3 -209l-34 1q0 187 -1 361t-3 255l-1 80l32 1l3 -434l128 254l32 -2q-78 -152 -97 -193l100 -324z" />
    <glyph glyph-name="l.alt" horiz-adv-x="118" 
d="M75 -12l-35 2l5 704l33 1z" />
    <glyph glyph-name="m.alt" horiz-adv-x="417" 
d="M38 6q0 190 -3 468q9 0 32 -1q-1 -27 -1 -70q29 90 92 90q61 0 67 -88q10 36 34 57.5t50 21.5q32 0 49.5 -20t21.5 -43t5 -58l2 -355q-10 1 -31 0q1 214 -3 360q-3 84 -43 84q-38 0 -59 -38.5t-21 -103.5l2 -315q-16 -1 -36 -1q1 254 -1 377q-1 49 -10 70t-32 21
q-35 0 -59.5 -46.5t-25.5 -112.5l3 -296q-15 0 -33 -1z" />
    <glyph glyph-name="n.alt" horiz-adv-x="259" 
d="M197 3q-2 216 -2 374q0 88 -42 88q-35 0 -60 -47t-25 -110l-1 -315q-19 1 -32 0l2 487q15 0 30 1q-1 -33 0 -67q30 83 92 83q35 0 50 -27t17 -83l3 -383z" />
    <glyph glyph-name="o.alt" 
d="M142 503q108 0 108 -258q0 -256 -105 -256q-115 0 -115 251q0 263 112 263zM141 472q-42 0 -60 -68t-18 -165q0 -109 22 -164.5t59 -55.5q32 0 52.5 56t20.5 164q0 233 -76 233z" />
    <glyph glyph-name="p.alt" horiz-adv-x="282" 
d="M35 -240v743l30 1q-1 -31 -1 -108q8 47 29.5 76t53.5 29q52 0 79 -72.5t26 -184.5q0 -251 -109 -251q-59 0 -80 71l10 -303zM141 21q36 0 56.5 56t21.5 150q1 106 -19.5 174.5t-56.5 68.5t-57.5 -70.5t-21.5 -170.5q0 -208 77 -208z" />
    <glyph glyph-name="q.alt" horiz-adv-x="288" 
d="M209 -213q8 198 10 286q-20 -79 -82 -79q-52 0 -79.5 63t-27.5 173q0 124 26 198t82 74q60 0 82 -89l-2 110h29v-735zM139 22q78 0 78 220q-1 108 -21.5 168.5t-52.5 60.5q-41 0 -60.5 -68t-19.5 -161q0 -104 21 -162t55 -58z" />
    <glyph glyph-name="r.alt" horiz-adv-x="190" 
d="M37 13q0 235 -2 458q18 0 29 1q-2 -21 -2 -79q12 51 44.5 84t72.5 38q1 -13 1 -34q-51 -12 -80 -60t-31 -130q-1 -65 -0.5 -126.5t1.5 -106.5l2 -44q-15 -1 -35 -1z" />
    <glyph glyph-name="s.alt" horiz-adv-x="230" 
d="M120 -1q-51 0 -76.5 41t-18.5 117q13 -2 32 -4q-9 -123 65 -123q60 0 60 81q0 39 -16.5 65t-63.5 58t-67 67t-20 86q0 49 25.5 82t68.5 33q57 0 76 -47.5t15 -141.5q-12 0 -30 2q2 82 -10 119.5t-48 37.5q-30 0 -47 -23.5t-17 -59.5q0 -44 18 -74.5t62 -59.5
q49 -33 68 -65t19 -77q0 -59 -26.5 -86.5t-68.5 -27.5z" />
    <glyph glyph-name="t.alt" horiz-adv-x="198" 
d="M188 -5q-27 -8 -54 -8q-75 0 -78 103q-4 196 -2 366l-49 1l1 30q18 -1 49 -1l2 102l31 -1q-1 -38 -2 -102l92 -1l-1 -30l-92 2q-2 -138 3 -366q2 -40 13 -56.5t38 -16.5q20 0 42 7z" />
    <glyph glyph-name="u.alt" horiz-adv-x="268" 
d="M120 9q-43 0 -64 46.5t-21 181.5q0 147 12 261q15 -1 31 -1q-11 -101 -11 -258q0 -83 7.5 -128t19 -58t32.5 -13q28 0 49 50t21 118l-4 284q17 1 34 0q0 -240 2 -481q-13 0 -33 1l2 79q-12 -36 -32.5 -59t-44.5 -23z" />
    <glyph glyph-name="v.alt" horiz-adv-x="232" 
d="M129 15l-36 -1l-88 490l35 1l73 -432l78 442l36 -2z" />
    <glyph glyph-name="w.alt" horiz-adv-x="373" 
d="M257 8q-20 151 -37 262t-24 146l-6 35l-75 -456h-48l-57 507l33 3l51 -473l71 452l50 -1l63 -415l54 442l31 -2l-63 -502z" />
    <glyph glyph-name="x.alt" horiz-adv-x="248" 
d="M238 506q-71 -172 -103 -261l92 -250l-33 -3q-73 209 -75 214l-78 -215l-31 3q72 188 93 252l-90 251l33 1q52 -157 73 -214l84 221z" />
    <glyph glyph-name="y.alt" horiz-adv-x="229" 
d="M80 -233l-29 8l42 218l-88 512l34 3l72 -451l78 459l36 -4z" />
    <glyph glyph-name="z.alt" horiz-adv-x="211" 
d="M189 10l-169 2l1 33l131 415l-124 -1l-1 33l157 2l1 -29l-131 -422h137z" />
    <glyph glyph-name="dotlessi.alt" horiz-adv-x="115" 
d="M45 12q1 106 -3 472q13 0 31 1q0 -178 4 -472q-9 0 -32 -1z" />
    <glyph glyph-name="Aacute.alt" horiz-adv-x="254" 
d="M5 -5l96 691l47 -1l101 -684q-15 1 -33 -1l-23 166q-28 2 -133 2l-22 -175q-12 2 -33 2zM125 651l-61 -453q5 0 47 -0.5t78 -0.5zM119 731l-24 18l71 120l33 -26z" />
    <glyph glyph-name="Abreve.alt" horiz-adv-x="254" 
d="M5 -5l96 691l47 -1l101 -684q-15 1 -33 -1l-23 166q-28 2 -133 2l-22 -175q-12 2 -33 2zM125 651l-61 -453q5 0 47 -0.5t78 -0.5zM126 735q-40 0 -61.5 25.5t-19.5 65.5q16 -1 33 0q-2 -29 10.5 -46t38.5 -17q57 0 53 72q10 -1 30 -1q4 -48 -20 -73.5t-64 -25.5z" />
    <glyph glyph-name="Acircumflex.alt" horiz-adv-x="254" 
d="M5 -5l96 691l47 -1l101 -684q-15 1 -33 -1l-23 166q-28 2 -133 2l-22 -175q-12 2 -33 2zM125 651l-61 -453q5 0 47 -0.5t78 -0.5zM71 718q-13 9 -28 17l68 116q10 -1 30 0l71 -116q-8 -4 -26 -16q-27 50 -59 96q-23 -36 -56 -97z" />
    <glyph glyph-name="Adieresis.alt" horiz-adv-x="254" 
d="M5 -5l96 691l47 -1l101 -684q-15 1 -33 -1l-23 166q-28 2 -133 2l-22 -175q-12 2 -33 2zM125 651l-61 -453q5 0 47 -0.5t78 -0.5zM85 749q-27 0 -27 32q0 14 8 23t19 9q28 0 28 -32t-28 -32zM170 751q-28 0 -28 32q0 30 28 30q26 0 26 -32q0 -30 -26 -30z" />
    <glyph glyph-name="Agrave.alt" horiz-adv-x="254" 
d="M5 -5l96 691l47 -1l101 -684q-15 1 -33 -1l-23 166q-28 2 -133 2l-22 -175q-12 2 -33 2zM125 651l-61 -453q5 0 47 -0.5t78 -0.5zM142 731l-80 112q9 5 33 26q40 -71 71 -120q-5 -3 -24 -18z" />
    <glyph glyph-name="Amacron.alt" horiz-adv-x="254" 
d="M5 -5l96 691l47 -1l101 -684q-15 1 -33 -1l-23 166q-28 2 -133 2l-22 -175q-12 2 -33 2zM125 651l-61 -453q5 0 47 -0.5t78 -0.5zM46 764q1 14 0 33q57 -1 163 1q-1 -4 -1 -33q-59 1 -162 -1z" />
    <glyph glyph-name="Aogonek.alt" horiz-adv-x="254" 
d="M260 -150q-42 -2 -68 17.5t-26 52.5q0 50 50 80q-1 3 -23 166q-28 2 -133 2l-22 -175q-12 2 -33 2l96 691l47 -1l101 -684q-49 -41 -49 -73q0 -48 61 -47q0 -8 -1 -31zM125 651l-61 -453q5 0 47 -0.5t78 -0.5z" />
    <glyph glyph-name="Aring.alt" horiz-adv-x="254" 
d="M5 -5l96 691l47 -1l101 -684q-15 1 -33 -1l-23 166q-28 2 -133 2l-22 -175q-12 2 -33 2zM125 651l-61 -453q5 0 47 -0.5t78 -0.5zM127 732q-32 0 -49 23t-17 58t18.5 56t47.5 21q32 0 49.5 -22t17.5 -55q0 -42 -19 -61.5t-48 -19.5zM128 761q36 0 36 52q0 21 -9 36
t-27 15q-36 0 -36 -51q0 -52 36 -52z" />
    <glyph glyph-name="Atilde.alt" horiz-adv-x="254" 
d="M5 -5l96 691l47 -1l101 -684q-15 1 -33 -1l-23 166q-28 2 -133 2l-22 -175q-12 2 -33 2zM125 651l-61 -453q5 0 47 -0.5t78 -0.5zM68 742q-17 1 -30 -1q-4 43 11.5 68t40.5 25q23 0 47.5 -30.5t34.5 -30.5q25 0 16 58q2 -1 28 2q10 -92 -46 -92q-18 0 -32.5 15.5
t-26 30.5t-20.5 15q-16 0 -20.5 -14t-2.5 -46z" />
    <glyph glyph-name="Cacute.alt" horiz-adv-x="267" 
d="M144 -7q-39 0 -62.5 26.5t-37.5 105.5t-14 219q0 194 23 274.5t85 80.5q50 0 73.5 -59.5t22.5 -201.5l-31 -1q1 117 -14.5 173t-50.5 56q-44 0 -59.5 -75.5t-15.5 -242.5q0 -169 18 -247t65 -78q23 0 37.5 17.5t23 80.5t2.5 174l32 -1q5 -121 -6 -189t-32.5 -90
t-58.5 -22zM132 746l-24 18l71 120l33 -26z" />
    <glyph glyph-name="Ccaron.alt" horiz-adv-x="267" 
d="M144 -7q-39 0 -62.5 26.5t-37.5 105.5t-14 219q0 194 23 274.5t85 80.5q50 0 73.5 -59.5t22.5 -201.5l-31 -1q1 117 -14.5 173t-50.5 56q-44 0 -59.5 -75.5t-15.5 -242.5q0 -169 18 -247t65 -78q23 0 37.5 17.5t23 80.5t2.5 174l32 -1q5 -121 -6 -189t-32.5 -90
t-58.5 -22zM127 741l-71 116q8 4 26 16q28 -51 60 -97l55 98q13 -9 28 -17q-30 -47 -68 -116q-10 1 -30 0z" />
    <glyph glyph-name="Ccedilla.alt" horiz-adv-x="267" 
d="M241 294q5 -114 -4.5 -181t-28.5 -91.5t-52 -27.5l-4 -39q39 1 59.5 -14t20.5 -38q0 -29 -26 -45.5t-62 -16.5q-43 0 -78 24q6 9 12 25q34 -22 67 -22q23 0 39 8t16 24q0 40 -83 28q5 20 13 66q-52 6 -76 81.5t-24 268.5q0 194 23 274.5t85 80.5q50 0 73.5 -59.5
t22.5 -201.5l-31 -1q1 117 -14.5 173t-50.5 56q-44 0 -59.5 -75.5t-15.5 -242.5q0 -169 18 -247t65 -78q23 0 37.5 17.5t23 80.5t2.5 174z" />
    <glyph glyph-name="Ccircumflex.alt" horiz-adv-x="267" 
d="M144 -7q-39 0 -62.5 26.5t-37.5 105.5t-14 219q0 194 23 274.5t85 80.5q50 0 73.5 -59.5t22.5 -201.5l-31 -1q1 117 -14.5 173t-50.5 56q-44 0 -59.5 -75.5t-15.5 -242.5q0 -169 18 -247t65 -78q23 0 37.5 17.5t23 80.5t2.5 174l32 -1q5 -121 -6 -189t-32.5 -90
t-58.5 -22zM84 733q-13 9 -28 17l68 116q10 -1 30 0l71 -116q-8 -4 -26 -16q-27 50 -59 96q-23 -36 -56 -97z" />
    <glyph glyph-name="Dcaron.alt" 
d="M74 36q26 -1 47 5.5t39.5 26.5t31 53.5t19.5 88.5t7 129q0 162 -39 242t-111 73zM37 4l-2 680q22 2 32 2q100 0 141.5 -86.5t41.5 -267.5q0 -185 -45 -257t-141 -72q-18 0 -27 1zM99 727l-71 116q8 4 26 16q28 -51 60 -97l55 98q13 -9 28 -17q-30 -47 -68 -116
q-10 1 -30 0z" />
    <glyph glyph-name="Eacute.alt" horiz-adv-x="246" 
d="M43 10q-1 270 -8 672q76 1 186 4q0 -12 1 -29q-52 0 -153 -3q0 -127 3 -327q75 0 141 2q1 -12 0 -30h-141q2 -179 4 -260q65 -2 160 -2q-1 -14 -1 -32q-86 4 -192 5zM127 736l-24 18l71 120l33 -26z" />
    <glyph glyph-name="Ecaron.alt" horiz-adv-x="246" 
d="M43 10q-1 270 -8 672q76 1 186 4q0 -12 1 -29q-52 0 -153 -3q0 -127 3 -327q75 0 141 2q1 -12 0 -30h-141q2 -179 4 -260q65 -2 160 -2q-1 -14 -1 -32q-86 4 -192 5zM122 731l-71 116q8 4 26 16q28 -51 60 -97l55 98q13 -9 28 -17q-30 -47 -68 -116q-10 1 -30 0z" />
    <glyph glyph-name="Ecircumflex.alt" horiz-adv-x="246" 
d="M43 10q-1 270 -8 672q76 1 186 4q0 -12 1 -29q-52 0 -153 -3q0 -127 3 -327q75 0 141 2q1 -12 0 -30h-141q2 -179 4 -260q65 -2 160 -2q-1 -14 -1 -32q-86 4 -192 5zM79 731q-13 9 -28 17l68 116q10 -1 30 0l71 -116q-8 -4 -26 -16q-27 50 -59 96q-23 -36 -56 -97z" />
    <glyph glyph-name="Edieresis.alt" horiz-adv-x="246" 
d="M43 10q-1 270 -8 672q76 1 186 4q0 -12 1 -29q-52 0 -153 -3q0 -127 3 -327q75 0 141 2q1 -12 0 -30h-141q2 -179 4 -260q65 -2 160 -2q-1 -14 -1 -32q-86 4 -192 5zM94 754q-27 0 -27 32q0 14 8 23t19 9q28 0 28 -32t-28 -32zM179 756q-28 0 -28 32q0 30 28 30
q26 0 26 -32q0 -30 -26 -30z" />
    <glyph glyph-name="Edotaccent.alt" horiz-adv-x="246" 
d="M43 10q-1 270 -8 672q76 1 186 4q0 -12 1 -29q-52 0 -153 -3q0 -127 3 -327q75 0 141 2q1 -12 0 -30h-141q2 -179 4 -260q65 -2 160 -2q-1 -14 -1 -32q-86 4 -192 5zM137 747q-19 0 -29.5 13t-10.5 34q0 20 10.5 32t29.5 12q18 0 28 -12.5t10 -31.5q0 -47 -38 -47z" />
    <glyph glyph-name="Egrave.alt" horiz-adv-x="246" 
d="M43 10q-1 270 -8 672q76 1 186 4q0 -12 1 -29q-52 0 -153 -3q0 -127 3 -327q75 0 141 2q1 -12 0 -30h-141q2 -179 4 -260q65 -2 160 -2q-1 -14 -1 -32q-86 4 -192 5zM150 736l-80 112q9 5 33 26q40 -71 71 -120q-5 -3 -24 -18z" />
    <glyph glyph-name="Emacron.alt" horiz-adv-x="246" 
d="M43 10q-1 270 -8 672q76 1 186 4q0 -12 1 -29q-52 0 -153 -3q0 -127 3 -327q75 0 141 2q1 -12 0 -30h-141q2 -179 4 -260q65 -2 160 -2q-1 -14 -1 -32q-86 4 -192 5zM54 767q1 14 0 33q57 -1 163 1q-1 -4 -1 -33q-59 1 -162 -1z" />
    <glyph glyph-name="Eogonek.alt" horiz-adv-x="246" 
d="M246 -146q-42 -2 -68 17.5t-26 52.5q0 51 53 82q-38 2 -162 4q-1 270 -8 672q76 1 186 4q0 -12 1 -29q-52 0 -153 -3q0 -127 3 -327q75 0 141 2q1 -12 0 -30h-141q2 -179 4 -260q65 -2 160 -2q-1 -14 -1 -32q-49 -41 -49 -73q0 -48 61 -47q0 -8 -1 -31z" />
    <glyph glyph-name="Gbreve.alt" horiz-adv-x="270" 
d="M147 -2q-41 0 -65.5 30.5t-38 112.5t-13.5 226q0 330 111 330q52 0 73.5 -58t20.5 -183l-31 -2q2 111 -12.5 160.5t-50.5 49.5q-38 0 -59 -79t-21 -217q0 -186 21.5 -263t63.5 -77q40 0 56.5 57t10.5 207h-94q0 14 -1 30q45 -1 125 2q6 -130 -5 -203.5t-32.5 -98
t-58.5 -24.5zM137 739q-40 0 -61.5 25.5t-19.5 65.5q16 -1 33 0q-2 -29 10.5 -46t38.5 -17q57 0 53 72q10 -1 30 -1q4 -48 -20 -73.5t-64 -25.5z" />
    <glyph glyph-name="Gcircumflex.alt" horiz-adv-x="270" 
d="M147 -2q-41 0 -65.5 30.5t-38 112.5t-13.5 226q0 330 111 330q52 0 73.5 -58t20.5 -183l-31 -2q2 111 -12.5 160.5t-50.5 49.5q-38 0 -59 -79t-21 -217q0 -186 21.5 -263t63.5 -77q40 0 56.5 57t10.5 207h-94q0 14 -1 30q45 -1 125 2q6 -130 -5 -203.5t-32.5 -98
t-58.5 -24.5zM82 726q-13 9 -28 17l68 116q10 -1 30 0l71 -116q-8 -4 -26 -16q-27 50 -59 96q-23 -36 -56 -97z" />
    <glyph glyph-name="Gcommaaccent.alt" horiz-adv-x="270" 
d="M147 -2q-41 0 -65.5 30.5t-38 112.5t-13.5 226q0 330 111 330q52 0 73.5 -58t20.5 -183l-31 -2q2 111 -12.5 160.5t-50.5 49.5q-38 0 -59 -79t-21 -217q0 -186 21.5 -263t63.5 -77q40 0 56.5 57t10.5 207h-94q0 14 -1 30q45 -1 125 2q6 -130 -5 -203.5t-32.5 -98
t-58.5 -24.5zM178 -74q0 -54 -66 -103l-15 20q23 18 39 47q-26 5 -26 36q0 16 10.5 27t24.5 11q33 0 33 -38z" />
    <glyph glyph-name="Hcircumflex.alt" horiz-adv-x="278" 
d="M211 3q1 102 0 277q-103 0 -142 -1q2 -194 4 -282q-19 0 -34 -1q0 286 -4 700q13 0 31 1q0 -164 3 -385q2 0 49.5 -0.5t92.5 -0.5l-4 381q13 0 33 1q-1 -283 3 -691q-17 1 -32 1zM83 735q-13 9 -28 17l68 116q10 -1 30 0l71 -116q-8 -4 -26 -16q-27 50 -59 96
q-23 -36 -56 -97z" />
    <glyph glyph-name="Iacute.alt" horiz-adv-x="138" 
d="M54 14q1 282 -4 670q15 0 33 1q2 -311 5 -671q-19 1 -34 0zM62 731l-24 18l71 120l33 -26z" />
    <glyph glyph-name="Icircumflex.alt" horiz-adv-x="138" 
d="M54 14q1 282 -4 670q15 0 33 1q2 -311 5 -671q-19 1 -34 0zM13 726q-13 9 -28 17l68 116q10 -1 30 0l71 -116q-8 -4 -26 -16q-27 50 -59 96q-23 -36 -56 -97z" />
    <glyph glyph-name="Idieresis.alt" horiz-adv-x="138" 
d="M54 14q1 282 -4 670q15 0 33 1q2 -311 5 -671q-19 1 -34 0zM27 756q-27 0 -27 32q0 14 8 23t19 9q28 0 28 -32t-28 -32zM112 758q-28 0 -28 32q0 30 28 30q26 0 26 -32q0 -30 -26 -30z" />
    <glyph glyph-name="Idotaccent.alt" horiz-adv-x="138" 
d="M54 14q1 282 -4 670q15 0 33 1q2 -311 5 -671q-19 1 -34 0zM70 751q-19 0 -29.5 13t-10.5 34q0 20 10.5 32t29.5 12q18 0 28 -12.5t10 -31.5q0 -47 -38 -47z" />
    <glyph glyph-name="Igrave.alt" horiz-adv-x="138" 
d="M54 14q1 282 -4 670q15 0 33 1q2 -311 5 -671q-19 1 -34 0zM84 731l-80 112q9 5 33 26q40 -71 71 -120q-5 -3 -24 -18z" />
    <glyph glyph-name="Imacron.alt" horiz-adv-x="138" 
d="M54 14q1 282 -4 670q15 0 33 1q2 -311 5 -671q-19 1 -34 0zM-12 771q1 14 0 33q57 -1 163 1q-1 -4 -1 -33q-59 1 -162 -1z" />
    <glyph glyph-name="Iogonek.alt" horiz-adv-x="138" 
d="M99 -137q-42 -2 -68 17.5t-26 52.5q0 21 13.5 43.5t35.5 38.5q1 282 -4 669q15 0 33 1q2 -311 5 -671q-49 -41 -49 -73q0 -48 61 -47q0 -8 -1 -31z" />
    <glyph glyph-name="Jcircumflex.alt" horiz-adv-x="229" 
d="M109 -3q-48 0 -71 38.5t-23 122.5q0 53 13 117q9 -2 32 -4q-12 -72 -12 -114q0 -72 15.5 -100.5t47.5 -28.5q65 0 66 178q1 133 -8 230.5t-32 253.5q10 1 33 7q39 -296 39 -482q0 -123 -26 -170.5t-74 -47.5zM93 724q-13 9 -28 17l68 116q10 -1 30 0l71 -116
q-8 -4 -26 -16q-27 50 -59 96q-23 -36 -56 -97z" />
    <glyph glyph-name="Kcommaaccent.alt" horiz-adv-x="270" 
d="M235 -14l-113 348l-56 -125l2 -212l-33 -1v691l32 -1q-1 -170 -1 -410l172 420l32 -1l-129 -317l128 -391zM180 -65q0 -54 -66 -103l-15 20q23 18 39 47q-26 5 -26 36q0 16 10.5 27t24.5 11q33 0 33 -38z" />
    <glyph glyph-name="Lacute.alt" horiz-adv-x="224" 
d="M41 16q-1 254 -6 661q9 -1 35 0q-1 -209 4 -630l150 1l-1 -32h-182zM61 710l-24 18l71 120l33 -26z" />
    <glyph glyph-name="Lcaron.alt" horiz-adv-x="224" 
d="M41 16q-1 254 -6 661q9 -1 35 0q-1 -209 4 -630l150 1l-1 -32h-182zM204 671q0 -54 -66 -103l-15 20q23 18 39 47q-26 5 -26 36q0 16 10.5 27t24.5 11q33 0 33 -38z" />
    <glyph glyph-name="Lcommaaccent.alt" horiz-adv-x="224" 
d="M41 16q-1 254 -6 661q9 -1 35 0q-1 -209 4 -630l150 1l-1 -32h-182zM162 -61q0 -54 -66 -103l-15 20q23 18 39 47q-26 5 -26 36q0 16 10.5 27t24.5 11q33 0 33 -38z" />
    <glyph glyph-name="Nacute.alt" horiz-adv-x="283" 
d="M38 -1q2 290 -3 699q11 1 47 1l138 -636q-2 201 -12 628q12 -1 35 -1q1 -237 5 -682q-21 0 -48 1l-135 632q4 -461 9 -643q-26 1 -36 1zM139 730l-24 18l71 120l33 -26z" />
    <glyph glyph-name="Ncaron.alt" horiz-adv-x="283" 
d="M38 -1q2 290 -3 699q11 1 47 1l138 -636q-2 201 -12 628q12 -1 35 -1q1 -237 5 -682q-21 0 -48 1l-135 632q4 -461 9 -643q-26 1 -36 1zM128 731l-71 116q8 4 26 16q28 -51 60 -97l55 98q13 -9 28 -17q-30 -47 -68 -116q-10 1 -30 0z" />
    <glyph glyph-name="Ncommaaccent.alt" horiz-adv-x="283" 
d="M38 -1q2 290 -3 699q11 1 47 1l138 -636q-2 201 -12 628q12 -1 35 -1q1 -237 5 -682q-21 0 -48 1l-135 632q4 -461 9 -643q-26 1 -36 1zM174 -66q0 -54 -66 -103l-15 20q23 18 39 47q-26 5 -26 36q0 16 10.5 27t24.5 11q33 0 33 -38z" />
    <glyph glyph-name="Ntilde.alt" horiz-adv-x="283" 
d="M38 -1q2 290 -3 699q11 1 47 1l138 -636q-2 201 -12 628q12 -1 35 -1q1 -237 5 -682q-21 0 -48 1l-135 632q4 -461 9 -643q-26 1 -36 1zM81 749q-17 1 -30 -1q-4 43 11.5 68t40.5 25q23 0 47.5 -30.5t34.5 -30.5q25 0 16 58q2 -1 28 2q10 -92 -46 -92q-18 0 -32.5 15
t-26 30.5t-20.5 15.5q-16 0 -20.5 -14t-2.5 -46z" />
    <glyph glyph-name="Oacute.alt" horiz-adv-x="292" 
d="M147 697q40 0 64.5 -32t37.5 -113.5t13 -222.5q0 -124 -16 -199.5t-40.5 -102t-60.5 -26.5q-57 0 -86 71.5t-29 256.5q0 200 26 284t91 84zM147 665q-45 0 -64 -76.5t-19 -257.5q0 -299 83 -299q82 0 82 279q0 192 -19.5 273t-62.5 81zM138 736l-24 18l71 120l33 -26z
" />
    <glyph glyph-name="Ocircumflex.alt" horiz-adv-x="292" 
d="M147 697q40 0 64.5 -32t37.5 -113.5t13 -222.5q0 -124 -16 -199.5t-40.5 -102t-60.5 -26.5q-57 0 -86 71.5t-29 256.5q0 200 26 284t91 84zM147 665q-45 0 -64 -76.5t-19 -257.5q0 -299 83 -299q82 0 82 279q0 192 -19.5 273t-62.5 81zM89 725q-13 9 -28 17l68 116
q10 -1 30 0l71 -116q-8 -4 -26 -16q-27 50 -59 96q-23 -36 -56 -97z" />
    <glyph glyph-name="Odieresis.alt" horiz-adv-x="292" 
d="M147 697q40 0 64.5 -32t37.5 -113.5t13 -222.5q0 -124 -16 -199.5t-40.5 -102t-60.5 -26.5q-57 0 -86 71.5t-29 256.5q0 200 26 284t91 84zM147 665q-45 0 -64 -76.5t-19 -257.5q0 -299 83 -299q82 0 82 279q0 192 -19.5 273t-62.5 81zM104 754q-27 0 -27 32q0 14 8 23
t19 9q28 0 28 -32t-28 -32zM189 756q-28 0 -28 32q0 30 28 30q26 0 26 -32q0 -30 -26 -30z" />
    <glyph glyph-name="Ograve.alt" horiz-adv-x="292" 
d="M147 697q40 0 64.5 -32t37.5 -113.5t13 -222.5q0 -124 -16 -199.5t-40.5 -102t-60.5 -26.5q-57 0 -86 71.5t-29 256.5q0 200 26 284t91 84zM147 665q-45 0 -64 -76.5t-19 -257.5q0 -299 83 -299q82 0 82 279q0 192 -19.5 273t-62.5 81zM161 736l-80 112q9 5 33 26
q40 -71 71 -120q-5 -3 -24 -18z" />
    <glyph glyph-name="Ohungarumlaut.alt" horiz-adv-x="292" 
d="M147 697q40 0 64.5 -32t37.5 -113.5t13 -222.5q0 -124 -16 -199.5t-40.5 -102t-60.5 -26.5q-57 0 -86 71.5t-29 256.5q0 200 26 284t91 84zM147 665q-45 0 -64 -76.5t-19 -257.5q0 -299 83 -299q82 0 82 279q0 192 -19.5 273t-62.5 81zM167 731l-24 18l75 117l29 -23z
M95 734l-24 18l69 117l29 -22z" />
    <glyph glyph-name="Omacron.alt" horiz-adv-x="292" 
d="M147 697q40 0 64.5 -32t37.5 -113.5t13 -222.5q0 -124 -16 -199.5t-40.5 -102t-60.5 -26.5q-57 0 -86 71.5t-29 256.5q0 200 26 284t91 84zM147 665q-45 0 -64 -76.5t-19 -257.5q0 -299 83 -299q82 0 82 279q0 192 -19.5 273t-62.5 81zM64 770q1 14 0 33q57 -1 163 1
q-1 -4 -1 -33q-59 1 -162 -1z" />
    <glyph glyph-name="Otilde.alt" horiz-adv-x="292" 
d="M147 697q40 0 64.5 -32t37.5 -113.5t13 -222.5q0 -124 -16 -199.5t-40.5 -102t-60.5 -26.5q-57 0 -86 71.5t-29 256.5q0 200 26 284t91 84zM147 665q-45 0 -64 -76.5t-19 -257.5q0 -299 83 -299q82 0 82 279q0 192 -19.5 273t-62.5 81zM86 738q-17 1 -30 -1
q-4 43 11.5 68t40.5 25q23 0 47.5 -30.5t34.5 -30.5q25 0 16 58q2 -1 28 2q10 -92 -46 -92q-18 0 -32.5 15.5t-26 30.5t-20.5 15q-16 0 -20.5 -14t-2.5 -46z" />
    <glyph glyph-name="Racute.alt" horiz-adv-x="258" 
d="M227 -1q-32 118 -96 321q-29 -11 -61 -15q0 -100 4 -299q-16 0 -33 -1q1 248 -6 669q28 2 38 2q91 0 131 -45.5t40 -133.5q0 -117 -86 -164l100 -325q-17 -4 -31 -9zM70 338q143 11 143 157q0 76 -33 115.5t-113 34.5zM110 725l-24 18l71 120l33 -26z" />
    <glyph glyph-name="Rcaron.alt" horiz-adv-x="258" 
d="M227 -1q-32 118 -96 321q-29 -11 -61 -15q0 -100 4 -299q-16 0 -33 -1q1 248 -6 669q28 2 38 2q91 0 131 -45.5t40 -133.5q0 -117 -86 -164l100 -325q-17 -4 -31 -9zM70 338q143 11 143 157q0 76 -33 115.5t-113 34.5zM104 721l-71 116q8 4 26 16q28 -51 60 -97l55 98
q13 -9 28 -17q-30 -47 -68 -116q-10 1 -30 0z" />
    <glyph glyph-name="Rcommaaccent.alt" horiz-adv-x="258" 
d="M227 -1q-32 118 -96 321q-29 -11 -61 -15q0 -100 4 -299q-16 0 -33 -1q1 248 -6 669q28 2 38 2q91 0 131 -45.5t40 -133.5q0 -117 -86 -164l100 -325q-17 -4 -31 -9zM70 338q143 11 143 157q0 76 -33 115.5t-113 34.5zM177 -51q0 -54 -66 -103l-15 20q23 18 39 47
q-26 5 -26 36q0 16 10.5 27t24.5 11q33 0 33 -38z" />
    <glyph glyph-name="Sacute.alt" horiz-adv-x="252" 
d="M129 -11q-54 0 -80.5 55.5t-18.5 195.5q10 -1 32 0q-6 -120 13 -169.5t58 -49.5q65 0 65 120q0 108 -84 196q-52 54 -73 99.5t-21 102.5q0 73 27 115.5t77 42.5q61 0 84.5 -57.5t15.5 -180.5q-15 0 -31 -1q6 113 -11.5 160t-59.5 47q-34 -1 -51 -37.5t-17 -93.5
q0 -51 19.5 -88t70.5 -93q50 -55 69 -102t19 -105q0 -157 -103 -157zM116 736l-24 18l71 120l33 -26z" />
    <glyph glyph-name="Scaron.alt" horiz-adv-x="252" 
d="M129 -11q-54 0 -80.5 55.5t-18.5 195.5q10 -1 32 0q-6 -120 13 -169.5t58 -49.5q65 0 65 120q0 108 -84 196q-52 54 -73 99.5t-21 102.5q0 73 27 115.5t77 42.5q61 0 84.5 -57.5t15.5 -180.5q-15 0 -31 -1q6 113 -11.5 160t-59.5 47q-34 -1 -51 -37.5t-17 -93.5
q0 -51 19.5 -88t70.5 -93q50 -55 69 -102t19 -105q0 -157 -103 -157zM111 731l-71 116q8 4 26 16q28 -51 60 -97l55 98q13 -9 28 -17q-30 -47 -68 -116q-10 1 -30 0z" />
    <glyph glyph-name="Scedilla.alt" horiz-adv-x="252" 
d="M198 141q0 108 -84 196q-52 54 -73 99.5t-21 102.5q0 73 27 115.5t77 42.5q61 0 84.5 -57.5t15.5 -180.5q-15 0 -31 -1q6 113 -11.5 160t-59.5 47q-34 -1 -51 -37.5t-17 -93.5q0 -51 19.5 -88t70.5 -93q50 -55 69 -102t19 -105q0 -143 -85 -156l-4 -39q39 1 59.5 -14
t20.5 -38q0 -29 -26 -45.5t-62 -16.5q-43 0 -78 24q6 9 12 25q34 -22 67 -22q23 0 39 8t16 24q0 40 -83 28q5 20 13 66q-50 3 -74.5 59.5t-16.5 190.5q10 -1 32 0q-6 -120 13 -169.5t58 -49.5q65 0 65 120z" />
    <glyph glyph-name="Scircumflex.alt" horiz-adv-x="252" 
d="M129 -11q-54 0 -80.5 55.5t-18.5 195.5q10 -1 32 0q-6 -120 13 -169.5t58 -49.5q65 0 65 120q0 108 -84 196q-52 54 -73 99.5t-21 102.5q0 73 27 115.5t77 42.5q61 0 84.5 -57.5t15.5 -180.5q-15 0 -31 -1q6 113 -11.5 160t-59.5 47q-34 -1 -51 -37.5t-17 -93.5
q0 -51 19.5 -88t70.5 -93q50 -55 69 -102t19 -105q0 -157 -103 -157zM68 725q-13 9 -28 17l68 116q10 -1 30 0l71 -116q-8 -4 -26 -16q-27 50 -59 96q-23 -36 -56 -97z" />
    <glyph glyph-name="Scommaaccent.alt" horiz-adv-x="252" 
d="M129 -11q-54 0 -80.5 55.5t-18.5 195.5q10 -1 32 0q-6 -120 13 -169.5t58 -49.5q65 0 65 120q0 108 -84 196q-52 54 -73 99.5t-21 102.5q0 73 27 115.5t77 42.5q61 0 84.5 -57.5t15.5 -180.5q-15 0 -31 -1q6 113 -11.5 160t-59.5 47q-34 -1 -51 -37.5t-17 -93.5
q0 -51 19.5 -88t70.5 -93q50 -55 69 -102t19 -105q0 -157 -103 -157zM167 -69q0 -54 -66 -103l-15 20q23 18 39 47q-26 5 -26 36q0 16 10.5 27t24.5 11q33 0 33 -38z" />
    <glyph glyph-name="Tcaron.alt" horiz-adv-x="232" 
d="M6 655q0 19 -1 29q36 0 221 3q0 -13 1 -30q-38 0 -94 -1q0 -321 4 -647q-15 0 -34 -1q0 248 -3 648zM103 731l-71 116q8 4 26 16q28 -51 60 -97l55 98q13 -9 28 -17q-30 -47 -68 -116q-10 1 -30 0z" />
    <glyph glyph-name="Tcommaaccent.alt" horiz-adv-x="232" 
d="M6 655q0 19 -1 29q36 0 221 3q0 -13 1 -30q-38 0 -94 -1q0 -321 4 -647q-15 0 -34 -1q0 248 -3 648zM148 -56q0 -54 -66 -103l-15 20q23 18 39 47q-26 5 -26 36q0 16 10.5 27t24.5 11q33 0 33 -38z" />
    <glyph glyph-name="Uacute.alt" horiz-adv-x="255" 
d="M128 -1q-35 0 -57.5 28t-36.5 108.5t-14 219.5q0 160 19 332q11 -1 33 -1q-19 -179 -19 -321q0 -131 10.5 -207.5t26.5 -102.5t40 -26q13 0 23 6.5t19.5 25.5t15.5 52.5t9.5 90t3.5 134.5q-1 160 -23 351q14 0 34 2q23 -193 23 -342q0 -140 -12.5 -217.5t-34.5 -105
t-60 -27.5zM122 724l-24 18l71 120l33 -26z" />
    <glyph glyph-name="Ubreve.alt" horiz-adv-x="255" 
d="M128 -1q-35 0 -57.5 28t-36.5 108.5t-14 219.5q0 160 19 332q11 -1 33 -1q-19 -179 -19 -321q0 -131 10.5 -207.5t26.5 -102.5t40 -26q13 0 23 6.5t19.5 25.5t15.5 52.5t9.5 90t3.5 134.5q-1 160 -23 351q14 0 34 2q23 -193 23 -342q0 -140 -12.5 -217.5t-34.5 -105
t-60 -27.5zM129 738q-40 0 -61.5 25.5t-19.5 65.5q16 -1 33 0q-2 -29 10.5 -46t38.5 -17q57 0 53 72q10 -1 30 -1q4 -48 -20 -73.5t-64 -25.5z" />
    <glyph glyph-name="Ucircumflex.alt" horiz-adv-x="255" 
d="M128 -1q-35 0 -57.5 28t-36.5 108.5t-14 219.5q0 160 19 332q11 -1 33 -1q-19 -179 -19 -321q0 -131 10.5 -207.5t26.5 -102.5t40 -26q13 0 23 6.5t19.5 25.5t15.5 52.5t9.5 90t3.5 134.5q-1 160 -23 351q14 0 34 2q23 -193 23 -342q0 -140 -12.5 -217.5t-34.5 -105
t-60 -27.5zM74 726q-13 9 -28 17l68 116q10 -1 30 0l71 -116q-8 -4 -26 -16q-27 50 -59 96q-23 -36 -56 -97z" />
    <glyph glyph-name="Udieresis.alt" horiz-adv-x="255" 
d="M128 -1q-35 0 -57.5 28t-36.5 108.5t-14 219.5q0 160 19 332q11 -1 33 -1q-19 -179 -19 -321q0 -131 10.5 -207.5t26.5 -102.5t40 -26q13 0 23 6.5t19.5 25.5t15.5 52.5t9.5 90t3.5 134.5q-1 160 -23 351q14 0 34 2q23 -193 23 -342q0 -140 -12.5 -217.5t-34.5 -105
t-60 -27.5zM89 750q-27 0 -27 32q0 14 8 23t19 9q28 0 28 -32t-28 -32zM174 752q-28 0 -28 32q0 30 28 30q26 0 26 -32q0 -30 -26 -30z" />
    <glyph glyph-name="Ugrave.alt" horiz-adv-x="255" 
d="M128 -1q-35 0 -57.5 28t-36.5 108.5t-14 219.5q0 160 19 332q11 -1 33 -1q-19 -179 -19 -321q0 -131 10.5 -207.5t26.5 -102.5t40 -26q13 0 23 6.5t19.5 25.5t15.5 52.5t9.5 90t3.5 134.5q-1 160 -23 351q14 0 34 2q23 -193 23 -342q0 -140 -12.5 -217.5t-34.5 -105
t-60 -27.5zM145 724l-80 112q9 5 33 26q40 -71 71 -120q-5 -3 -24 -18z" />
    <glyph glyph-name="Uhungarumlaut.alt" horiz-adv-x="255" 
d="M128 -1q-35 0 -57.5 28t-36.5 108.5t-14 219.5q0 160 19 332q11 -1 33 -1q-19 -179 -19 -321q0 -131 10.5 -207.5t26.5 -102.5t40 -26q13 0 23 6.5t19.5 25.5t15.5 52.5t9.5 90t3.5 134.5q-1 160 -23 351q14 0 34 2q23 -193 23 -342q0 -140 -12.5 -217.5t-34.5 -105
t-60 -27.5zM151 731l-24 18l75 117l29 -23zM79 734l-24 18l69 117l29 -22z" />
    <glyph glyph-name="Umacron.alt" horiz-adv-x="255" 
d="M128 -1q-35 0 -57.5 28t-36.5 108.5t-14 219.5q0 160 19 332q11 -1 33 -1q-19 -179 -19 -321q0 -131 10.5 -207.5t26.5 -102.5t40 -26q13 0 23 6.5t19.5 25.5t15.5 52.5t9.5 90t3.5 134.5q-1 160 -23 351q14 0 34 2q23 -193 23 -342q0 -140 -12.5 -217.5t-34.5 -105
t-60 -27.5zM49 767q1 14 0 33q57 -1 163 1q-1 -4 -1 -33q-59 1 -162 -1z" />
    <glyph glyph-name="Uogonek.alt" horiz-adv-x="255" 
d="M165 -143q-42 -2 -68 17.5t-26 52.5q0 43 40 73q-45 10 -68 89t-23 266q0 160 19 332q11 -1 33 -1q-19 -179 -19 -321q0 -131 10.5 -207.5t26.5 -102.5t40 -26q13 0 23 6.5t19.5 25.5t15.5 52.5t9.5 90t3.5 134.5q-1 160 -23 351q14 0 34 2q23 -193 23 -342
q0 -188 -21.5 -264t-68.5 -85q-40 -35 -40 -65q0 -48 61 -47q0 -8 -1 -31z" />
    <glyph glyph-name="Uring.alt" horiz-adv-x="255" 
d="M128 -1q-35 0 -57.5 28t-36.5 108.5t-14 219.5q0 160 19 332q11 -1 33 -1q-19 -179 -19 -321q0 -131 10.5 -207.5t26.5 -102.5t40 -26q13 0 23 6.5t19.5 25.5t15.5 52.5t9.5 90t3.5 134.5q-1 160 -23 351q14 0 34 2q23 -193 23 -342q0 -140 -12.5 -217.5t-34.5 -105
t-60 -27.5zM131 728q-32 0 -49 23t-17 58t18.5 56t47.5 21q32 0 49.5 -22t17.5 -55q0 -42 -19 -61.5t-48 -19.5zM132 757q36 0 36 52q0 21 -9 36t-27 15q-36 0 -36 -51q0 -52 36 -52z" />
    <glyph glyph-name="Yacute.alt" horiz-adv-x="238" 
d="M101 -14q2 56 0 173l-95 528q12 0 31 2l80 -463l85 460q13 0 31 -2q-39 -185 -102 -528q-1 -32 3 -168q-11 -2 -33 -2zM112 720l-24 18l71 120l33 -26z" />
    <glyph glyph-name="Ydieresis.alt" horiz-adv-x="238" 
d="M101 -14q2 56 0 173l-95 528q12 0 31 2l80 -463l85 460q13 0 31 -2q-39 -185 -102 -528q-1 -32 3 -168q-11 -2 -33 -2zM78 746q-27 0 -27 32q0 14 8 23t19 9q28 0 28 -32t-28 -32zM163 748q-28 0 -28 32q0 30 28 30q26 0 26 -32q0 -30 -26 -30z" />
    <glyph glyph-name="Zacute.alt" horiz-adv-x="228" 
d="M211 9l-196 4l1 22l158 623l-155 -3l-1 29l191 3l1 -17l-161 -628l164 -2zM107 731l-24 18l71 120l33 -26z" />
    <glyph glyph-name="Zcaron.alt" horiz-adv-x="228" 
d="M211 9l-196 4l1 22l158 623l-155 -3l-1 29l191 3l1 -17l-161 -628l164 -2zM101 726l-71 116q8 4 26 16q28 -51 60 -97l55 98q13 -9 28 -17q-30 -47 -68 -116q-10 1 -30 0z" />
    <glyph glyph-name="Zdotaccent.alt" horiz-adv-x="228" 
d="M211 9l-196 4l1 22l158 623l-155 -3l-1 29l191 3l1 -17l-161 -628l164 -2zM115 747q-19 0 -29.5 13t-10.5 34q0 20 10.5 32t29.5 12q18 0 28 -12.5t10 -31.5q0 -47 -38 -47z" />
    <glyph glyph-name="aacute.alt" horiz-adv-x="248" 
d="M104 -4q-40 0 -64.5 29.5t-24.5 86.5q0 62 42 112.5t127 68.5l-2 77q-2 49 -14 73t-41 24q-36 0 -49 -31.5t-11 -95.5q-16 2 -33 2q-6 158 94 158q83 0 86 -123q3 -113 4 -212.5t0 -142.5l-1 -42q-8 0 -32 -1q1 40 2 91q-8 -33 -30.5 -53.5t-52.5 -20.5zM185 172
q0 60 -1 92q-70 -15 -103 -57t-33 -93q0 -86 61 -86q31 0 53.5 34.5t22.5 109.5zM110 536l-24 18l71 120l33 -26z" />
    <glyph glyph-name="abreve.alt" horiz-adv-x="248" 
d="M104 -4q-40 0 -64.5 29.5t-24.5 86.5q0 62 42 112.5t127 68.5l-2 77q-2 49 -14 73t-41 24q-36 0 -49 -31.5t-11 -95.5q-16 2 -33 2q-6 158 94 158q83 0 86 -123q3 -113 4 -212.5t0 -142.5l-1 -42q-8 0 -32 -1q1 40 2 91q-8 -33 -30.5 -53.5t-52.5 -20.5zM185 172
q0 60 -1 92q-70 -15 -103 -57t-33 -93q0 -86 61 -86q31 0 53.5 34.5t22.5 109.5zM116 544q-40 0 -61.5 25.5t-19.5 65.5q16 -1 33 0q-2 -29 10.5 -46t38.5 -17q57 0 53 72q10 -1 30 -1q4 -48 -20 -73.5t-64 -25.5z" />
    <glyph glyph-name="acircumflex.alt" horiz-adv-x="248" 
d="M104 -4q-40 0 -64.5 29.5t-24.5 86.5q0 62 42 112.5t127 68.5l-2 77q-2 49 -14 73t-41 24q-36 0 -49 -31.5t-11 -95.5q-16 2 -33 2q-6 158 94 158q83 0 86 -123q3 -113 4 -212.5t0 -142.5l-1 -42q-8 0 -32 -1q1 40 2 91q-8 -33 -30.5 -53.5t-52.5 -20.5zM185 172
q0 60 -1 92q-70 -15 -103 -57t-33 -93q0 -86 61 -86q31 0 53.5 34.5t22.5 109.5zM61 531q-13 9 -28 17l68 116q10 -1 30 0l71 -116q-8 -4 -26 -16q-27 50 -59 96q-23 -36 -56 -97z" />
    <glyph glyph-name="adieresis.alt" horiz-adv-x="248" 
d="M104 -4q-40 0 -64.5 29.5t-24.5 86.5q0 62 42 112.5t127 68.5l-2 77q-2 49 -14 73t-41 24q-36 0 -49 -31.5t-11 -95.5q-16 2 -33 2q-6 158 94 158q83 0 86 -123q3 -113 4 -212.5t0 -142.5l-1 -42q-8 0 -32 -1q1 40 2 91q-8 -33 -30.5 -53.5t-52.5 -20.5zM185 172
q0 60 -1 92q-70 -15 -103 -57t-33 -93q0 -86 61 -86q31 0 53.5 34.5t22.5 109.5zM75 561q-27 0 -27 32q0 14 8 23t19 9q28 0 28 -32t-28 -32zM160 563q-28 0 -28 32q0 30 28 30q26 0 26 -32q0 -30 -26 -30z" />
    <glyph glyph-name="agrave.alt" horiz-adv-x="248" 
d="M104 -4q-40 0 -64.5 29.5t-24.5 86.5q0 62 42 112.5t127 68.5l-2 77q-2 49 -14 73t-41 24q-36 0 -49 -31.5t-11 -95.5q-16 2 -33 2q-6 158 94 158q83 0 86 -123q3 -113 4 -212.5t0 -142.5l-1 -42q-8 0 -32 -1q1 40 2 91q-8 -33 -30.5 -53.5t-52.5 -20.5zM185 172
q0 60 -1 92q-70 -15 -103 -57t-33 -93q0 -86 61 -86q31 0 53.5 34.5t22.5 109.5zM131 536l-80 112q9 5 33 26q40 -71 71 -120q-5 -3 -24 -18z" />
    <glyph glyph-name="amacron.alt" horiz-adv-x="248" 
d="M104 -4q-40 0 -64.5 29.5t-24.5 86.5q0 62 42 112.5t127 68.5l-2 77q-2 49 -14 73t-41 24q-36 0 -49 -31.5t-11 -95.5q-16 2 -33 2q-6 158 94 158q83 0 86 -123q3 -113 4 -212.5t0 -142.5l-1 -42q-8 0 -32 -1q1 40 2 91q-8 -33 -30.5 -53.5t-52.5 -20.5zM185 172
q0 60 -1 92q-70 -15 -103 -57t-33 -93q0 -86 61 -86q31 0 53.5 34.5t22.5 109.5zM36 576q1 14 0 33q57 -1 163 1q-1 -4 -1 -33q-59 1 -162 -1z" />
    <glyph glyph-name="aogonek.alt" horiz-adv-x="248" 
d="M104 -4q-40 0 -64.5 29.5t-24.5 86.5q0 62 42 112.5t127 68.5l-2 77q-2 49 -14 73t-41 24q-36 0 -49 -31.5t-11 -95.5q-16 2 -33 2q-6 158 94 158q83 0 86 -123q3 -113 4 -212.5t0 -142.5l-1 -42q-50 -33 -50 -69q0 -48 61 -47q0 -8 -1 -31q-42 -2 -68 17.5t-26 52.5
q0 49 52 80q0 3 0.5 14.5t1 32.5t0.5 40q-8 -33 -30.5 -53.5t-52.5 -20.5zM185 172q0 60 -1 92q-70 -15 -103 -57t-33 -93q0 -86 61 -86q31 0 53.5 34.5t22.5 109.5z" />
    <glyph glyph-name="aring.alt" horiz-adv-x="248" 
d="M104 -4q-40 0 -64.5 29.5t-24.5 86.5q0 62 42 112.5t127 68.5l-2 77q-2 49 -14 73t-41 24q-36 0 -49 -31.5t-11 -95.5q-16 2 -33 2q-6 158 94 158q83 0 86 -123q3 -113 4 -212.5t0 -142.5l-1 -42q-8 0 -32 -1q1 40 2 91q-8 -33 -30.5 -53.5t-52.5 -20.5zM185 172
q0 60 -1 92q-70 -15 -103 -57t-33 -93q0 -86 61 -86q31 0 53.5 34.5t22.5 109.5zM117 541q-32 0 -49 23t-17 58t18.5 56t47.5 21q32 0 49.5 -22t17.5 -55q0 -42 -19 -61.5t-48 -19.5zM118 570q36 0 36 52q0 21 -9 36t-27 15q-36 0 -36 -51q0 -52 36 -52z" />
    <glyph glyph-name="atilde.alt" horiz-adv-x="248" 
d="M104 -4q-40 0 -64.5 29.5t-24.5 86.5q0 62 42 112.5t127 68.5l-2 77q-2 49 -14 73t-41 24q-36 0 -49 -31.5t-11 -95.5q-16 2 -33 2q-6 158 94 158q83 0 86 -123q3 -113 4 -212.5t0 -142.5l-1 -42q-8 0 -32 -1q1 40 2 91q-8 -33 -30.5 -53.5t-52.5 -20.5zM185 172
q0 60 -1 92q-70 -15 -103 -57t-33 -93q0 -86 61 -86q31 0 53.5 34.5t22.5 109.5zM58 551q-17 1 -30 -1q-4 43 11.5 68t40.5 25q23 0 47.5 -30.5t34.5 -30.5q25 0 16 58q2 -1 28 2q10 -92 -46 -92q-18 0 -32.5 15t-26 30.5t-20.5 15.5q-16 0 -20.5 -14t-2.5 -46z" />
    <glyph glyph-name="cacute.alt" horiz-adv-x="255" 
d="M137 -9q-57 0 -82 61.5t-25 196.5q0 261 109 261q97 0 90 -188l-32 -1q2 81 -11.5 118.5t-45.5 37.5q-36 0 -56.5 -60t-20.5 -169q0 -226 73 -226q64 -2 61 170q13 0 33 1q-1 -109 -24 -155.5t-69 -46.5zM122 541l-24 18l71 120l33 -26z" />
    <glyph glyph-name="ccaron.alt" horiz-adv-x="255" 
d="M137 -9q-57 0 -82 61.5t-25 196.5q0 261 109 261q97 0 90 -188l-32 -1q2 81 -11.5 118.5t-45.5 37.5q-36 0 -56.5 -60t-20.5 -169q0 -226 73 -226q64 -2 61 170q13 0 33 1q-1 -109 -24 -155.5t-69 -46.5zM117 536l-71 116q8 4 26 16q28 -51 60 -97l55 98q13 -9 28 -17
q-30 -47 -68 -116q-10 1 -30 0z" />
    <glyph glyph-name="ccedilla.alt" horiz-adv-x="255" 
d="M230 193q-1 -102 -21 -149t-60 -52q-3 -28 -4 -36q39 1 59.5 -14t20.5 -38q0 -29 -26 -45.5t-62 -16.5q-43 0 -78 24q6 9 12 25q34 -22 67 -22q23 0 39 8t16 24q0 40 -83 28q5 19 12 63q-48 7 -70 69t-22 188q0 261 109 261q97 0 90 -188l-32 -1q2 81 -11.5 118.5
t-45.5 37.5q-36 0 -56.5 -60t-20.5 -169q0 -226 73 -226q64 -2 61 170q13 0 33 1z" />
    <glyph glyph-name="ccircumflex.alt" horiz-adv-x="255" 
d="M137 -9q-57 0 -82 61.5t-25 196.5q0 261 109 261q97 0 90 -188l-32 -1q2 81 -11.5 118.5t-45.5 37.5q-36 0 -56.5 -60t-20.5 -169q0 -226 73 -226q64 -2 61 170q13 0 33 1q-1 -109 -24 -155.5t-69 -46.5zM74 536q-13 9 -28 17l68 116q10 -1 30 0l71 -116q-8 -4 -26 -16
q-27 50 -59 96q-23 -36 -56 -97z" />
    <glyph glyph-name="dcaron.alt" horiz-adv-x="289" 
d="M249 -5q-16 1 -35 1q2 38 3 95q-9 -42 -32 -67.5t-51 -25.5q-50 0 -77 60t-27 174q0 129 28 199.5t81 70.5q29 0 50 -26t31 -65l-4 283q9 1 32 1q-3 -300 1 -700zM138 30q34 0 56 53t22 144q1 243 -78 243q-34 0 -55 -61t-21 -148q0 -231 76 -231zM367 657
q0 -54 -66 -103l-15 20q23 18 39 47q-26 5 -26 36q0 16 10.5 27t24.5 11q33 0 33 -38z" />
    <glyph glyph-name="eacute.alt" horiz-adv-x="258" 
d="M137 -6q-55 0 -81 60t-26 204q0 245 104 245q56 0 76.5 -67t16.5 -202q-63 0 -164 -4q3 -206 74 -206q63 0 66 145q12 0 30 1q-1 -176 -96 -176zM132 473q-32 0 -50 -59t-19 -152q51 0 133 3q0 108 -15 158t-49 50zM123 536l-24 18l71 120l33 -26z" />
    <glyph glyph-name="ecaron.alt" horiz-adv-x="258" 
d="M137 -6q-55 0 -81 60t-26 204q0 245 104 245q56 0 76.5 -67t16.5 -202q-63 0 -164 -4q3 -206 74 -206q63 0 66 145q12 0 30 1q-1 -176 -96 -176zM132 473q-32 0 -50 -59t-19 -152q51 0 133 3q0 108 -15 158t-49 50zM118 531l-71 116q8 4 26 16q28 -51 60 -97l55 98
q13 -9 28 -17q-30 -47 -68 -116q-10 1 -30 0z" />
    <glyph glyph-name="ecircumflex.alt" horiz-adv-x="258" 
d="M137 -6q-55 0 -81 60t-26 204q0 245 104 245q56 0 76.5 -67t16.5 -202q-63 0 -164 -4q3 -206 74 -206q63 0 66 145q12 0 30 1q-1 -176 -96 -176zM132 473q-32 0 -50 -59t-19 -152q51 0 133 3q0 108 -15 158t-49 50zM75 531q-13 9 -28 17l68 116q10 -1 30 0l71 -116
q-8 -4 -26 -16q-27 50 -59 96q-23 -36 -56 -97z" />
    <glyph glyph-name="edieresis.alt" horiz-adv-x="258" 
d="M137 -6q-55 0 -81 60t-26 204q0 245 104 245q56 0 76.5 -67t16.5 -202q-63 0 -164 -4q3 -206 74 -206q63 0 66 145q12 0 30 1q-1 -176 -96 -176zM132 473q-32 0 -50 -59t-19 -152q51 0 133 3q0 108 -15 158t-49 50zM90 561q-27 0 -27 32q0 14 8 23t19 9q28 0 28 -32
t-28 -32zM175 563q-28 0 -28 32q0 30 28 30q26 0 26 -32q0 -30 -26 -30z" />
    <glyph glyph-name="edotaccent.alt" horiz-adv-x="258" 
d="M137 -6q-55 0 -81 60t-26 204q0 245 104 245q56 0 76.5 -67t16.5 -202q-63 0 -164 -4q3 -206 74 -206q63 0 66 145q12 0 30 1q-1 -176 -96 -176zM132 473q-32 0 -50 -59t-19 -152q51 0 133 3q0 108 -15 158t-49 50zM133 556q-19 0 -29.5 13t-10.5 34q0 20 10.5 32
t29.5 12q18 0 28 -12.5t10 -31.5q0 -47 -38 -47z" />
    <glyph glyph-name="egrave.alt" horiz-adv-x="258" 
d="M137 -6q-55 0 -81 60t-26 204q0 245 104 245q56 0 76.5 -67t16.5 -202q-63 0 -164 -4q3 -206 74 -206q63 0 66 145q12 0 30 1q-1 -176 -96 -176zM132 473q-32 0 -50 -59t-19 -152q51 0 133 3q0 108 -15 158t-49 50zM146 536l-80 112q9 5 33 26q40 -71 71 -120
q-5 -3 -24 -18z" />
    <glyph glyph-name="emacron.alt" horiz-adv-x="258" 
d="M137 -6q-55 0 -81 60t-26 204q0 245 104 245q56 0 76.5 -67t16.5 -202q-63 0 -164 -4q3 -206 74 -206q63 0 66 145q12 0 30 1q-1 -176 -96 -176zM132 473q-32 0 -50 -59t-19 -152q51 0 133 3q0 108 -15 158t-49 50zM50 576q1 14 0 33q57 -1 163 1q-1 -4 -1 -33
q-59 1 -162 -1z" />
    <glyph glyph-name="eogonek.alt" horiz-adv-x="258" 
d="M178 -148q-42 -2 -68 17.5t-26 52.5q0 41 39 73q-47 6 -70 67t-23 196q0 245 104 245q56 0 76.5 -67t16.5 -202q-63 0 -164 -4q3 -206 74 -206q63 0 66 145q12 0 30 1q-1 -154 -74 -173q-41 -36 -41 -67q0 -48 61 -47q0 -8 -1 -31zM132 473q-32 0 -50 -59t-19 -152
q51 0 133 3q0 108 -15 158t-49 50z" />
    <glyph glyph-name="gbreve.alt" horiz-adv-x="244" 
d="M123 115q74 0 74 167q0 176 -74 176q-35 0 -53.5 -49t-18.5 -127q0 -167 72 -167zM228 -108q0 30 -21.5 45.5t-78.5 28.5q-82 -42 -82 -98q0 -29 23 -44t58 -15q42 0 71.5 23.5t29.5 59.5zM264 -104q0 -50 -41.5 -84.5t-99.5 -34.5q-51 0 -82 24.5t-31 62.5q0 71 86 113
q-41 21 -41 57q0 31 30 57q-68 35 -68 193q0 93 28.5 150.5t79.5 57.5q55 0 80 -57t25 -152q0 -100 -29 -150t-78 -50l-11 1q-23 -20 -23 -44q0 -17 16.5 -28.5t64.5 -24.5q52 -14 73 -36t21 -55zM121 537q-40 0 -61.5 25.5t-19.5 65.5q16 -1 33 0q-2 -29 10.5 -46t38.5 -17
q57 0 53 72q10 -1 30 -1q4 -48 -20 -73.5t-64 -25.5z" />
    <glyph glyph-name="gcircumflex.alt" horiz-adv-x="244" 
d="M123 115q74 0 74 167q0 176 -74 176q-35 0 -53.5 -49t-18.5 -127q0 -167 72 -167zM228 -108q0 30 -21.5 45.5t-78.5 28.5q-82 -42 -82 -98q0 -29 23 -44t58 -15q42 0 71.5 23.5t29.5 59.5zM264 -104q0 -50 -41.5 -84.5t-99.5 -34.5q-51 0 -82 24.5t-31 62.5q0 71 86 113
q-41 21 -41 57q0 31 30 57q-68 35 -68 193q0 93 28.5 150.5t79.5 57.5q55 0 80 -57t25 -152q0 -100 -29 -150t-78 -50l-11 1q-23 -20 -23 -44q0 -17 16.5 -28.5t64.5 -24.5q52 -14 73 -36t21 -55zM67 521q-13 9 -28 17l68 116q10 -1 30 0l71 -116q-8 -4 -26 -16
q-27 50 -59 96q-23 -36 -56 -97z" />
    <glyph glyph-name="gcommaaccent.alt" horiz-adv-x="244" 
d="M123 115q74 0 74 167q0 176 -74 176q-35 0 -53.5 -49t-18.5 -127q0 -167 72 -167zM228 -108q0 30 -21.5 45.5t-78.5 28.5q-82 -42 -82 -98q0 -29 23 -44t58 -15q42 0 71.5 23.5t29.5 59.5zM264 -104q0 -50 -41.5 -84.5t-99.5 -34.5q-51 0 -82 24.5t-31 62.5q0 71 86 113
q-41 21 -41 57q0 31 30 57q-68 35 -68 193q0 93 28.5 150.5t79.5 57.5q55 0 80 -57t25 -152q0 -100 -29 -150t-78 -50l-11 1q-23 -20 -23 -44q0 -17 16.5 -28.5t64.5 -24.5q52 -14 73 -36t21 -55zM93 564q0 54 66 103l15 -20q-23 -18 -39 -47q26 -5 26 -36q0 -16 -10.5 -27
t-24.5 -11q-33 0 -33 38z" />
    <glyph glyph-name="hcircumflex.alt" horiz-adv-x="261" 
d="M39 -6q0 332 -4 698q20 0 32 1q0 -139 1 -292q12 43 36 69t57 25q36 0 50.5 -27t16.5 -86q2 -72 2.5 -168t-0.5 -156l-1 -60q-11 1 -31 1q3 210 -1 373q-2 51 -11 71t-35 20q-32 0 -56.5 -49t-24.5 -122l-1 -297q-16 0 -30 -1zM-10 702q-13 9 -28 17l68 116q10 -1 30 0
l71 -116q-8 -4 -26 -16q-27 50 -59 96q-23 -36 -56 -97z" />
    <glyph glyph-name="iacute.alt" horiz-adv-x="115" 
d="M45 12q1 106 -3 472q13 0 31 1q0 -178 4 -472q-9 0 -32 -1zM59 541l-24 18l71 120l33 -26z" />
    <glyph glyph-name="icircumflex.alt" horiz-adv-x="115" 
d="M45 12q1 106 -3 472q13 0 31 1q0 -178 4 -472q-9 0 -32 -1zM2 536q-13 9 -28 17l68 116q10 -1 30 0l71 -116q-8 -4 -26 -16q-27 50 -59 96q-23 -36 -56 -97z" />
    <glyph glyph-name="idieresis.alt" horiz-adv-x="115" 
d="M45 12q1 106 -3 472q13 0 31 1q0 -178 4 -472q-9 0 -32 -1zM15 566q-27 0 -27 32q0 14 8 23t19 9q28 0 28 -32t-28 -32zM100 568q-28 0 -28 32q0 30 28 30q26 0 26 -32q0 -30 -26 -30z" />
    <glyph glyph-name="igrave.alt" horiz-adv-x="115" 
d="M45 12q1 106 -3 472q13 0 31 1q0 -178 4 -472q-9 0 -32 -1zM66 541l-80 112q9 5 33 26q40 -71 71 -120q-5 -3 -24 -18z" />
    <glyph glyph-name="imacron.alt" horiz-adv-x="115" 
d="M45 12q1 106 -3 472q13 0 31 1q0 -178 4 -472q-9 0 -32 -1zM-22 581q1 14 0 33q57 -1 163 1q-1 -4 -1 -33q-59 1 -162 -1z" />
    <glyph glyph-name="iogonek.alt" horiz-adv-x="115" 
d="M88 -136q-42 -2 -68 17.5t-26 52.5q0 48 51 80q1 107 -3 470q13 0 31 1q0 -178 4 -472q-49 -36 -49 -71q0 -48 61 -47q0 -8 -1 -31zM57 562q-12 0 -19.5 10.5t-7.5 26.5q0 40 28 40q27 0 27 -37q0 -40 -28 -40z" />
    <glyph glyph-name="jcircumflex.alt" horiz-adv-x="114" 
d="M-45 -184q2 14 4 34q17 -3 31 -3q28 0 40.5 17t13.5 55l-1 572l29 1q1 -33 2 -86.5t2.5 -215.5t-0.5 -281q-1 -49 -24 -73t-62 -24q-19 0 -35 4zM4 536q-13 9 -28 17l68 116q10 -1 30 0l71 -116q-8 -4 -26 -16q-27 50 -59 96q-23 -36 -56 -97z" />
    <glyph glyph-name="kcommaaccent.alt" horiz-adv-x="243" 
d="M200 -6l-89 290l-40 -78l3 -209l-34 1q0 187 -1 361t-3 255l-1 80l32 1l3 -434l128 254l32 -2q-78 -152 -97 -193l100 -324zM164 -61q0 -54 -66 -103l-15 20q23 18 39 47q-26 5 -26 36q0 16 10.5 27t24.5 11q33 0 33 -38z" />
    <glyph glyph-name="lacute.alt" horiz-adv-x="118" 
d="M75 -12l-35 2l5 704l33 1zM69 722l-24 18l71 120l33 -26z" />
    <glyph glyph-name="lcaron.alt" horiz-adv-x="118" 
d="M75 -12l-35 2l5 704l33 1zM196 657q0 -54 -66 -103l-15 20q23 18 39 47q-26 5 -26 36q0 16 10.5 27t24.5 11q33 0 33 -38z" />
    <glyph glyph-name="lcommaaccent.alt" horiz-adv-x="118" 
d="M75 -12l-35 2l5 704l33 1zM92 -66q0 -54 -66 -103l-15 20q23 18 39 47q-26 5 -26 36q0 16 10.5 27t24.5 11q33 0 33 -38z" />
    <glyph glyph-name="nacute.alt" horiz-adv-x="259" 
d="M197 3q-2 216 -2 374q0 88 -42 88q-35 0 -60 -47t-25 -110l-1 -315q-19 1 -32 0l2 487q15 0 30 1q-1 -33 0 -67q30 83 92 83q35 0 50 -27t17 -83l3 -383zM124 546l-24 18l71 120l33 -26z" />
    <glyph glyph-name="ncaron.alt" horiz-adv-x="259" 
d="M197 3q-2 216 -2 374q0 88 -42 88q-35 0 -60 -47t-25 -110l-1 -315q-19 1 -32 0l2 487q15 0 30 1q-1 -33 0 -67q30 83 92 83q35 0 50 -27t17 -83l3 -383zM119 541l-71 116q8 4 26 16q28 -51 60 -97l55 98q13 -9 28 -17q-30 -47 -68 -116q-10 1 -30 0z" />
    <glyph glyph-name="ncommaaccent.alt" horiz-adv-x="259" 
d="M197 3q-2 216 -2 374q0 88 -42 88q-35 0 -60 -47t-25 -110l-1 -315q-19 1 -32 0l2 487q15 0 30 1q-1 -33 0 -67q30 83 92 83q35 0 50 -27t17 -83l3 -383zM164 -66q0 -54 -66 -103l-15 20q23 18 39 47q-26 5 -26 36q0 16 10.5 27t24.5 11q33 0 33 -38z" />
    <glyph glyph-name="ntilde.alt" horiz-adv-x="259" 
d="M197 3q-2 216 -2 374q0 88 -42 88q-35 0 -60 -47t-25 -110l-1 -315q-19 1 -32 0l2 487q15 0 30 1q-1 -33 0 -67q30 83 92 83q35 0 50 -27t17 -83l3 -383zM73 561q-17 1 -30 -1q-4 43 11.5 68t40.5 25q23 0 47.5 -30.5t34.5 -30.5q25 0 16 58q2 -1 28 2q10 -92 -46 -92
q-18 0 -32.5 15t-26 30.5t-20.5 15.5q-16 0 -20.5 -14t-2.5 -46z" />
    <glyph glyph-name="oacute.alt" 
d="M142 503q108 0 108 -258q0 -256 -105 -256q-115 0 -115 251q0 263 112 263zM141 472q-42 0 -60 -68t-18 -165q0 -109 22 -164.5t59 -55.5q32 0 52.5 56t20.5 164q0 233 -76 233zM132 536l-24 18l71 120l33 -26z" />
    <glyph glyph-name="ocircumflex.alt" 
d="M142 503q108 0 108 -258q0 -256 -105 -256q-115 0 -115 251q0 263 112 263zM141 472q-42 0 -60 -68t-18 -165q0 -109 22 -164.5t59 -55.5q32 0 52.5 56t20.5 164q0 233 -76 233zM84 527q-13 9 -28 17l68 116q10 -1 30 0l71 -116q-8 -4 -26 -16q-27 50 -59 96
q-23 -36 -56 -97z" />
    <glyph glyph-name="odieresis.alt" 
d="M142 503q108 0 108 -258q0 -256 -105 -256q-115 0 -115 251q0 263 112 263zM141 472q-42 0 -60 -68t-18 -165q0 -109 22 -164.5t59 -55.5q32 0 52.5 56t20.5 164q0 233 -76 233zM98 557q-27 0 -27 32q0 14 8 23t19 9q28 0 28 -32t-28 -32zM183 559q-28 0 -28 32
q0 30 28 30q26 0 26 -32q0 -30 -26 -30z" />
    <glyph glyph-name="ograve.alt" 
d="M142 503q108 0 108 -258q0 -256 -105 -256q-115 0 -115 251q0 263 112 263zM141 472q-42 0 -60 -68t-18 -165q0 -109 22 -164.5t59 -55.5q32 0 52.5 56t20.5 164q0 233 -76 233zM154 536l-80 112q9 5 33 26q40 -71 71 -120q-5 -3 -24 -18z" />
    <glyph glyph-name="ohungarumlaut.alt" 
d="M142 503q108 0 108 -258q0 -256 -105 -256q-115 0 -115 251q0 263 112 263zM141 472q-42 0 -60 -68t-18 -165q0 -109 22 -164.5t59 -55.5q32 0 52.5 56t20.5 164q0 233 -76 233zM160 536l-24 18l75 117l29 -23zM88 539l-24 18l69 117l29 -22z" />
    <glyph glyph-name="omacron.alt" 
d="M142 503q108 0 108 -258q0 -256 -105 -256q-115 0 -115 251q0 263 112 263zM141 472q-42 0 -60 -68t-18 -165q0 -109 22 -164.5t59 -55.5q32 0 52.5 56t20.5 164q0 233 -76 233zM59 576q1 14 0 33q57 -1 163 1q-1 -4 -1 -33q-59 1 -162 -1z" />
    <glyph glyph-name="otilde.alt" 
d="M142 503q108 0 108 -258q0 -256 -105 -256q-115 0 -115 251q0 263 112 263zM141 472q-42 0 -60 -68t-18 -165q0 -109 22 -164.5t59 -55.5q32 0 52.5 56t20.5 164q0 233 -76 233zM81 551q-17 1 -30 -1q-4 43 11.5 68t40.5 25q23 0 47.5 -30.5t34.5 -30.5q25 0 16 58
q2 -1 28 2q10 -92 -46 -92q-18 0 -32.5 15t-26 30.5t-20.5 15.5q-16 0 -20.5 -14t-2.5 -46z" />
    <glyph glyph-name="racute.alt" horiz-adv-x="190" 
d="M37 13q0 235 -2 458q18 0 29 1q-2 -21 -2 -79q12 51 44.5 84t72.5 38q1 -13 1 -34q-51 -12 -80 -60t-31 -130q-1 -65 -0.5 -126.5t1.5 -106.5l2 -44q-15 -1 -35 -1zM94 541l-24 18l71 120l33 -26z" />
    <glyph glyph-name="rcaron.alt" horiz-adv-x="190" 
d="M37 13q0 235 -2 458q18 0 29 1q-2 -21 -2 -79q12 51 44.5 84t72.5 38q1 -13 1 -34q-51 -12 -80 -60t-31 -130q-1 -65 -0.5 -126.5t1.5 -106.5l2 -44q-15 -1 -35 -1zM89 536l-71 116q8 4 26 16q28 -51 60 -97l55 98q13 -9 28 -17q-30 -47 -68 -116q-10 1 -30 0z" />
    <glyph glyph-name="rcommaaccent.alt" horiz-adv-x="190" 
d="M37 13q0 235 -2 458q18 0 29 1q-2 -21 -2 -79q12 51 44.5 84t72.5 38q1 -13 1 -34q-51 -12 -80 -60t-31 -130q-1 -65 -0.5 -126.5t1.5 -106.5l2 -44q-15 -1 -35 -1zM91 -66q0 -54 -66 -103l-15 20q23 18 39 47q-26 5 -26 36q0 16 10.5 27t24.5 11q33 0 33 -38z" />
    <glyph glyph-name="sacute.alt" horiz-adv-x="230" 
d="M120 -1q-51 0 -76.5 41t-18.5 117q13 -2 32 -4q-9 -123 65 -123q60 0 60 81q0 39 -16.5 65t-63.5 58t-67 67t-20 86q0 49 25.5 82t68.5 33q57 0 76 -47.5t15 -141.5q-12 0 -30 2q2 82 -10 119.5t-48 37.5q-30 0 -47 -23.5t-17 -59.5q0 -44 18 -74.5t62 -59.5
q49 -33 68 -65t19 -77q0 -59 -26.5 -86.5t-68.5 -27.5zM108 541l-24 18l71 120l33 -26z" />
    <glyph glyph-name="scaron.alt" horiz-adv-x="230" 
d="M120 -1q-51 0 -76.5 41t-18.5 117q13 -2 32 -4q-9 -123 65 -123q60 0 60 81q0 39 -16.5 65t-63.5 58t-67 67t-20 86q0 49 25.5 82t68.5 33q57 0 76 -47.5t15 -141.5q-12 0 -30 2q2 82 -10 119.5t-48 37.5q-30 0 -47 -23.5t-17 -59.5q0 -44 18 -74.5t62 -59.5
q49 -33 68 -65t19 -77q0 -59 -26.5 -86.5t-68.5 -27.5zM102 536l-71 116q8 4 26 16q28 -51 60 -97l55 98q13 -9 28 -17q-30 -47 -68 -116q-10 1 -30 0z" />
    <glyph glyph-name="scedilla.alt" horiz-adv-x="230" 
d="M182 111q0 39 -16.5 65t-63.5 58t-67 67t-20 86q0 49 25.5 82t68.5 33q57 0 76 -47.5t15 -141.5q-12 0 -30 2q2 82 -10 119.5t-48 37.5q-30 0 -47 -23.5t-17 -59.5q0 -44 18 -74.5t62 -59.5q49 -33 68 -65t19 -77q0 -101 -76 -113q-3 -23 -5 -41q39 1 59.5 -14t20.5 -38
q0 -29 -26 -45.5t-62 -16.5q-43 0 -78 24q6 9 12 25q34 -22 67 -22q23 0 39 8t16 24q0 40 -83 28q5 20 13 68q-47 2 -70.5 43t-16.5 114q13 -2 32 -4q-9 -123 65 -123q60 0 60 81z" />
    <glyph glyph-name="scircumflex.alt" horiz-adv-x="230" 
d="M120 -1q-51 0 -76.5 41t-18.5 117q13 -2 32 -4q-9 -123 65 -123q60 0 60 81q0 39 -16.5 65t-63.5 58t-67 67t-20 86q0 49 25.5 82t68.5 33q57 0 76 -47.5t15 -141.5q-12 0 -30 2q2 82 -10 119.5t-48 37.5q-30 0 -47 -23.5t-17 -59.5q0 -44 18 -74.5t62 -59.5
q49 -33 68 -65t19 -77q0 -59 -26.5 -86.5t-68.5 -27.5zM59 533q-13 9 -28 17l68 116q10 -1 30 0l71 -116q-8 -4 -26 -16q-27 50 -59 96q-23 -36 -56 -97z" />
    <glyph glyph-name="scommaaccent.alt" horiz-adv-x="230" 
d="M120 -1q-51 0 -76.5 41t-18.5 117q13 -2 32 -4q-9 -123 65 -123q60 0 60 81q0 39 -16.5 65t-63.5 58t-67 67t-20 86q0 49 25.5 82t68.5 33q57 0 76 -47.5t15 -141.5q-12 0 -30 2q2 82 -10 119.5t-48 37.5q-30 0 -47 -23.5t-17 -59.5q0 -44 18 -74.5t62 -59.5
q49 -33 68 -65t19 -77q0 -59 -26.5 -86.5t-68.5 -27.5zM154 -66q0 -54 -66 -103l-15 20q23 18 39 47q-26 5 -26 36q0 16 10.5 27t24.5 11q33 0 33 -38z" />
    <glyph glyph-name="tcaron.alt" horiz-adv-x="198" 
d="M188 -5q-27 -8 -54 -8q-75 0 -78 103q-4 196 -2 366l-49 1l1 30q18 -1 49 -1l2 102l31 -1q-1 -38 -2 -102l92 -1l-1 -30l-92 2q-2 -138 3 -366q2 -40 13 -56.5t38 -16.5q20 0 42 7zM208 627q0 -54 -66 -103l-15 20q23 18 39 47q-26 5 -26 36q0 16 10.5 27t24.5 11
q33 0 33 -38z" />
    <glyph glyph-name="tcommaaccent.alt" horiz-adv-x="198" 
d="M188 -5q-27 -8 -54 -8q-75 0 -78 103q-4 196 -2 366l-49 1l1 30q18 -1 49 -1l2 102l31 -1q-1 -38 -2 -102l92 -1l-1 -30l-92 2q-2 -138 3 -366q2 -40 13 -56.5t38 -16.5q20 0 42 7zM148 -76q0 -54 -66 -103l-15 20q23 18 39 47q-26 5 -26 36q0 16 10.5 27t24.5 11
q33 0 33 -38z" />
    <glyph glyph-name="uacute.alt" horiz-adv-x="268" 
d="M120 9q-43 0 -64 46.5t-21 181.5q0 147 12 261q15 -1 31 -1q-11 -101 -11 -258q0 -83 7.5 -128t19 -58t32.5 -13q28 0 49 50t21 118l-4 284q17 1 34 0q0 -240 2 -481q-13 0 -33 1l2 79q-12 -36 -32.5 -59t-44.5 -23zM123 531l-24 18l71 120l33 -26z" />
    <glyph glyph-name="ubreve.alt" horiz-adv-x="268" 
d="M120 9q-43 0 -64 46.5t-21 181.5q0 147 12 261q15 -1 31 -1q-11 -101 -11 -258q0 -83 7.5 -128t19 -58t32.5 -13q28 0 49 50t21 118l-4 284q17 1 34 0q0 -240 2 -481q-13 0 -33 1l2 79q-12 -36 -32.5 -59t-44.5 -23zM130 544q-40 0 -61.5 25.5t-19.5 65.5q16 -1 33 0
q-2 -29 10.5 -46t38.5 -17q57 0 53 72q10 -1 30 -1q4 -48 -20 -73.5t-64 -25.5z" />
    <glyph glyph-name="ucircumflex.alt" horiz-adv-x="268" 
d="M120 9q-43 0 -64 46.5t-21 181.5q0 147 12 261q15 -1 31 -1q-11 -101 -11 -258q0 -83 7.5 -128t19 -58t32.5 -13q28 0 49 50t21 118l-4 284q17 1 34 0q0 -240 2 -481q-13 0 -33 1l2 79q-12 -36 -32.5 -59t-44.5 -23zM75 531q-13 9 -28 17l68 116q10 -1 30 0l71 -116
q-8 -4 -26 -16q-27 50 -59 96q-23 -36 -56 -97z" />
    <glyph glyph-name="udieresis.alt" horiz-adv-x="268" 
d="M120 9q-43 0 -64 46.5t-21 181.5q0 147 12 261q15 -1 31 -1q-11 -101 -11 -258q0 -83 7.5 -128t19 -58t32.5 -13q28 0 49 50t21 118l-4 284q17 1 34 0q0 -240 2 -481q-13 0 -33 1l2 79q-12 -36 -32.5 -59t-44.5 -23zM90 561q-27 0 -27 32q0 14 8 23t19 9q28 0 28 -32
t-28 -32zM175 563q-28 0 -28 32q0 30 28 30q26 0 26 -32q0 -30 -26 -30z" />
    <glyph glyph-name="ugrave.alt" horiz-adv-x="268" 
d="M120 9q-43 0 -64 46.5t-21 181.5q0 147 12 261q15 -1 31 -1q-11 -101 -11 -258q0 -83 7.5 -128t19 -58t32.5 -13q28 0 49 50t21 118l-4 284q17 1 34 0q0 -240 2 -481q-13 0 -33 1l2 79q-12 -36 -32.5 -59t-44.5 -23zM146 534l-80 112q9 5 33 26q40 -71 71 -120
q-5 -3 -24 -18z" />
    <glyph glyph-name="uhungarumlaut.alt" horiz-adv-x="268" 
d="M120 9q-43 0 -64 46.5t-21 181.5q0 147 12 261q15 -1 31 -1q-11 -101 -11 -258q0 -83 7.5 -128t19 -58t32.5 -13q28 0 49 50t21 118l-4 284q17 1 34 0q0 -240 2 -481q-13 0 -33 1l2 79q-12 -36 -32.5 -59t-44.5 -23zM152 536l-24 18l75 117l29 -23zM80 539l-24 18l69 117
l29 -22z" />
    <glyph glyph-name="umacron.alt" horiz-adv-x="268" 
d="M120 9q-43 0 -64 46.5t-21 181.5q0 147 12 261q15 -1 31 -1q-11 -101 -11 -258q0 -83 7.5 -128t19 -58t32.5 -13q28 0 49 50t21 118l-4 284q17 1 34 0q0 -240 2 -481q-13 0 -33 1l2 79q-12 -36 -32.5 -59t-44.5 -23zM53 576q1 14 0 33q57 -1 163 1q-1 -4 -1 -33
q-59 1 -162 -1z" />
    <glyph glyph-name="uogonek.alt" horiz-adv-x="268" 
d="M120 9q-43 0 -64 46.5t-21 181.5q0 147 12 261q15 -1 31 -1q-11 -101 -11 -258q0 -83 7.5 -128t19 -58t32.5 -13q28 0 49 50t21 118l-4 284q17 1 34 0q0 -240 2 -481q-51 -34 -51 -69q0 -48 61 -47q0 -8 -1 -31q-42 -2 -68 17.5t-26 52.5q0 45 52 79l2 78
q-12 -36 -32.5 -59t-44.5 -23z" />
    <glyph glyph-name="uring.alt" horiz-adv-x="268" 
d="M120 9q-43 0 -64 46.5t-21 181.5q0 147 12 261q15 -1 31 -1q-11 -101 -11 -258q0 -83 7.5 -128t19 -58t32.5 -13q28 0 49 50t21 118l-4 284q17 1 34 0q0 -240 2 -481q-13 0 -33 1l2 79q-12 -36 -32.5 -59t-44.5 -23zM135 538q-32 0 -49 23t-17 58t18.5 56t47.5 21
q32 0 49.5 -22t17.5 -55q0 -42 -19 -61.5t-48 -19.5zM136 567q36 0 36 52q0 21 -9 36t-27 15q-36 0 -36 -51q0 -52 36 -52z" />
    <glyph glyph-name="yacute.alt" horiz-adv-x="229" 
d="M80 -233l-29 8l42 218l-88 512l34 3l72 -451l78 459l36 -4zM108 541l-24 18l71 120l33 -26z" />
    <glyph glyph-name="ydieresis.alt" horiz-adv-x="229" 
d="M80 -233l-29 8l42 218l-88 512l34 3l72 -451l78 459l36 -4zM73 566q-27 0 -27 32q0 14 8 23t19 9q28 0 28 -32t-28 -32zM158 568q-28 0 -28 32q0 30 28 30q26 0 26 -32q0 -30 -26 -30z" />
    <glyph glyph-name="zacute.alt" horiz-adv-x="211" 
d="M189 10l-169 2l1 33l131 415l-124 -1l-1 33l157 2l1 -29l-131 -422h137zM98 536l-24 18l71 120l33 -26z" />
    <glyph glyph-name="zcaron.alt" horiz-adv-x="211" 
d="M189 10l-169 2l1 33l131 415l-124 -1l-1 33l157 2l1 -29l-131 -422h137zM92 531l-71 116q8 4 26 16q28 -51 60 -97l55 98q13 -9 28 -17q-30 -47 -68 -116q-10 1 -30 0z" />
    <glyph glyph-name="zdotaccent.alt" horiz-adv-x="211" 
d="M189 10l-169 2l1 33l131 415l-124 -1l-1 33l157 2l1 -29l-131 -422h137zM107 556q-19 0 -29.5 13t-10.5 34q0 20 10.5 32t29.5 12q18 0 28 -12.5t10 -31.5q0 -47 -38 -47z" />
    <glyph glyph-name="uni0237.alt" horiz-adv-x="114" 
d="M-45 -184q2 14 4 34q17 -3 31 -3q28 0 40.5 17t13.5 55l-1 572l29 1q1 -33 2 -86.5t2.5 -215.5t-0.5 -281q-1 -49 -24 -73t-62 -24q-19 0 -35 4z" />
    <glyph glyph-name="zero.alt" horiz-adv-x="290" 
d="M141 681q119 0 119 -357q0 -186 -31 -260t-86 -74q-113 0 -113 320q0 192 24 281.5t87 89.5zM140 649q-39 0 -57.5 -78t-18.5 -255q0 -148 22 -221.5t58 -73.5t59.5 69t23.5 209q0 350 -87 350z" />
    <glyph glyph-name="one.alt" horiz-adv-x="201" 
d="M100 4q2 368 -3 628l-73 -66l-24 23l108 97l21 -5q0 -156 1.5 -325t3.5 -260l2 -91z" />
    <glyph glyph-name="two.alt" horiz-adv-x="230" 
d="M208 2l-183 4l-1 30q83 152 117.5 259t34.5 244q0 128 -61 128q-43 0 -56 -60.5t-1 -189.5q-11 0 -32 -2q-7 91 -3.5 153.5t25.5 95t67 32.5q93 0 93 -167q0 -124 -37 -240t-112 -252l151 -4z" />
    <glyph glyph-name="three.alt" horiz-adv-x="255" 
d="M123 -18q-118 0 -101 259q12 0 32 -2q-12 -227 72 -227q32 0 52.5 34t20.5 106q0 119 -46 154q-19 14 -37 18t-52 2q0 17 1 35q60 -4 86 14q45 31 45 130q0 157 -66 157q-80 0 -67 -225l-33 -3q-6 130 17 194t86 64q50 0 74 -49.5t24 -119.5q0 -157 -85 -181
q89 -27 89 -184q0 -89 -30 -132.5t-82 -43.5z" />
    <glyph glyph-name="four.alt" horiz-adv-x="263" 
d="M177 9q0 50 2 140q-67 -2 -174 -3q0 8 1 31l169 509l35 -1q-2 -232 -2 -505l45 1q-1 -12 -1 -31q-11 0 -44 -1l2 -139zM39 180h3h11h21.5h41h63.5q4 320 4 439z" />
    <glyph glyph-name="five.alt" horiz-adv-x="259" 
d="M129 -14q-113 0 -96 246l33 -2q-14 -216 67 -216q73 0 73 225q0 81 -15.5 134t-45.5 53q-42 0 -73 -127q-16 2 -34 3q6 161 9 379q86 0 182 2q-1 -14 -1 -33q-51 2 -148 0q0 -8 -4.5 -105t-6.5 -173q12 37 34 61.5t47 24.5q87 0 89 -229q0 -136 -27.5 -189.5t-82.5 -53.5
z" />
    <glyph glyph-name="six.alt" horiz-adv-x="272" 
d="M147 -10q-62 0 -89.5 77.5t-27.5 272.5q0 183 25.5 267t87.5 84q51 0 71.5 -58t16.5 -194l-32 2q3 112 -8.5 164.5t-47.5 52.5q-81 0 -81 -314v-11q34 59 88 58q53 -1 77.5 -54.5t24.5 -135.5q0 -211 -105 -211zM146 360q-49 0 -84 -74q2 -100 13.5 -160t29 -83t43.5 -23
q30 0 49.5 41t19.5 124q1 77 -16 126t-55 49z" />
    <glyph glyph-name="seven.alt" horiz-adv-x="225" 
d="M78 0q-29 418 103 650h-175l-1 32l213 2l2 -27q-135 -235 -109 -654z" />
    <glyph glyph-name="eight.alt" horiz-adv-x="267" 
d="M133 -4q-53 0 -83 42.5t-30 123.5q0 62 21 107t68 90q-80 82 -80 180q0 66 25.5 106t77.5 41q54 0 79.5 -40.5t25.5 -101.5q0 -69 -21.5 -110t-63.5 -76q51 -49 72.5 -93t22.5 -110q1 -78 -32 -118.5t-82 -40.5zM133 26q35 0 57 34.5t22 90.5q0 65 -19.5 106.5
t-62.5 81.5q-75 -70 -75 -176q0 -61 20.5 -99t57.5 -38zM132 377q35 33 53.5 68.5t17.5 91.5q-1 55 -18.5 87.5t-51.5 32.5t-52 -32t-18 -88q0 -91 69 -160z" />
    <glyph glyph-name="nine.alt" horiz-adv-x="268" 
d="M131 -4q-55 0 -81 56t-21 189l33 -2q-5 -111 12 -160.5t58 -49.5q27 0 41.5 22.5t22.5 87.5t9 191q-25 -50 -73 -50q-55 0 -83.5 50.5t-28.5 137.5q0 102 27.5 160t81.5 58q39 0 62 -30t35 -102.5t12 -199.5q0 -146 -11 -224t-33 -106t-63 -28zM133 311q51 0 72 74
q-1 143 -19 206.5t-55 63.5q-77 0 -77 -183q0 -77 21 -119t58 -42z" />
    <glyph glyph-name="period.alt" horiz-adv-x="99" 
d="M50 94q34 0 34 -45q0 -18 -10 -30t-24 -12q-35 0 -35 42q0 21 9.5 33t25.5 12z" />
    <glyph glyph-name="question.alt" horiz-adv-x="236" 
d="M77 150l-1 167q60 8 83 50.5t23 125.5q0 173 -70 173q-44 0 -56.5 -60.5t-1.5 -182.5q-7 -2 -34 -3q-7 90 -3 152t27.5 94t70.5 32q101 0 101 -196q0 -100 -26.5 -145.5t-80.5 -62.5l1 -142zM94 4q-35 0 -35 49q0 18 9.5 29.5t23.5 11.5q15 0 24.5 -12t9.5 -32
q0 -46 -32 -46z" />
    <glyph glyph-name="exclam.alt" horiz-adv-x="133" 
d="M68 2q-35 0 -35 46q0 44 35 44q33 0 33 -46q0 -44 -33 -44zM55 148q-2 292 -7 538q13 -1 38 0l-1 -538q-10 1 -30 0z" />
    </font>
</defs>
</svg>
